<svg width="44" height="44" fill="none" xmlns="http://www.w3.org/2000/svg"><rect width="44" height="44" rx="22" fill="#E84C0A"/><rect width="44" height="44" rx="22" fill="url(#paint0_linear_130_6)"/><path d="M32.13 12.006l-4.283.774a.857.857 0 00-.69.829v2.293L15.524 17.09a2.736 2.736 0 00-2.376 3.482l2.21 7.847c.249.911 1.244 1.436 2.128 1.105l10.113-3.51c.552-.193.939-.718.939-1.298v-10.61l3.84-.69a.71.71 0 00.58-.692.728.728 0 00-.828-.718zm-10.5 17.573c-1.215 0-2.21.995-2.21 2.21 0 1.216.995 2.211 2.21 2.211 1.216 0 2.21-.995 2.21-2.21a2.2 2.2 0 00-2.21-2.21zm7.46-2.763c-.773 0-1.38.608-1.38 1.382 0 .773.607 1.381 1.38 1.381.774 0 1.382-.608 1.382-1.381 0-.774-.608-1.382-1.381-1.382z" fill="#fff"/><defs><linearGradient id="paint0_linear_130_6" x1="22" y1="0" x2="22" y2="44" gradientUnits="userSpaceOnUse"><stop stop-color="#FFC400"/><stop offset="1" stop-color="#EC6602"/></linearGradient></defs></svg>