<svg width="169" height="40" fill="none" xmlns="http://www.w3.org/2000/svg"><path d="M21.509 12.666l-4.834-7.572.466-1.34 10.422-2.23c.458-.099.705.113.437.607l-5.687 10.5c-.247.451-.586.38-.804.035z" fill="#FBB900"/><path d="M21.798 7.937V1.629c0-.508-.162-.847-.692-.904l-7.07-.72c-.536-.056-.677.318-.628.763l.804 7.557c.043.402.233.691.755.67l6.189-.303c.487-.028.642-.247.642-.755z" fill="#B70E80"/><path d="M11.94 34.736a2.632 2.632 0 110 5.264 2.632 2.632 0 010-5.264zm-6.442-.332c4.128-1.27 8.475-2.646 12.603-3.916.564-.19.804-.41.797-1.397l.247-10.28 4.636-2.4c1.192-.621.338-2.053-.727-1.517l-4.622 2.329c-.55.275-.96.917-.988 1.53l-.077 1.567L.94 21.696c-.861.07-1.087.861-.854 1.496l3.839 10.415c.162.452.733 1.059 1.573.797zM19.95 30.89c.755 0 1.376.614 1.376 1.376 0 .755-.614 1.376-1.376 1.376a1.378 1.378 0 01-1.376-1.376c0-.755.621-1.376 1.376-1.376z" fill="#51AE32"/><path d="M8.025 11.479l-1.172 5.01-5.39 2.497c-.417.191-.403.572-.064.763l4.234 2.342-.946 7.05c-.05.352.247.571.62.19l5.547-5.709 5.723 1.101c.698.134.649-.338.515-.607l-2.674-5.398 4.177-6.583c.275-.438.035-.692-.367-.536l-6.866 2.766-2.702-3.098c-.353-.402-.565-.078-.635.212z" fill="#0069B4"/><path d="M33.68.183l-.91.515L31.5.472c-.317-.057-.352.035-.296.261l.212.882-1.066.939c-.176.155-.127.36.155.345l1.638-.084.846.903c.156.162.297.092.374-.078l.494-1.164 1.8-.55c.282-.085.254-.276.056-.34l-1.63-.514.021-.685c.021-.423-.204-.324-.423-.204z" fill="#51AE32"/><path fill-rule="evenodd" clip-rule="evenodd" d="M4.398 21.407l1.235.684-.946 7.05c-.05.352.247.57.621.19l5.546-5.709 5.723 1.101c.698.134.649-.339.515-.607L15.3 20.503l-10.902.904z" fill="#008237"/><path fill-rule="evenodd" clip-rule="evenodd" d="M21.798 7.937V2.793l-5.137 1.08c-.402.057-.416.558-.275.804l2.632 4.121 2.13-.106c.495-.028.65-.246.65-.755z" fill="#702383"/><path fill-rule="evenodd" clip-rule="evenodd" d="M68.955 22.756l2.032-9.195c-1.185-.296-3.084-.592-4.763-.592-2.561 0-4.445.642-5.878 2.265-2.413 2.745-3.133 6.809-4.353 8.841-.55.918-3.324 1.39-4.17 1.066-.008.028.204-1.186.423-2.033l.458-1.77c.261-1.15.523-2.4.523-3.48 0-4.07-3.416-4.89-6.175-4.89-2.032 0-4.135.495-5.878 1.214l.593 3.12c1.51-.622 3.02-1.017 4.396-1.017 2.032 0 2.625.79 2.625 1.969 0 .134-.035.423-.063.656l-1.475.035c-2.858 0-5.42.558-7.028 2.004-1.052.953-1.68 2.23-1.68 4.036 0 2.498 1.68 4.241 4.375 4.241 1.905 0 3.677-1.086 4.791-2.632.247 1.948 1.87 2.703 3.769 2.653 2.526-.07 6.872-.867 8.248-3.796 1.2-2.554 2.124-5.49 3.535-7.55.53-.776 1.278-1.249 2.202-1.249.134 0 .332 0 .459.035l-1.412 6.301c-.465 2.075-.31 4.742.875 6.633l4.05-1.496c-1.065-1.77-.846-3.704-.48-5.37zm-20.767-.325c-.494 2.067-2.364 3.352-3.909 3.352-.953 0-1.545-.424-1.545-1.447 0-.557.197-1.051.593-1.446.691-.692 2.004-1.052 4.106-1.052h.89l-.135.593z" fill="#E84E0F"/><path d="M106.431 22.756l2.032-9.392h-4.17l-4.269 5.024c-.523.592-1.412 1.609-1.97 2.462h-.063c-.853-2.526-1.87-5.122-2.984-7.486H91.59c-.755 4.036-1.637 8.375-2.723 10.344-.572 1.03-3.437 2.04-4.51 1.651.078-.677.269-1.51.46-2.25l.458-1.772c.261-1.15.522-2.399.522-3.478 0-4.072-3.415-4.89-6.174-4.89-2.032 0-4.135.494-5.878 1.213l.593 3.12c1.51-.622 3.02-1.017 4.396-1.017 2.032 0 2.625.79 2.625 1.969 0 .134-.035.423-.064.656l-1.474.035c-2.858 0-5.42.558-7.028 2.004-1.052.953-1.68 2.23-1.68 4.036 0 2.498 1.68 4.241 4.375 4.241 1.905 0 3.676-1.086 4.791-2.632.473 3.479 7.099 3.07 9.773 1.313 1.891-1.25 2.569-2.851 3.253-5.038.261-.826.508-1.708.713-2.745h.063c.755 1.806 1.51 3.972 2.032 5.581h1.835l2.823-3.316c.493-.593 1.347-1.574 1.806-2.167h.099c-.769 2.858-1.92 6.422-.106 9.357l4.234-1.573c-.699-1.503-.875-2.936-.374-5.25zm-25.685-.325c-.494 2.067-2.364 3.352-3.91 3.352-.952 0-1.544-.424-1.544-1.447 0-.557.197-1.051.592-1.446.692-.692 2.004-1.052 4.1-1.052h.889l-.127.593zm57.219-9.336c-2.336-.501-4.354.162-6.224 2.766.092-1.277-.353-2.456-.804-3.154l-3.705 1.425c.395.868.635 2.025.423 3.013l-1.7 7.86c-.946.544-3.881.826-4.248.396.169-1.143.628-2.773.96-4.05.261-1.15.522-2.4.522-3.479 0-4.072-3.415-4.89-6.174-4.89-2.033 0-4.135.494-5.878 1.214l.592 3.118c1.511-.62 3.021-1.016 4.397-1.016 2.032 0 2.624.79 2.624 1.97 0 .133-.035.422-.063.655l-1.475.036c-2.858 0-5.419.557-7.028 2.004-1.051.952-1.679 2.23-1.679 4.036 0 2.498 1.679 4.24 4.375 4.24 1.905 0 3.676-1.086 4.791-2.631-.057.945 3.239 3.718 7.479 2.081l-1.728 8.002h4.403l1.743-7.98a9 9 0 003.119.529c5.087 0 8.721-3.853 8.926-9.491.12-2.97-.868-6.061-3.648-6.654zm-19.821 9.335c-.494 2.068-2.364 3.352-3.91 3.352-.952 0-1.545-.423-1.545-1.447 0-.557.198-1.05.593-1.446.691-.692 2.004-1.051 4.1-1.051h.889l-.127.592zm19.044-2.265c-.127 2.922-1.869 5.448-4.854 5.448a5.112 5.112 0 01-1.969-.395l.607-3.402c.882-4.854 6.47-7.394 6.216-1.65zm5.018 8.729h4.403l1.312-5.843c.424-2.032 1.087-3.38 1.807-4.332 1.15-1.475 2.328-1.905 3.055-1.905.755 0 1.15.423 1.15 1.248 0 .332-.063.953-.233 1.61l-2.032 9.222h4.396l1.313-5.843c.458-2.067 1.114-3.415 1.841-4.368 1.15-1.446 2.329-1.87 3.056-1.87.726 0 1.114.424 1.114 1.278 0 .296-.084.917-.232 1.573l-1.327 6.012c-.423 1.905-.085 3.38.43 4.319l4.171-1.532c-.417-.867-.403-1.863-.141-3.055l1.206-5.582c.24-1.121.536-2.462.522-3.478-.021-2.23-1.474-3.38-3.676-3.38-2.463 0-4.692 1.743-5.977 3.443h-.063c-.035-2.265-1.277-3.443-3.479-3.443-2.399 0-4.565 1.672-5.807 3.38h-.064c.205-1.313-.042-2.752-.451-3.641l-3.902 1.432c.36.6.388 2.166.226 2.914l-2.618 11.84zM36.863 6.498c-1.51 0-5.857-.021-6.915 4.565l-3.951 17.839h5.13l3.471-15.99c.261-1.115.656-2.208 2.491-2.13h7.233l.818-4.284h-8.277z" fill="#E84E0F"/></svg>