<svg width="951" height="264" fill="none" xmlns="http://www.w3.org/2000/svg"><path fill-rule="evenodd" clip-rule="evenodd" d="M81.1 146.108c-.129.799-1.28.799-1.855 1.087-.48.704-1.374.96-2.174.704-21.865 5.532-50.572 14.23-69.336-2.91l-.096-.096-.096-.128c-.096-.096-.256-.224-.32-.352-18.86-21.937 4.284-52.637 12.084-74.99 2.685-8.059 12.243-2.75 17.901-1.6C54.247 73.005 68.344 85.54 74.77 102.17c7.128 13.271 9.238 28.461 5.37 42.916.576-.096 1.087.479.96 1.023z" fill="#FDC616"/><path fill-rule="evenodd" clip-rule="evenodd" d="M60.193 88.322l.064.064-.064-.064zm-.288-.288a.848.848 0 01.16.192c-.032-.064-.096-.128-.16-.192zm-.064-.064c-.032-.031-.032-.031 0 0 .032.032.032.064.064.096a.396.396 0 00-.064-.096zm-.032-.031l.096.095-.096-.096zm-.032-.032c-.032-.032-.096-.128-.192-.192l.096.096c-.064-.064-.128-.16-.223-.224l.32.32zm0 0s.032 0 0 0c.032 0 0 0 0 0zm-.383-.384l.064.064-.064-.064zm1.023 1.055l-.096-.096c.032 0 .064.032.096.096zm2.27 1.95c-.033-.063-.097-.095-.129-.127l.128.128zm23.367 13.016c1.279-13.559-14.577-24.016-25.574-29.069-18.253-4.956-9.59 7.036-.863 13.24.192.191.384.415.576.607-.064-.064-.128-.128-.16-.192.096.096.192.224.288.32l-.064-.064c7.672 5.692 17.326 35.113 25.797 15.158zM59.521 148.73c5.659 2.399 2.877 9.178-1.63 11.193-11.444 7.163-42.42 8.314-47.407-6.972-.863-12.535 40.214-4.509 49.037-4.221z" fill="#E62736"/><path fill-rule="evenodd" clip-rule="evenodd" d="M65.945 155.574c.065 0 .097-.032.161-.032.032 0 .064-.033.129-.033a.914.914 0 01-.29.065zm2.015-.544c.064-.032.096-.032.16-.032-.064 0-.128 0-.16.032z" fill="#643D52"/><path fill-rule="evenodd" clip-rule="evenodd" d="M32.445 63.89c15.888 5.149 33.182 9.338 45.586 21.17.127.128.255.256.383.352l-.128-.128c13.267 11.704 16.56 29.581 11.86 46.146-1.215 2.334-4.22 15.925-7.64 10.872 24.263-49.247-20.331-69.97-61.313-79.083C11.25 82.47 3.963 103.736 4.25 125.64v-.351c-.224 10.297 3.325 21.426 12.851 26.638 13.203 6.492 29.378 5.245 43.475 2.686 4.06-.192 12.02-4.381 14.961-2.302-.927 2.398-5.37 1.631-7.544 2.75-.032 0-.096.032-.128.032h.032c-.576.16-1.183.32-1.758.512C-9.496 176.903-8.921 116.75 17.325 65.2c2.238-7.738 9.878-2.462 15.12-1.31zM57.54 80.647c-.83 1.055 1.471 2.814 2.302 1.823.863-1.087-1.47-2.814-2.302-1.823zm-1.15 2.846c.927-1.31-2.302-3.933-3.389-2.814-.831 1.311 2.27 4.061 3.389 2.814zm5.978 5.437c.799-1.056-1.663-2.942-2.494-2.015-.735 1.023 1.63 3.038 2.494 2.015zm4.06-.416c1.022-1.471-2.494-4.445-3.74-3.198-.896 1.407 2.46 4.573 3.74 3.198zm11.635-3.422l-.031-.032.031.032c0-.032 0-.032 0 0zm-61.6 37.799c-.704.288.032 2.015.735 1.759.703-.288-.032-2.015-.735-1.759zm-3.229 2.591c1.055-.736-1.79-5.597-2.781-3.646-.064 1.215 1.247 4.349 2.781 3.646zm4.028 7.003c13.458 3.518 29.474 3.709 43.731 4.861 15.28 12.216 34.077 20.594 53.161 25.039.959.128 1.311-1.311.416-1.631-19.596-5.372-38.137-14.07-53.098-26.35.672-1.759.448-4.477 1.055-6.076 2.11-10.33 6.937-19.923 10.006-29.965-.64-5.564-11.412 24.368-13.01 34.41-5.18-4.477-9.91-9.402-14.034-14.806.16-.48.16-1.088.224-1.535.575-7.1 5.178-13.048 6.33-20.02.319-1.119.702-2.238 1.054-3.325-1.438-3.55-2.909 5.692-3.58 6.939-1.087 4.509-5.722 10.202-6.138 15.062-4.763-6.747-8.663-14.23-11.444-22.417.096 0 .192-.032.287-.032 3.549-2.078 3.293-7.29 6.714-9.721l.127-.128-.095.096.575-.576c.607-4.86-6.361 4.957-6.521 6.492-.352.415-1.151 1.375-1.63 2.238a92.528 92.528 0 01-3.549-15.925c-3.069-2.718-.384 5.596-.192 7.227.416 2.75.991 5.404 1.663 8.027-2.238-1.151-6.65-2.175-7.513-2.974-5.306 1.119 6.553 4.892 7.96 5.212.064-.032.096-.064.16-.096a82.598 82.598 0 0010.166 22.13c-8.024-3.614-27.652-9.114-27.396-7.867-.192.448.032 1.055.511 1.247 9.686 2.846 19.084 6.62 28.77 9.434 4.764 6.747 10.486 12.823 16.88 18.196-13.747-.576-28.42-2.846-41.59-3.166z" fill="#000"/><path fill-rule="evenodd" clip-rule="evenodd" d="M32.445 63.954c2.078.672 4.188 1.343 6.298 1.983 14.033 4.381 28.482 8.89 39.255 19.155.128.128.256.256.384.352l.032.032c6.297 5.596 10.293 12.632 12.243 20.243 2.11 8.218 1.823 17.108-.607 25.647-.288.543-.64 1.631-1.055 2.942-1.055 3.134-2.525 7.579-4.188 8.73-.703.48-1.438.352-2.205-.768 12.115-24.623 7-42.148-6.266-54.62C63.07 75.18 41.684 67.696 21.193 63.123c-.032 0-.096 0-.096.032-4.987 9.625-9.303 19.763-12.34 30.22-3.004 10.329-4.73 21.01-4.635 31.819v.032c-.128 5.532.831 11.32 3.261 16.309 2.078 4.285 5.21 7.995 9.654 10.393 6.617 3.262 13.97 4.573 21.45 4.765 7.448.192 15.025-.768 22.09-2.047 1.534-.064 3.58-.703 5.721-1.343 3.549-1.087 7.289-2.238 9.111-1.023-.607 1.407-2.493 1.663-4.348 1.919-1.15.159-2.27.319-3.1.735l-.128.032H67.8l-1.726.48c-15.696 4.445-28.131 5.372-37.69 3.549-10.133-1.886-17.07-6.843-21.386-13.846-4.315-7.004-5.978-16.118-5.562-26.319.671-16.309 6.713-35.497 15.952-53.597v-.032c1.342-4.605 4.635-4.509 8.183-3.485.991.288 2.014.671 3.005 1.023 1.343.48 2.653.96 3.868 1.215zm6.33 1.823c-2.11-.672-4.22-1.311-6.266-1.983-1.183-.255-2.493-.735-3.836-1.215-.99-.352-2.014-.735-3.005-1.023-3.612-1.055-7-1.151-8.407 3.613C8.054 83.301 1.98 102.49 1.309 118.83c-.415 10.233 1.247 19.379 5.594 26.414 4.348 7.068 11.317 12.025 21.482 13.943 9.59 1.791 22.058.896 37.786-3.549.575-.16 1.182-.32 1.758-.512l.096-.032h.032c.799-.416 1.918-.544 3.069-.704 1.95-.255 3.931-.511 4.539-2.078 0-.032 0-.096-.032-.096-1.886-1.311-5.722-.16-9.335.959-2.141.64-4.187 1.279-5.69 1.343-7.032 1.28-14.609 2.239-22.057 2.047-7.448-.192-14.769-1.503-21.354-4.733-4.38-2.398-7.512-6.044-9.558-10.329-2.334-4.829-3.293-10.425-3.229-15.798 0 0 .032-.032.032-.064-.16-10.936 1.598-21.713 4.635-32.17 3.005-10.425 7.32-20.53 12.276-30.124C41.812 67.92 63.133 75.37 76.336 87.81c13.203 12.44 18.285 29.901 6.17 54.492v.096c.863 1.248 1.694 1.407 2.493.864 1.726-1.183 3.197-5.66 4.252-8.826.447-1.312.799-2.399 1.055-2.91v-.032c2.43-8.571 2.717-17.493.607-25.743-1.982-7.707-6.074-14.807-12.499-20.467l-.192-.192-.064-.064c-10.869-10.36-25.35-14.87-39.383-19.251zm18.828 14.902c-.255.32-.16.736.096 1.087.096.16.256.288.416.416.16.128.32.224.511.32.448.192.895.192 1.151-.128s.192-.703-.064-1.055c-.096-.16-.255-.288-.415-.416a2.763 2.763 0 00-.512-.32c-.415-.192-.895-.224-1.183.096zm1.28-.288c-.512-.224-1.056-.224-1.376.16-.32.384-.223.896.064 1.311.128.16.288.32.448.48.16.128.352.256.543.32.512.224 1.023.224 1.375-.192.32-.384.224-.864-.064-1.28a3.067 3.067 0 00-.447-.479c-.16-.096-.352-.224-.544-.32zm-2.558 3.07c.255-.383.16-.863-.16-1.375a3.475 3.475 0 00-.735-.8 3.184 3.184 0 00-.927-.575c-.544-.256-1.12-.288-1.439.032-.256.416-.064.991.32 1.535.224.288.48.576.767.8.288.223.607.415.927.543.48.16.959.16 1.247-.16zm-1.311.32c.543.192 1.055.16 1.439-.224.32-.448.191-1.023-.16-1.567a3.705 3.705 0 00-.767-.831 3.453 3.453 0 00-.96-.608c-.639-.288-1.246-.32-1.63.064v.032c-.288.48-.128 1.151.32 1.727.224.32.511.608.799.864.288.223.64.447.959.543zm7.288 5.085c.224-.288.16-.704-.095-1.056a2.404 2.404 0 00-.48-.511 2.434 2.434 0 00-.607-.384c-.448-.192-.927-.224-1.183.032-.224.32-.096.767.192 1.151.128.192.32.352.511.512.192.16.416.288.608.352.383.224.799.224 1.055-.096zm-1.15.32c.48.191.959.191 1.278-.192.288-.384.192-.832-.063-1.28a2.721 2.721 0 00-.512-.543 2.745 2.745 0 00-.64-.416c-.51-.224-1.054-.256-1.406.096-.288.384-.16.927.192 1.375.16.192.32.384.543.544.16.192.384.32.608.416zm5.178-.736c.288-.448.16-1.023-.191-1.599a5.59 5.59 0 00-.831-.927 3.206 3.206 0 00-1.024-.64c-.575-.256-1.182-.288-1.534.096-.288.48-.064 1.151.384 1.79.224.32.543.64.863.896.32.256.671.48 1.023.576.511.192.99.16 1.31-.192zm-1.374.384c.575.192 1.15.16 1.534-.256.352-.512.192-1.183-.192-1.79a4.048 4.048 0 00-.863-.96 4.352 4.352 0 00-1.087-.672c-.67-.288-1.31-.288-1.726.128-.351.544-.096 1.311.384 1.983.256.352.575.671.895.927.32.288.703.512 1.055.64zm-48.462 34.121c-.192.096-.256.32-.224.576 0 .128.064.256.096.384.064.127.128.255.192.351.16.224.383.352.575.288.192-.096.256-.32.224-.543 0-.128-.064-.256-.096-.384a3.492 3.492 0 00-.192-.352c-.16-.224-.352-.384-.575-.32zm.735.192c-.224-.288-.512-.448-.8-.352-.287.128-.383.416-.319.768.032.128.064.288.128.416.064.127.128.287.224.383.223.288.511.448.799.352.288-.128.383-.416.32-.735 0-.128-.064-.288-.096-.448-.096-.128-.16-.256-.256-.384zm-4.028 2.239c.352-.256.192-1.024-.16-1.823a5.264 5.264 0 00-.895-1.407c-.32-.384-.671-.64-.99-.704-.225-.032-.449.096-.608.384-.032.48.16 1.247.48 1.951.191.447.447.863.734 1.151.288.288.608.512.928.512a.575.575 0 00.511-.064zm-.48.287c.192 0 .384-.032.576-.096.447-.287.288-1.183-.096-2.078a5.555 5.555 0 00-.927-1.439c-.352-.416-.767-.704-1.119-.736-.32-.032-.575.096-.767.48v.032c-.032.512.16 1.311.511 2.079.224.447.48.895.768 1.215.287.288.67.511 1.055.543zm5.339 6.94c10.07 2.526 21.514 3.23 32.543 3.933 3.516.224 7 .448 10.389.704.032 0 .032 0 .064.032 7.448 5.948 15.728 11 24.487 15.126 9.174 4.317 18.86 7.611 28.642 9.881.288.032.512-.064.64-.256a.994.994 0 00.159-.319.654.654 0 000-.352c-.032-.224-.191-.416-.447-.512h-.032c-10.07-2.782-19.884-6.428-29.058-10.969-8.663-4.317-16.783-9.433-24.04-15.413-.031-.032-.031-.064-.031-.096.351-.896.447-2.047.543-3.134.096-1.088.192-2.143.511-2.91 1.28-6.268 3.58-12.28 5.85-18.292 1.47-3.87 2.941-7.739 4.156-11.64-.032-.288-.096-.448-.16-.544-.191-.192-.575.224-1.119 1.087-.575.928-1.246 2.335-2.013 4.093-3.485 8.059-8.472 23.217-9.527 29.805 0 .032 0 .032-.032.064a.097.097 0 01-.127 0 105.233 105.233 0 01-7.48-7.132 98.722 98.722 0 01-6.554-7.675c-.032-.032-.032-.064 0-.064.128-.415.16-.863.192-1.279l.032-.224c.32-3.805 1.79-7.291 3.26-10.776 1.279-3.006 2.526-6.012 3.07-9.242.223-.832.479-1.631.766-2.43.096-.288.192-.576.288-.896-.256-.608-.48-.8-.703-.704-.703.288-1.407 2.974-1.95 5.117-.288 1.183-.576 2.174-.767 2.558-.48 1.951-1.63 4.158-2.782 6.396-1.534 2.91-3.1 5.916-3.324 8.666 0 .032 0 .064-.032.064-.032.032-.096.032-.128-.032a87.858 87.858 0 01-6.553-10.841 85.327 85.327 0 01-4.891-11.608v-.032c0-.064.032-.096.096-.096h.128l.127-.032c1.79-1.055 2.59-2.942 3.42-4.829.8-1.822 1.567-3.677 3.262-4.86l.127-.128s.032 0 .032-.032l.448-.416c.064-.608.032-.96-.128-1.12-.128-.16-.352-.095-.671.065-.352.192-.768.575-1.183 1.023-1.854 1.95-4.284 5.66-4.38 6.556 0 .032 0 .032-.032.064-.191.224-.479.543-.767.959-.287.384-.607.831-.863 1.28 0 .031-.032.031-.064.031s-.096 0-.128-.064a98.898 98.898 0 01-2.11-7.77 83.424 83.424 0 01-1.438-8.155c-.575-.512-.927-.576-1.087-.384-.543.608.16 3.614.671 5.692.192.832.352 1.503.416 1.855.224 1.375.448 2.718.735 4.061.288 1.343.576 2.655.927 3.966v.064c-.032.032-.064.064-.128.032-1.055-.544-2.589-1.056-3.995-1.535-1.567-.512-3.005-.992-3.485-1.407-.575.127-.927.287-1.119.447-.192.224-.128.48.128.736.288.32.8.64 1.439.991 2.43 1.28 6.649 2.59 7.544 2.814l.128-.064h.032c.032 0 .096 0 .096.064a79.4 79.4 0 004.251 11.385 84.793 84.793 0 005.914 10.713c.032.032.032.064 0 .096s-.064.064-.128.032c-5.402-2.431-16.08-5.725-22.377-7.228-1.47-.351-2.685-.607-3.58-.735-.831-.128-1.31-.128-1.343-.032v.096a.8.8 0 00.032.607.812.812 0 00.416.448h.032c4.7 1.375 9.366 3.006 14.002 4.605 4.89 1.695 9.782 3.39 14.768 4.829.032 0 .032.032.064.032a95.163 95.163 0 007.704 9.498c2.845 3.07 5.914 5.98 9.143 8.698.032.032.032.032.032.064 0 .064-.032.096-.096.096-6.617-.256-13.426-.896-20.171-1.535-7.065-.768-14.066-1.439-20.683-1.631zm20.683 1.343c-7.32-.704-14.61-1.407-21.45-1.567-.032 0-.096.032-.096.064 0 .064.032.096.064.096 10.293 2.686 22.057 3.422 33.373 4.125 3.517.224 6.97.448 10.358.704 7.448 5.948 15.76 11 24.519 15.126a144.943 144.943 0 0028.674 9.913c.352.032.64-.096.799-.32.096-.128.16-.255.192-.383a1.054 1.054 0 000-.448.926.926 0 00-.511-.64l-.032-.032c-10.07-2.782-19.884-6.395-29.058-10.968-8.632-4.286-16.72-9.402-23.976-15.35.32-.896.448-2.047.544-3.134.096-1.056.191-2.111.511-2.878 1.279-6.268 3.58-12.28 5.85-18.26 1.47-3.87 2.941-7.739 4.156-11.672V98.3c-.032-.352-.128-.544-.224-.672-.32-.32-.799.128-1.375 1.12-.575.927-1.246 2.366-2.013 4.124-3.453 7.995-8.408 23.025-9.495 29.709a101.989 101.989 0 01-7.352-7.036 99.038 99.038 0 01-6.521-7.642c.127-.416.16-.864.191-1.28l.032-.223c.32-3.774 1.79-7.26 3.261-10.745 1.279-3.006 2.557-6.044 3.069-9.274.224-.8.48-1.6.767-2.399.096-.32.224-.64.32-.927v-.064c-.288-.736-.608-.96-.927-.831-.8.32-1.503 3.07-2.046 5.244-.288 1.183-.576 2.175-.767 2.526v.032c-.48 1.951-1.599 4.126-2.782 6.364-1.502 2.846-3.036 5.788-3.324 8.475a86.618 86.618 0 01-6.394-10.617 89.663 89.663 0 01-4.859-11.48h.032c.064 0 .096 0 .16-.033h.032c1.854-1.087 2.685-3.006 3.517-4.925.767-1.79 1.566-3.645 3.196-4.796l.032-.032.512-.512.064-.064c.032 0 .032-.032.032-.064.096-.672.032-1.087-.16-1.28-.192-.223-.512-.19-.895.033-.352.224-.768.575-1.247 1.055-1.854 1.95-4.284 5.66-4.411 6.62-.192.224-.48.543-.768.927-.255.352-.543.736-.767 1.12-.767-2.463-1.47-4.957-2.046-7.547a83.457 83.457 0 01-1.438-8.155c0-.032 0-.032-.032-.064-.703-.608-1.12-.672-1.375-.416-.607.672.128 3.742.64 5.852.191.8.351 1.471.383 1.855.224 1.375.48 2.718.735 4.061.256 1.28.576 2.527.895 3.774-1.055-.512-2.493-.991-3.868-1.44-1.566-.51-3.005-.99-3.452-1.406-.032-.032-.064-.032-.096-.032-.64.128-1.055.32-1.247.511-.287.288-.223.64.128.992.32.32.831.671 1.503 1.023 2.461 1.311 6.777 2.654 7.608 2.846h.064l.064-.032a82.03 82.03 0 004.22 11.289 87.504 87.504 0 005.754 10.489c-5.499-2.431-15.92-5.628-22.122-7.131-1.47-.352-2.717-.608-3.58-.736-.927-.128-1.47-.096-1.535.128v.096c-.095.224-.063.512.032.735.096.224.288.448.512.544l.064.032c4.731 1.375 9.366 3.006 14.001 4.605 4.891 1.695 9.782 3.39 14.77 4.829a91.274 91.274 0 007.703 9.466 102.946 102.946 0 008.951 8.538c-6.681-.224-13.394-.863-20.043-1.503z" fill="#000"/><path fill-rule="evenodd" clip-rule="evenodd" d="M32.22 92.671c.033 0 .033-.032.033-.032h.128l-.16.032zm6.778-9.818l-.033.033c.033 0 .033 0 .033-.033z" fill="#643D52"/><path fill-rule="evenodd" clip-rule="evenodd" d="M917.536 77.077c-18.407-.308-25.968 23.222-22.204 38.407-15.465-20.76-27.816 3.147-24.565 19.939l-.171-.239c-29.39-28.694-12.249 35.569.479 41.485 5.337 5.883 12.008 12.313 20.288 12.928 6.74-.479 15.841-6.053 14.883-13.509 16.559 1.231 29.8-7.558 18.201-24.077 25.626-8.687 21.726-34.304.513-23.53 4.653-11.731 10.778-24.591 6.364-37.313-2.019-6.156-5.679-14.707-13.788-14.091z" fill="#9FC51B"/><path fill-rule="evenodd" clip-rule="evenodd" d="M934.54 128.002c-10.229.273-10.743 12.449-16.388 18.195-12.898 4.24-11.051 7.011-7.253 18.194-5.063 4.652-13.377 2.702-18.988 7.046-19.365 9.644-7.835 26.403 9.922 17.613 9.853-6.601 2.566-11.731 17.688-10.431 10.401-2.463 10.914-14.262 8.074-22.607 4.653-5.54 12.043-8.995 14.712-16.245 2.805-6.498 0-13.031-7.767-11.765z" fill="#00B3EA"/><path fill-rule="evenodd" clip-rule="evenodd" d="M891.808 96.537l.034-.102-.034.102zm-32.024 34.064l.24-.239c-.069.102-.171.171-.24.239zm41.672 2.428c0-.034.034-.034.034-.068 0 0-.034.034-.034.068zm-28.226 42.854l.069-.069-.069.069zm-.65.65l.137-.137a.273.273 0 01-.137.137zm27.986-39.092c-.034.035-.034.069-.068.103.034-.034.068-.068.068-.103zm2.019-6.395c0 .034-.034.068-.034.068 0-.034 0-.068.034-.068zm.034-.069c0 .035-.034.035-.034.069 0-.034 0-.069.034-.069zm12.625-32.08c1.608-1.094-.103 3.01-.171 3.831 0-.035.034-.069.034-.103-2.361 11.731-7.732 22.607-13.514 33.004.034-.069.068-.103.102-.171-.342.649-.718 1.265-1.06 1.915v-.034c-7.253 14.022-16.696 26.813-27.336 38.475.068-.034.102-.102.171-.171-.103.103-.206.24-.343.342l.069-.068c-.137.171-.308.308-.445.479l.034-.034c-7.253 6.293-15.464 15.151-23.846 18.502 2.874-5.677 11.803-8.892 16.422-14.056 12.351-10.876 22.375-24.42 30.826-38.476l-.103.171c1.814-3.249 3.627-6.498 5.509-9.679-.034.034-.034.069-.034.069 4.755-8.722 9.477-17.648 11.974-27.293l-.034.137c.137-.479.24-.992.376-1.47v.034c.342-1.437.821-2.839 1.164-4.241.034-.376.136-.752.205-1.163zm-55.562 31.841zm-.137.137l.137-.137a.262.262 0 00-.137.137zm32.708 57.731h-.206.206zm-7.972-.821c.068.034.137.034.205.068-.102-.034-.171-.034-.205-.068zm16.285-1.676c-.034 0-.068.034-.102.068.034-.034.068-.068.102-.068zm27.029-23.599zm-1.574-5.814c.034.034.034.069.068.103-.034-.034-.034-.069-.068-.103zm-.239-.41c.034.034.034.068.068.102-.034-.034-.034-.068-.068-.102zm-67.948-10.226zm18.544-2.394h-.069c.034.034.069.034.069 0zm-17.928-5.609c0 .034 0 .068-.034.103.034-.035.034-.069.034-.103zm13.993-5.028c.856 3.557 1.437 7.49 4.003 10.295.376-3.831-1.471-7.559-4.003-10.295zm74.311-3.009zm-9.819-8.208c-.034 0-.068.034-.103.034l.103-.034zm-41.295-3.694l-.034.034s0-.034.034-.034zm-.411-.034c.034 0 .103.034.137.034-.034 0-.068-.034-.137-.034zm-.034-.069c.034.035.068.035.103.035-.069 0-.103-.035-.103-.035zm-1.574-3.591c2.942 9.029 2.942-1.265-.342-3.933.034 1.3.137 2.634.342 3.933zm-8.006-8.584h-.171.171zm7.561-1.676zm42.63-10.123c0 .034.034.102.034.136 0-.068 0-.102-.034-.136zm-2.463-5.986l.102.206-.102-.206zm-32.263-1.983l-.206.205.206-.205zm6.774-5.335c-.034.034-.069.034-.103.068.034-.034.069-.068.103-.068zm9.511-3.147h-.274.274zm-1.334-2.428c-10.88 1.607-20.836 10.773-24.155 21.136v-.034c0 .068-.034.136-.034.205V96.4c-.718 2.942-.821 6.02-.684 9.029-13.617-7.695-24.463 10.158-22.102 22.436-13.48-3.01-15.327 16.416-11.872 25.514-.41 4.241 11.735 19.87 5.303 8.824l.069.136c-3.08-5.096-4.482-11.149-4.722-17.066v.034c-.718-6.429 3.148-18.4 11.496-14.501 3.25 26.437 18.851 12.723 2.532-1.539-2.943-11.046 6.74-30.165 19.364-20.999-.958 18.776 13.788 12.244 2.019-.821-1.471-11.218 5.2-21.136 14.643-26.676 25.078-13.715 34.863 22.025 24.257 39.741-.752 5.335 6.398-.308 9.135 1.197 4.653 1.744 6.33 7.456 5.098 11.936-3.045 10.944-14.883 14.159-24.018 18.058-.616.787-.171 1.984.719 2.326 11.461 8.276.205 26.334-12.385 25h.376c-12.283-1.675-2.6 3.078-10.332 7.046-5.714 3.283-12.83 3.249-18.886 1.026-.65-.24-1.403.068-1.642.718 4.003 7.079 26.481 3.659 26.891-6.122 15.567 3.249 30.929-15.835 19.16-28.729 26.994-5.745 31.134-37.586 8.963-33.208 8.417-16.451 3.319-45.556-19.193-44.598z" fill="#000"/><path fill-rule="evenodd" clip-rule="evenodd" d="M890.371 96.332c0-.068.034-.103.034-.171l.034-.068.035-.137.102-.308c1.779-5.438 5.338-10.568 9.819-14.501 4.414-3.865 9.82-6.635 15.465-7.456h.137c4.311-.17 8.006.684 11.153 2.292 4.345 2.223 7.595 5.916 9.785 10.362 2.156 4.344 3.319 9.44 3.524 14.604.24 5.848-.718 11.799-2.805 16.895 5.132-.41 8.758 1.231 10.948 4.036 1.334 1.744 2.121 3.899 2.292 6.259.171 2.291-.171 4.788-1.06 7.353-2.566 7.387-9.683 15.082-21.007 18.229 1.95 2.77 2.908 5.711 3.045 8.653.171 3.727-.958 7.387-2.977 10.602a23.031 23.031 0 01-8.245 7.763c-3.695 2.018-7.938 3.044-12.317 2.497-.684 2.736-2.806 4.925-5.645 6.532-1.95 1.095-4.243 1.95-6.638 2.463-2.36.513-4.824.752-7.116.65-4.413-.171-8.245-1.574-9.922-4.378-.239-.376-.342-.855-.137-1.334a2.656 2.656 0 011.471-1.505 2.829 2.829 0 011.916-.068c.035 0 .069.034.103.034 2.977 1.094 6.227 1.642 9.374 1.471 2.909-.171 5.748-.89 8.28-2.36l.069-.034c2.634-1.368 2.634-2.771 2.668-3.831.034-2.839.034-4.514 8.519-3.352.069 0 .171.035.24.069 3.353.171 6.569-1.197 9.169-3.386a17.026 17.026 0 004.584-6.019c.685-1.574 1.095-3.215 1.164-4.823a1.23 1.23 0 01-.206-.684v-.171c0-.239.069-.478.171-.649-.034-.137-.034-.308-.068-.445-.376-2.292-1.608-4.446-3.9-6.156-.206-.103-.411-.205-.582-.376a3.063 3.063 0 01-1.026-1.505c-.171-.582-.206-1.266.034-1.881.103-.274.239-.513.445-.753.137-.171.342-.342.581-.444 1.232-.513 2.532-1.061 3.866-1.574 8.041-3.214 16.868-6.771 19.331-15.527.274-.923.376-1.915.342-2.907v-.137c-.068-1.162-.308-2.291-.753-3.317-.718-1.71-1.95-3.112-3.729-3.796-.068-.034-.171-.069-.239-.103-.582-.308-2.122.137-3.559.582-1.437.444-2.805.855-3.968.684-1.711-.24-2.703-1.3-2.361-3.968.034-.171.103-.376.205-.547 3.866-6.498 4.893-15.561 3.285-23.564-.821-4.173-2.395-8.037-4.585-11.047-2.155-2.907-4.927-4.993-8.314-5.712-3.524-.786-7.766-.102-12.693 2.566h-.034c-.034 0-.034.034-.103.068a32.816 32.816 0 00-6.09 4.685.734.734 0 01-.171.274c-.068.103-.171.171-.239.274l-.034.034a1.53 1.53 0 01-.377.273 28.836 28.836 0 00-4.139 5.644c-1.711 3.146-2.772 6.634-2.909 10.328.103.205.137.411.137.65 0 .068 0 .034 0 0v.068c0 .24-.068.445-.137.65.035.616.069 1.231.137 1.847 3.935 4.515 4.961 8.413 4.551 10.91-.274 1.778-1.232 2.976-2.464 3.454-1.3.479-2.771.206-4.071-1.094-1.677-1.642-3.079-5.164-2.908-11.081-1.471-.958-2.84-1.471-4.14-1.642h-.171a1.73 1.73 0 01-.411-.068h-.342c-2.189 0-4.174.957-5.884 2.531-1.814 1.676-3.285 4.001-4.311 6.6-1.608 3.933-2.156 8.448-1.335 12.039 5.748 5.164 7.63 10.329 7.459 13.783-.103 2.086-.924 3.659-2.156 4.446-1.368.855-3.113.787-4.789-.616-2.224-1.812-4.551-6.224-5.646-14.261-.821-.274-1.573-.376-2.292-.308-.992.103-1.916.581-2.669 1.334-.855.786-1.573 1.881-2.155 3.112-1.369 2.907-1.916 6.532-1.608 9.166v.239c.137 2.941.547 5.917 1.334 8.79.719 2.565 1.711 5.027 3.045 7.284l.103.172c.034.034.034.068.068.102 1.095 1.881 1.643 3.044 1.848 3.625 1.266 4.002.068 4.207-2.703 1.608-.376-.342-.958-1.026-1.608-1.915-2.224-2.976-5.577-8.551-5.679-11.389-1.574-4.344-2.019-10.739-.822-16.177.548-2.394 1.403-4.617 2.601-6.464 1.3-1.915 2.976-3.42 5.097-4.207 1.403-.513 2.977-.752 4.722-.615-.411-4.788.889-10.124 3.353-14.501 1.3-2.326 2.942-4.378 4.858-5.986 1.95-1.641 4.208-2.804 6.637-3.283 2.361-.444 4.859-.239 7.459.787 0-.787.034-1.539.068-2.326.035-1.47.24-2.975.582-4.446zm9.819 35.945c-.889 1.539-1.813 3.112-2.703 4.685-.855 1.505-1.745 3.113-2.668 4.754-4.209 6.943-8.759 13.783-13.788 20.179-5.064 6.429-10.572 12.483-16.696 17.852-.069.035-.103.103-.137.137-1.848 2.052-4.516 3.865-7.151 5.609-3.832 2.565-7.629 5.13-9.443 8.721-.376.719-.068 1.574.651 1.95.41.205.889.205 1.265 0 6.672-2.702 13.104-8.619 19.057-14.091 1.642-1.505 3.25-3.01 4.756-4.309.102-.069.205-.137.273-.205l.103-.103.137-.137.342-.342.069-.068c.034-.034.068-.069.068-.103l.171-.171.137-.137c5.269-5.78 10.23-11.833 14.78-18.194 4.619-6.464 8.827-13.202 12.488-20.281l.513-.89.034-.068.342-.65a.252.252 0 00.069-.137.776.776 0 01.102-.171c2.874-5.164 5.646-10.465 7.972-15.903 2.361-5.506 4.311-11.184 5.543-17.1 0-.034.034-.069.034-.103 0-.034.034-.068.034-.102v-.103c.034-.171.137-.479.24-.855.41-1.334.889-3.01.273-3.933-.616-.89-1.437-1.095-2.634-.274a1.421 1.421 0 00-.582.89l-.137.58c-.034.138-.068.309-.136.548l-.035.069a24.62 24.62 0 01-.513 1.778c-.239.787-.479 1.607-.65 2.394v.034a18.35 18.35 0 00-.205.855c-.206.753.137-.513-.137.547 0 .035-.034.069-.034.137-1.232 4.651-2.977 9.132-4.995 13.509-2.087 4.481-4.414 8.858-6.775 13.134l-.034.068zm-29.149.342a1.523 1.523 0 011.06-1.026c.034 0 .103-.034.137-.034-.445-.411-.89-.855-1.369-1.266a1.34 1.34 0 01-.444-.718l-.206-.923a1.379 1.379 0 01-.787.581c.172.068.343.137.479.205.479.205.753.65.822 1.129.102.718.205 1.402.308 2.052zm21.588-23.428l.205-.102-.205-.24v.342zm41.261 11.116c-.102.205-.239.41-.342.65-.068.273-.103.376-.068.376.342.034.855-.069 1.471-.24a1.41 1.41 0 01-1.061-.786zm11.462 2.394a9.986 9.986 0 011.881 2.975c.308.718.548 1.471.685 2.223-.206-1.607-.753-3.044-1.643-4.206a6.294 6.294 0 00-.923-.992zm-6.706 23.051c-3.319 2.155-7.082 3.762-10.777 5.233 4.242-1.163 7.834-3.01 10.777-5.233zm-13.685 6.396c-.445.171-.856.342-1.301.547.103.034.171.102.24.137.376.273.753.581 1.095.889-.274-.479-.308-1.095-.034-1.573zM911.515 180.5c-.308 0-.65-.034-.958-.069-.171 0-.308-.068-.445-.102-4.448-.582-4.448-.103-4.448.616v.752-.137c.034-.787.719-1.436 1.506-1.402.068 0 .171 0 .239.034 1.334.274 2.737.376 4.106.308zm-21.863 9.542c-1.334-.034-2.668-.205-3.968-.445.992.24 2.121.376 3.318.445.206-.034.411 0 .65 0zm-699.549-44.611c-5.891-.549-10.902-2.813-14.82-7.042-4.444-4.79-7.16-11.925-7.854-21.598-.684-9.762.912-17.623 4.666-23.324 4.141-6.293 10.462-9.831 18.758-10.412 8.251-.587 14.95 2.01 19.889 7.63 4.497 5.115 7.166 12.653 7.895 22.421.675 9.444-1.217 16.725-4.884 22.072-3.723 5.432-9.005 8.636-15.145 9.832 7.351-1.055 12.905-3.864 16.474-8.359 4.25-5.28 6.131-13.244 5.346-23.7-.769-10.591-3.875-18.68-9.01-23.778-4.853-4.792-11.813-7.101-20.658-6.493-8.85.653-15.503 3.926-19.68 9.35-4.392 5.718-6.32 14.086-5.58 24.537.716 10.266 3.784 17.897 8.822 22.665 3.975 3.735 9.281 5.807 15.781 6.199zm-5.401-15.721c-2.465-2.651-3.982-7.191-4.482-13.841-.514-6.925.405-12.091 2.616-15.471 1.769-2.704 4.68-4.275 8.586-4.64.274-.013.549-.026.778-.045 3.886-.185 6.937.943 9.025 3.322 2.568 2.935 4.184 7.806 4.723 14.506.014.274.022.593.081.873.377 6.135-.687 10.603-2.712 13.55-1.975 2.907-5.154 4.447-8.821 4.703-4.27.367-7.611-.612-9.794-2.957zm40.458 14.886c-6.434 8.026-16.191 12.574-28.848 13.512-12.701.933-23.086-2.41-30.659-9.61-7.37-6.994-11.791-17.463-12.759-31.032-.963-13.614 1.897-24.92 8.222-33.186 6.43-8.39 16.2-13.437 28.896-14.325 12.701-.933 23.055 2.68 30.552 10.143 2.402 2.416 4.537 5.165 6.262 8.32a6.505 6.505 0 012.107-.528l49.372-3.534c1.192-.09 2.343.18 3.372.71a6.347 6.347 0 013.273-1.166l37.773-2.7c1.327-.074 2.567.207 3.631.83.952-.752 2.191-1.245 3.523-1.363l13.614-.963c3.527-.226 6.585 2.402 6.812 5.929l.769 10.59 7.129-14.4a6.268 6.268 0 015.274-3.524l14.347-1.014c1.147-.094 2.253.17 3.243.65.891-.624 1.98-.998 3.127-1.092l13.524-.973c3.527-.227 6.586 2.402 6.812 5.929l1.157 15.863c.099 1.103.091 1.557.091 1.557.383.226 1.56.272 3.256.15 1.741-.115 3.408-.376 4.956-.787l-1.288-17.47c-.226-3.527 2.402-6.585 5.929-6.812l13.524-.974c1.327-.073 2.612.213 3.671.882a6.517 6.517 0 013.573-1.403l13.524-.974c3.526-.227 6.585 2.402 6.812 5.929l.963 13.614 8.341-.576-.958-13.66c-.227-3.526 2.402-6.585 5.928-6.811l13.525-.974c3.526-.226 6.585 2.402 6.811 5.93l.046.777c.487-.67 1.059-1.286 1.636-1.946 4.447-4.62 11.383-7.587 21.47-8.324 10.132-.732 17.353 1.29 22.392 5.649 1.529 1.314 2.848 2.877 3.927 4.548a21.986 21.986 0 013.42-4.785c4.086-4.253 9.973-6.797 17.227-7.408.324-.053.644-.062.963-.07l28.056-2.012c3.526-.227 6.585 2.402 6.811 5.929l3.735 52.35c.226 3.527-2.403 6.585-5.929 6.812l-13.524.974c-3.527.226-6.586-2.403-6.812-5.929l-.783-10.866-8.194 14.959c-1.032 1.835-2.914 3.162-5.158 3.31l-13.984 1.011a6.296 6.296 0 01-2.741-.273c-.725.371-1.569.591-2.442.671l-12.88.912c-1.377.113-2.742-.273-3.885-.997-.485.262-1.015.519-1.5.78-3.224 1.535-7.019 2.503-11.195 2.836-7.378.506-13.16-.984-17.398-4.023a6.436 6.436 0 01-5.592 4.305l-13.524.974c-3.527.227-6.586-2.402-6.812-5.929l-1.076-14.99-8.341.576 1.071 15.035c.226 3.527-2.402 6.586-5.929 6.812l-13.524.974c-1.327.073-2.612-.213-3.671-.882a6.519 6.519 0 01-3.573 1.404l-13.524.973c-3.527.227-6.585-2.402-6.812-5.929l-.879-12.376-.095.034c-2.901.709-6.14 1.196-9.487 1.443-7.059.498-13.104-.296-17.963-3.861l-.999-.798 1.273 17.605c.226 3.527-2.402 6.585-5.929 6.812l-13.524.973c-3.527.227-6.586-2.402-6.812-5.928l-.88-12.377-8.105 16.151c-.963 2.025-2.956 3.521-5.335 3.653l-13.295.955c-1.326.073-2.567-.207-3.631-.831-.951.753-2.19 1.245-3.522 1.363l-13.524.974c-3.527.226-6.586-2.402-6.812-5.929l-2.491-34.885-1.971.135.063 3.371-.005.045c.208 15.026-1.175 24.185-4.905 30.07-4.404 6.989-10.833 9.106-20.371 9.816l-2.11.163c-2.06.125-3.966-.688-5.206-2.15a6.443 6.443 0 01-4.881 2.887l-13.524.974c-3.527.226-6.586-2.402-6.812-5.929l-2.341-35.004-8.985.638.028.548c1.032 13.804-1.826 24.701-8.104 32.563zm32.629-6.163l-2.485-34.93c-.151-1.836.551-3.573 1.745-4.843l-4.904.339c1.376 1.069 2.275 2.719 2.425 4.555l2.491 34.885.728-.006zm10.697-29.443l1.326 18.703a6.437 6.437 0 013.673-1.483l1.377-.113c1.606-.131 2.58-.291 2.861-.758 1.113-2.144 1.555-6.729 1.454-15.242l-.011-1.865-10.68.758zm51.511 24.991l-2.851-39.61-2.844.215c1.376 1.07 2.276 2.72 2.426 4.555l2.491 34.886.778-.046zm23.197-1.668l2.902-5.8c-.908-.014-1.789-.253-2.65-.671-2.233-1.124-3.563-3.37-3.566-5.689l-1.966-27.277-.874.08 2.852 39.61 3.302-.253zm22.66-37.326c.957-.025 1.973.23 2.924.658a6.373 6.373 0 013.524 5.274l2.111 29.159.778-.046-2.851-39.61-4.355.312-2.131 4.253zm63.663 31.131l-2.851-39.61-.778.047 1.132 15.679a6.396 6.396 0 01-1.901 5.007c.84.597 1.514 1.449 1.993 2.414.325.719.551 1.518.602 2.252l1.025 14.257.778-.046zm-31.123-16.574c-3.235-2.285-5.147-5.781-5.529-11.099l-.67-9.488-.779.046.689 9.718c.387 5.273 1.589 8.231 3.472 9.632.75.587 1.706.971 2.817 1.191zm51.846 15.073l-1.071-15.035c-.183-2.34.925-4.439 2.707-5.686-1.93-.998-3.342-2.935-3.524-5.274l-.964-13.614-.778.046 2.851 39.609.779-.046zm29.232-22.696c1.93.997 3.342 2.934 3.524 5.274l1.076 14.991.778-.046-2.851-39.61-.778.046.958 13.659a6.275 6.275 0 01-2.707 5.686zm55.642 3.149a17.508 17.508 0 01-2.363 9.772c.433.187.855.464 1.272.785.999.798 1.657 1.784 2.075 2.878l1.237-.084-1.939-26.729c-.339-4.903-1.513-8.495-3.866-10.541-.203-.206-.457-.372-.71-.538 1.661 1.74 2.633 3.943 2.824 6.602.215 2.844-.231 5.11-1.602 7.133l.626.482c1.36 1.204 2.08 2.833 2.206 4.484l.24 5.756zm-18.548 6.255c1.562-.137 2.941-.659 3.953-1.541-1.928.549-3.257 1.03-3.998 1.535l.045.006zm-.838.175c-.08-.1-.124-.105 0 0zm-8.799 9.206c-2-1.96-3.193-4.599-3.395-7.941-.202-2.57.149-4.802 1.111-6.827-1.599 1.633-2.395 4.177-2.101 8.303.177 2.384 1 4.298 2.506 5.428.496.421 1.138.769 1.879 1.037zm42.263-14.726l.326 4.629 1.861-3.102a19.588 19.588 0 01-2.187-1.527zm-43.966-23.023l-.101.08c-.621.654-1.164 1.41-1.537 2.276l.369-.048a14.47 14.47 0 011.269-2.308zm85.657 31.597l-2.851-39.61-2.155.159a6.338 6.338 0 011.641 3.873l.99 14.162c.169 2.066-.738 4.006-2.206 5.29 1.65 1.056 2.763 2.822 2.927 4.932l.826 11.279.828-.085zm-24.695-13.6c.341.585.632 1.21.783 1.864l.805-1.452c.061-.129.171-.298.232-.428-.599.067-1.232.039-1.82.016zm-.364-12.907c.254.165.882.238 1.934.179l7.658-.565-.108-1.421-7.702.559c-1.053.06-1.662.216-1.867.42-.051.039.084.055.137.379-.036.314-.092.398-.052.448z" fill="#000"/><path fill-rule="evenodd" clip-rule="evenodd" d="M189.066 129.717c-12.242.895-19.892-6.04-21.084-22.772-1.191-16.732 5.069-26.005 17.541-26.92 12.332-.885 19.775 7.436 20.966 24.168 1.197 16.687-6.787 24.76-17.423 25.524zm.893 12.651c21.686-1.571 32.834-14.959 31.062-39.213-1.727-24.25-14.794-37.77-36.479-36.2-21.686 1.57-32.913 16.813-31.195 40.744 1.735 23.795 14.927 36.24 36.612 34.669zm68.775-7.371l-13.524.974-2.977-41.261-17.969 1.275-.807-11.05 49.372-3.535.807 11.05-17.879 1.286 2.977 41.261zm62.258-4.492l-3.784-52.31-37.774 2.7.249 19.759c.207 19.345-2.589 21.884-10.246 22.449l-1.377.112.806 11.05 2.111-.164c14.901-1.086 19.653-5.989 19.298-33.443l-.137-9.38 14.347-1.015 2.978 41.261 13.529-1.019zm20.443-1.442l-13.294.955-3.779-52.356 13.614-.963 2.455 34.017 17.534-35.467 14.347-1.014 3.734 52.35-13.524.974-2.553-35.529-18.534 37.033zm89.027-6.381l-3.734-52.35-13.524.973 1.579 22.005c-2.866 1.576-6.99 2.643-11.206 2.925-6.051.434-9.699-1.036-10.164-7.591l-1.162-15.819-13.524.974 1.136 16.043c1.052 14.806 8.527 17.766 19.801 16.985 6.051-.433 11.724-1.91 15.763-3.804l1.466 20.627 13.569-.968zm20.767-1.496l-13.524.974-3.734-52.35 13.524-.974 1.45 19.99 21.042-1.51-1.45-19.989 13.524-.974 3.734 52.351-13.524.973-1.517-21.36-21.042 1.508 1.517 21.361zm71.658-25.129c.328 6.175-4.597 11.786-11.746 12.273-4.355.312-6.835-1.431-7.104-5.372-.302-4.445 2.075-6.896 9.859-8.946 5.019-1.326 7.442-2.226 8.706-3.716l.285 5.761zm15.354 18.878l-2.381-33.1c-.965-13.204-7.243-20.207-23.835-19.045-16.821 1.181-22.208 9.193-21.649 20.032l12.88-.912c.323-4.736 2.659-8.01 8.895-8.468 5.407-.371 8.974 1.407 9.216 4.8.261 3.621-1.552 5.138-8.401 6.57-13.794 2.897-23.759 5.33-22.699 20.455.6 8.525 6.562 13.946 18.479 13.104 7.014-.503 12.389-3.333 15.431-7.207.226 1.572.656 3.349 1.188 4.638l12.876-.867zm53.637-3.857l-13.524.974-1.267-17.65-9.583.704-10.102 18.465-14.258 1.025 11.739-19.638c-7.692-1.486-12.44-6.402-13.053-15.201-.815-11.37 5.966-18.082 17.794-18.935l28.47-2.055 3.784 52.311zm-29.54-25.892l14.028-1.006-.991-14.162-14.028 1.006c-5.088.363-8.034 3.021-7.703 7.606.315 4.719 3.561 6.914 8.694 6.556z" fill="#000"/><path fill-rule="evenodd" clip-rule="evenodd" d="M179.758 119.452c1.899 2.039 4.892 2.887 8.788 2.612 3.303-.252 6.092-1.564 7.845-4.134 1.864-2.738 2.858-6.987 2.46-12.943-.024-.185-.048-.369-.028-.549-.515-6.515-2.017-11.19-4.382-13.92-1.805-2.074-4.463-3.064-7.889-2.917a6.397 6.397 0 01-.918.075c-3.493.321-6.018 1.71-7.561 4.03-2.045 3.127-2.888 8.03-2.388 14.68.397 6.365 1.811 10.621 4.073 13.066zm11.365 30.507a9.05 9.05 0 01-1.193.088c-12.82.783-23.335-2.621-31.032-9.926-7.494-7.099-12.038-17.674-13.091-31.299a9.942 9.942 0 01-.094-1.147c-.863-13.693 2.057-25.128 8.532-33.513 6.542-8.559 16.417-13.73 29.223-14.787a9.032 9.032 0 011.192-.089c12.915-.817 23.428 2.996 31.124 10.71a38.088 38.088 0 015.806 7.54 7.14 7.14 0 011.437-.243l49.372-3.535c1.193-.088 2.309.087 3.349.526.975-.568 2.059-.897 3.251-.986l37.774-2.7a7.641 7.641 0 013.607.646 7.287 7.287 0 013.541-1.134l13.614-.963c4.215-.283 7.895 2.872 8.172 7.132l.404 5.912 5.049-10.188a7.718 7.718 0 016.359-4.261l14.347-1.014a7.161 7.161 0 013.22.465c.925-.53 2.009-.858 3.156-.952l13.524-.974c4.215-.282 7.895 2.873 8.172 7.133l1.157 15.864c.061.644-.815.36-.477.581.084.055.997.025 2.464-.077a22.289 22.289 0 003.698-.525l-1.155-16.273c-.282-4.215 2.873-7.894 7.133-8.172l13.524-.974c1.282-.078 2.572.163 3.652.652a7.518 7.518 0 013.592-1.173l13.524-.974c4.215-.283 7.894 2.872 8.172 7.132l.885 12.332 5.777-.42-.88-12.376c-.283-4.215 2.872-7.894 7.132-8.172l13.524-.974a7.666 7.666 0 017.769 5.131c4.692-4.773 11.829-7.899 22.235-8.644 10.451-.74 17.98 1.363 23.308 5.983 1.117.948 2.084 2.015 2.996 3.166a21.91 21.91 0 012.454-3.124c4.412-4.715 10.824-7.47 18.796-7.998l28.356-2.25c4.215-.283 7.895 2.872 8.172 7.133l3.734 52.35c.283 4.215-2.872 7.894-7.132 8.172l-13.524.974c-4.216.282-7.895-2.873-8.172-7.133l-.471-6.51-6.116 11.154a7.616 7.616 0 01-6.188 3.963l-13.939 1.017a7.28 7.28 0 01-2.796-.189c-.765.32-1.559.501-2.432.581l-12.88.912a7.317 7.317 0 01-3.995-.828c-.29.148-.63.336-.965.479-3.364 1.564-7.304 2.606-11.659 2.918-6.969.508-12.638-.787-16.968-3.427a7.531 7.531 0 01-6.018 3.665l-13.524.973c-4.215.283-7.894-2.872-8.172-7.132l-.997-13.709-5.777.419.992 13.754c.283 4.215-2.872 7.895-7.132 8.172l-13.524.974c-1.283.078-2.573-.163-3.653-.652a7.51 7.51 0 01-3.591 1.174l-13.524.973c-4.215.283-7.895-2.872-8.172-7.132l-.778-10.91a60.42 60.42 0 01-8.274 1.175c-6.739.489-12.66-.199-17.576-3.271l1.046 14.851c.283 4.215-2.872 7.894-7.132 8.172l-13.524.974c-4.216.283-7.895-2.873-8.173-7.133l-.554-7.747-5.805 12.008c-1.15 2.458-3.532 4.181-6.421 4.391l-13.294.955a7.645 7.645 0 01-3.607-.646 7.302 7.302 0 01-3.542 1.134l-13.524.973c-4.215.283-7.894-2.872-8.172-7.132l-1.901-26.27c-.158 12.301-1.664 20.173-5.067 25.596-4.635 7.417-11.399 9.676-21.346 10.384l-2.111.164c-1.925.14-3.762-.483-5.183-1.557-1.288 1.305-2.978 2.154-4.948 2.288l-13.525.974c-4.215.283-7.894-2.872-8.172-7.132l-2.412-33.604-6.421.481c.853 13.783-2.055 24.719-8.484 32.701-6.549 8.24-16.372 12.962-29.128 13.98zm72.861-49.175l1.079 15.355a7.243 7.243 0 012.477-.576l1.377-.113c1.147-.094 1.775-.021 1.825-.06 1.047-1.97 1.419-6.336 1.341-14.665l.013-.498-8.112.557zm72.532 20.933l1.828-3.606c-.438-.142-.876-.284-1.304-.515a7.435 7.435 0 01-2.215-1.667l.409 5.866 1.282-.078zm25.411-37.142c.528.152 1.056.304 1.523.586.816.413 1.487.9 2.097 1.517l-.278-4.26-2.339.182-1.003 1.975zm81.534 10.75l.482-.625c-.208-.161-.412-.367-.576-.522l.094 1.148zm32.205-2.893c.208.16.412.366.576.521l-.094-1.147a2.716 2.716 0 01-.482.626zm53.986 9.958a18.565 18.565 0 01-1.075 2.602c.129.061.208.161.332.266.378.272.7.627 1.028.938l-.285-3.806zm-1.81-17.668c.203.206.407.411.605.662l-.116-1.741c-.176.343-.313.736-.489 1.08zm54.772 4.367l-.042-.414c-.056.084-.111.169-.161.209.084.055.119.15.203.205z" fill="#000"/><path fill-rule="evenodd" clip-rule="evenodd" d="M189.066 129.717c-12.242.895-19.892-6.04-21.084-22.772-1.191-16.732 5.069-26.005 17.541-26.92 12.332-.885 19.775 7.436 20.966 24.168 1.197 16.687-6.787 24.76-17.423 25.524zm.893 12.651c21.686-1.571 32.834-14.959 31.062-39.213-1.727-24.25-14.794-37.77-36.479-36.2-21.686 1.57-32.913 16.813-31.195 40.744 1.735 23.795 14.927 36.24 36.612 34.669zm68.775-7.371l-13.524.974-2.977-41.261-17.969 1.275-.807-11.05 49.372-3.535.807 11.05-17.879 1.286 2.977 41.261zm62.258-4.492l-3.784-52.31-37.774 2.7.249 19.759c.207 19.345-2.589 21.884-10.246 22.449l-1.377.112.806 11.05 2.111-.164c14.901-1.086 19.653-5.989 19.298-33.443l-.137-9.38 14.347-1.015 2.978 41.261 13.529-1.019zm20.443-1.442l-13.294.955-3.779-52.356 13.614-.963 2.455 34.017 17.534-35.467 14.347-1.014 3.734 52.35-13.524.974-2.553-35.529-18.534 37.033zm89.027-6.381l-3.734-52.35-13.524.973 1.579 22.005c-2.866 1.576-6.99 2.643-11.206 2.925-6.051.434-9.699-1.036-10.164-7.591l-1.162-15.819-13.524.974 1.136 16.043c1.052 14.806 8.527 17.766 19.801 16.985 6.051-.433 11.724-1.91 15.763-3.804l1.466 20.627 13.569-.968zm20.767-1.496l-13.524.974-3.734-52.35 13.524-.974 1.45 19.99 21.042-1.51-1.45-19.989 13.524-.974 3.734 52.351-13.524.973-1.517-21.36-21.042 1.508 1.517 21.361zm71.658-25.129c.328 6.175-4.597 11.786-11.746 12.273-4.355.312-6.835-1.431-7.104-5.372-.302-4.445 2.075-6.896 9.859-8.946 5.019-1.326 7.442-2.226 8.706-3.716l.285 5.761zm15.354 18.878l-2.381-33.1c-.965-13.204-7.243-20.207-23.835-19.045-16.821 1.181-22.208 9.193-21.649 20.032l12.88-.912c.323-4.736 2.659-8.01 8.895-8.468 5.407-.371 8.974 1.407 9.216 4.8.261 3.621-1.552 5.138-8.401 6.57-13.794 2.897-23.759 5.33-22.699 20.455.6 8.525 6.562 13.946 18.479 13.104 7.014-.503 12.389-3.333 15.431-7.207.226 1.572.656 3.349 1.188 4.638l12.876-.867zm53.637-3.857l-13.524.974-1.267-17.65-9.583.704-10.102 18.465-14.258 1.025 11.739-19.638c-7.692-1.486-12.44-6.402-13.053-15.201-.815-11.37 5.966-18.082 17.794-18.935l28.47-2.055 3.784 52.311zm-29.54-25.892l14.028-1.006-.991-14.162-14.028 1.006c-5.088.363-8.034 3.021-7.703 7.606.315 4.719 3.561 6.914 8.694 6.556z" fill="#9FC51B"/><path fill-rule="evenodd" clip-rule="evenodd" d="M189.206 131.642c-6.83.479-12.441-1.309-16.483-5.643-3.715-4.024-6.042-10.204-6.682-18.78.005-.044-.029-.139-.024-.184-.619-8.755.767-15.595 3.974-20.496 3.317-5.07 8.512-7.92 15.342-8.4 6.784-.484 12.269 1.609 16.246 6.117 3.852 4.403 6.172 11.037 6.791 19.792.621 8.346-1.032 14.746-4.102 19.253-3.512 5.184-8.871 7.879-15.062 8.341zm-13.677-8.272c3.194 3.417 7.71 4.851 13.397 4.421 5.043-.368 9.383-2.5 12.181-6.63 2.628-3.832 3.952-9.36 3.446-16.738.006-.045.011-.09-.029-.14-.583-7.887-2.583-13.757-5.831-17.499-3.133-3.546-7.488-5.189-12.941-4.822-.089-.01-.184.024-.274.013-5.553.446-9.678 2.694-12.276 6.665-2.759 4.18-3.922 10.273-3.344 18.205.604 7.708 2.522 13.113 5.671 16.525zm14.755 20.899c11.324-.82 19.926-4.821 25.557-11.803 5.58-6.944 8.039-16.75 7.18-29.306.01-.09-.024-.185-.014-.275-.909-12.516-4.814-22.335-11.283-28.86-6.554-6.581-15.729-9.784-27.098-8.97-.09-.01-.185.025-.274.014-11.28.826-19.884 5.235-25.512 12.582-5.627 7.347-8.182 17.597-7.308 30.019-.01.089.024.184.014.274.93 12.337 4.831 21.792 11.388 27.964 6.596 6.222 15.756 9.15 27.125 8.335-.005.045.13.061.225.026zm-.42-3.822c10.317-.755 18.039-4.222 22.982-10.375 4.948-6.199 7.173-15.169 6.344-26.812-.828-11.643-4.323-20.687-10.188-26.551-5.78-5.81-13.959-8.579-24.226-7.863-10.221.721-17.951 4.642-22.885 11.115-5.091 6.636-7.317 16.015-6.523 27.563.81 11.414 4.351 20.054 10.208 25.599 5.766 5.535 13.972 8.08 24.288 7.324zm66.85-7.231l-9.673.694-2.833-39.38c-.059-1.052-.968-1.84-2.02-1.78L226.1 93.88l-.522-7.243 45.521-3.256.522 7.244-15.954 1.146a1.9 1.9 0 00-1.78 2.02l2.827 39.425zm1.114-37.739l2.832 39.38c.059 1.052-.728 1.961-1.781 2.021l-13.524.973c-1.052.06-1.961-.728-2.02-1.78l-2.833-39.38-16.088 1.13c-1.052.06-1.961-.728-2.02-1.78l-.807-11.05c-.06-1.053.728-1.962 1.78-2.021l49.373-3.535c1.052-.06 1.961.728 2.02 1.78l.807 11.05c.059 1.053-.728 1.962-1.781 2.021l-15.958 1.191zm61.094 33.287l-3.5-48.504-34.012 2.41.228 17.984c.109 10.014-.603 15.75-2.411 19.177-1.984 3.77-4.921 4.792-9.102 5.17l.522 7.244.229-.019c6.83-.479 11.299-1.778 13.874-5.934 2.79-4.449 3.832-12.238 3.655-25.579l-.137-9.38a1.905 1.905 0 011.77-1.931l14.347-1.015a1.902 1.902 0 012.021 1.78l2.832 39.381 9.684-.784zm.212-50.71a1.902 1.902 0 00-2.021-1.78l-37.774 2.701a1.9 1.9 0 00-1.78 2.02l.259 19.67c.098 9.331-.507 14.534-1.973 17.364-1.223 2.312-3.341 2.93-6.504 3.153l-1.376.113a1.901 1.901 0 00-1.781 2.021l.807 11.049c.059 1.053.968 1.84 2.02 1.781l2.111-.164c8.066-.562 13.445-2.256 16.854-7.724 3.233-5.125 4.392-13.537 4.214-27.65l-.116-7.606 10.636-.763 2.832 39.38c.06 1.052.969 1.84 2.021 1.78l13.524-.974c1.053-.059 1.84-.968 1.781-2.02l-3.734-52.35zm21.059 49.182l-10.317.756-3.499-48.504 9.808-.679 2.281 31.997a1.966 1.966 0 001.073 1.716c.945.473 2.085.06 2.558-.885l17.055-34.477 11.369-.815 3.505 48.46-9.673.694-2.413-33.604c-.062-.643-.443-1.278-1.044-1.576a1.891 1.891 0 00-2.553.84l-18.15 36.077zm18.409-28.137l-15.44 30.755a1.957 1.957 0 01-1.582 1.089l-13.294.955a1.901 1.901 0 01-2.021-1.78l-3.734-52.35c-.059-1.053.728-1.962 1.781-2.021l13.613-.963c1.053-.06 1.962.728 2.021 1.78l1.953 27.004 14.434-29.145c.298-.602.893-1.032 1.577-1.044l14.347-1.014c1.052-.06 1.961.728 2.02 1.78l3.734 52.35a1.901 1.901 0 01-1.78 2.021l-13.524.974c-1.053.059-1.961-.728-2.021-1.781l-2.084-28.61zm69.794 21.797l-3.454-48.499-9.673.694 1.434 20.124c.046.778-.351 1.46-.982 1.795-1.555.865-3.458 1.599-5.476 2.137-2.062.533-4.288.91-6.533 1.059-3.437.237-6.218-.086-8.375-1.474-2.237-1.487-3.586-3.962-3.855-7.903l-1.016-13.939-9.673.694 1.035 14.168c.484 6.785 2.339 10.773 5.315 12.938 2.976 2.164 7.282 2.665 12.466 2.267 2.843-.215 5.573-.625 8.099-1.24 2.667-.645 5.035-1.461 7.004-2.369.96-.433 2.095-.029 2.529.931.108.24.177.43.196.659l1.326 18.702 9.633-.744zm.212-50.71c-.059-1.052-.968-1.84-2.02-1.78l-13.524.974a1.902 1.902 0 00-1.781 2.02l1.496 20.768c-1.055.468-2.239.876-3.507 1.229-1.828.47-3.819.783-5.84.958-2.614.196-4.682 0-5.989-.878-1.228-.78-1.953-2.364-2.104-4.973l-1.207-15.824c-.059-1.053-.968-1.84-2.02-1.78l-13.525.973a1.9 1.9 0 00-1.78 2.02l1.135 16.044c.568 8.022 3.002 12.896 6.852 15.753 3.856 2.812 8.919 3.446 15.015 3.018a57.285 57.285 0 008.749-1.347 56.576 56.576 0 005.184-1.579l1.275 17.969a1.901 1.901 0 002.021 1.78l13.524-.973c1.053-.06 1.84-.969 1.781-2.021l-3.735-52.35zm20.556 49.215l-9.673.694-3.499-48.504 9.673-.695 1.309 18.064a1.902 1.902 0 002.021 1.78l21.042-1.508a1.9 1.9 0 001.78-2.02l-1.304-18.11 9.673-.694 3.499 48.505-9.673.694-1.372-19.48a1.902 1.902 0 00-2.021-1.781l-21.042 1.509a1.9 1.9 0 00-1.78 2.02l1.367 19.526zm2.574-17.84l1.417 19.486c.059 1.052-.728 1.961-1.781 2.02l-13.524.974c-1.052.059-1.961-.728-2.02-1.781l-3.784-52.31c-.06-1.053.728-1.961 1.78-2.02l13.524-.975a1.902 1.902 0 012.021 1.781l1.31 18.064 17.235-1.224-1.304-18.109c-.06-1.053.728-1.961 1.78-2.02l13.524-.974a1.902 1.902 0 012.021 1.78l3.734 52.35c.059 1.053-.728 1.962-1.781 2.021l-13.524.974c-1.052.059-1.961-.728-2.02-1.781l-1.373-19.48-17.235 1.224zm73.07-5.599c.21 3.662-1.199 7.18-3.685 9.8-2.382 2.497-5.806 4.19-9.797 4.499-.045-.005-.09-.011-.14.029-2.564.157-4.691-.318-6.236-1.498-1.674-1.24-2.637-3.125-2.794-5.689-.215-2.843.495-5.034 2.484-6.894 1.783-1.657 4.567-2.924 8.787-4.025 2.437-.626 4.23-1.19 5.519-1.722 1.099-.463 1.785-.884 2.256-1.42.682-.784 1.92-.868 2.704-.186.412.367.629.846.661 1.35l.241 5.756zm-6.464 7.113c1.809-1.88 2.779-4.359 2.623-6.923l-.133-2.38c-.145.075-.335.144-.48.218-1.479.6-3.412 1.194-6.038 1.889-3.566.95-5.859 1.91-7.137 3.125-1.022.973-1.393 2.203-1.266 3.854.112 1.377.546 2.336 1.257 2.874.795.592 2.04.828 3.686.746l.09.011c3.078-.279 5.633-1.528 7.398-3.414zm17.831 10.074l-2.241-31.173c-.427-6.097-2.03-10.692-5.376-13.582-3.386-2.94-8.646-4.233-16.393-3.678-7.887.583-13.039 2.666-16.087 5.813-2.582 2.654-3.717 6.16-3.827 10.238l9.259-.651c.379-2.093 1.182-3.909 2.53-5.343 1.71-1.802 4.299-2.956 7.921-3.216 3.073-.234 5.659.203 7.543 1.195 2.234 1.123 3.521 2.955 3.693 5.384.167 2.475-.405 4.272-2.258 5.739-1.552 1.228-3.925 2.089-7.649 2.838-6.664 1.408-12.451 2.69-16.214 5.344-3.513 2.455-5.463 6.32-4.979 13.105.285 3.806 1.741 6.93 4.513 8.889 2.689 1.904 6.628 2.816 11.896 2.474 3.163-.224 5.929-.948 8.284-2.038 2.449-1.124 4.402-2.67 5.787-4.419.642-.834 1.84-.968 2.674-.325.418.321.64.756.722 1.22.096.739.277 1.533.462 2.282.069.189.088.419.157.609l9.583-.705zm1.605-31.408c-.492-7.104-2.489-12.61-6.704-16.236-4.171-3.622-10.307-5.199-19.151-4.59-8.94.642-14.867 3.136-18.586 6.977-3.775 3.925-5.153 9.13-4.844 15.075.059 1.053.963 1.885 2.015 1.826l12.926-.908a1.962 1.962 0 001.804-1.835c.129-1.895.636-3.518 1.669-4.58 1.038-1.107 2.757-1.816 5.326-2.017.09.01.185-.024.274-.014 2.29-.143 4.124.116 5.412.766.985.523 1.579 1.274 1.649 2.237.094 1.147-.134 1.94-.835 2.494-1.001.793-2.94 1.431-6.065 2.114-7.128 1.49-13.244 2.87-17.648 5.95-4.649 3.232-7.178 8.166-6.602 16.507.374 4.999 2.358 9.048 6.134 11.76 3.404 2.396 8.176 3.587 14.411 3.13 3.622-.261 6.858-1.112 9.642-2.38 1.729-.799 3.25-1.759 4.562-2.879.162.564.334 1.039.506 1.514.321.764 1.086 1.217 1.909 1.176l12.881-.912a1.901 1.901 0 001.78-2.021l-2.465-33.154zm52.033 27.551l-9.673.694-1.127-15.724c-.06-1.052-.969-1.84-2.021-1.78l-9.488.67a1.965 1.965 0 00-1.661.988l-9.634 17.565-9.533.665 9.823-16.452c.116-.214.231-.427.263-.697.209-1.02-.489-2.057-1.515-2.221-3.512-.681-6.258-2.092-8.221-4.366-1.884-2.173-3.031-5.216-3.305-9.112-.363-5.089.919-9.077 3.561-11.86 2.747-2.909 6.995-4.643 12.447-5.01l26.589-1.909 3.495 48.549zm.206-50.665l3.735 52.351c.059 1.052-.729 1.961-1.781 2.02l-13.524.974c-1.053.059-1.961-.728-2.021-1.781l-1.127-15.724-6.6.46-9.633 17.565c-.292.557-.883.943-1.571.999l-14.168 1.036a1.905 1.905 0 01-1.195-.276c-.89-.558-1.208-1.731-.65-2.621l10.435-17.426c-3.156-1.003-5.786-2.627-7.789-4.951-2.399-2.825-3.871-6.587-4.231-11.312-.462-6.19 1.203-11.134 4.578-14.742 3.419-3.603 8.531-5.737 14.997-6.213l28.514-2.05c1.063-.149 1.972.639 2.031 1.691zm-27.586 28.48l14.028-1.006a1.9 1.9 0 001.78-2.02l-.99-14.163a1.902 1.902 0 00-2.021-1.781l-14.028 1.006c-3.028.24-5.456 1.184-7.145 2.806-1.694 1.667-2.553 3.977-2.338 6.82.209 2.889 1.365 5.069 3.243 6.515 1.878 1.445 4.443 2.062 7.471 1.823zm-5.162-4.874c1.128.859 2.817 1.192 4.927 1.028l12.147-.861-.755-10.317-12.148.861c-2.11.164-3.724.75-4.701 1.727-.877.898-1.298 2.167-1.176 3.864.076 1.69.703 2.945 1.706 3.698z" fill="#9FC51B"/><path fill-rule="evenodd" clip-rule="evenodd" d="M571.571 218.355l-4.396-61.184-12.442.887 3.613 50.321-16.603 1.202-3.613-50.32-12.54.908 3.612 50.32-16.602 1.203-3.546-50.344-12.541.907 4.396 61.184 70.662-5.084zm58.634-4.181l-15.572 1.131-20.124-26.25-6.338 7.223 1.479 20.822-12.635.897-4.396-61.184 12.635-.897 1.775 24.885 21.63-26.575 16.603-1.203L602.85 178.9l27.355 35.274zm23.607-10.586c9.218-.654 16.137-7.65 15.102-22.123-1.034-14.474-7.485-21.681-18.184-20.942-10.765.762-16.213 8.856-15.179 23.329 1.035 14.473 7.657 20.486 18.261 19.736zm.803 10.963c18.795-1.364 28.424-12.968 26.935-33.983-1.521-21.019-12.819-32.722-31.614-31.358-18.796 1.363-28.512 14.555-27.022 35.283 1.47 20.629 12.91 31.389 31.701 30.058zm82.968-8.098l-12.635.897-3.656-50.772-16.504 1.182.219 13.515c.551 32.383-4.526 37.834-19.999 38.945l-2.291.181-.783-10.864 1.484-.115c8.38-.592 10.739-3.835 10.465-27.33l-.313-23.979 39.617-2.843 4.396 61.183zm38.54-26.016l-15.572 1.131 6.091-24.897.098-.021 9.383 23.787zm23.125 21.613l-25.927-59.659-14.828 1.057-17.462 62.767 13.541-.983 3.421-12.933 22.566-1.628 4.766 12.35 13.923-.971z" fill="#000"/><path fill-rule="evenodd" clip-rule="evenodd" d="M565.821 213.371l-3.63-50.45-1.708.121 3.244 44.971c.199 2.964-2.02 5.551-5.016 5.746l-16.602 1.203c-2.964.199-5.552-2.02-5.747-5.015l-3.216-44.936-1.775.145 3.212 44.968c.199 2.964-2.019 5.551-5.015 5.746l-16.603 1.203c-2.964.199-5.551-2.02-5.746-5.016l-3.181-44.963-1.775.145 3.63 50.45 59.928-4.318zm.989-61.581a5.31 5.31 0 012.781.547 5.58 5.58 0 012.698-.933l12.635-.897c2.964-.198 5.552 2.02 5.747 5.016l.826 11.316 12.865-15.798a5.437 5.437 0 013.998-2.221l16.442-1.189c1.42-.123 2.909.274 4.068 1.304a5.082 5.082 0 011.334 1.721c5.09-3.915 11.631-6.288 19.433-6.851 11.057-.793 19.993 2.356 26.493 8.865 6.301 6.295 10.04 15.648 10.871 27.477.352 4.676.172 8.97-.507 12.887.25-.226.441-.492.576-.828 1.281-3.048 1.694-9.073 1.553-19.958l-.014-.162-.339-23.758c-.171-2.929 2.072-5.45 5.005-5.652l39.618-2.843c2.964-.199 5.551 2.02 5.746 5.015l2.86 39.748 11.761-42.332a5.389 5.389 0 014.903-4.225l14.698-1.04a5.435 5.435 0 015.475 3.225l25.906 59.561c.253.573.404 1.198.457 1.843.199 2.964-2.02 5.551-5.015 5.747l-13.765.989a5.369 5.369 0 01-5.548-3.426l-3.382-8.577-14.765 1.065-2.445 9.21a5.39 5.39 0 01-4.845 4.008l-13.541.983a5.13 5.13 0 01-1.706-.166 5.693 5.693 0 01-1.71.408l-12.635.897c-2.965.199-5.552-2.02-5.747-5.015l-3.259-45.388-6.03.45.14 8.423c.302 17.201-1.02 27.469-4.678 33.917-4.271 7.591-10.727 9.781-20.335 10.486l-2.291.182a5.349 5.349 0 01-5.713-4.756c-5.468 5.246-12.977 8.241-22.42 8.902-7.64.55-14.307-.673-19.854-3.555a5.373 5.373 0 01-4.557 3.178l-15.571 1.131a5.403 5.403 0 01-4.65-2.075l-16.157-21.058-.515.58 1.323 18.598c.199 2.964-2.02 5.551-5.016 5.747l-12.635.896a5.3 5.3 0 01-2.781-.547 5.563 5.563 0 01-2.698.933l-70.624 5.025c-2.964.199-5.551-2.02-5.746-5.015l-4.396-61.184c-.199-2.964 2.02-5.551 5.016-5.747l12.54-.907c2.964-.199 5.552 2.019 5.747 5.015l3.216 44.935 5.833-.408-3.212-44.967c-.199-2.964 2.02-5.551 5.015-5.747l12.541-.907c2.964-.199 5.551 2.019 5.746 5.015l3.188 44.9 5.834-.409-3.212-44.967c-.199-2.964 2.02-5.551 5.015-5.746l12.411-.891zm52.972 57.72l-21.185-27.301a5.39 5.39 0 01.189-6.85l13.883-16.032-1.291.105-20.137 24.735c-1.867 2.309-5.263 2.649-7.571.783a5.287 5.287 0 01-1.955-3.808l-1.409-19.504-1.87.135 3.63 50.45 1.87-.135-1.111-15.473c-.108-1.547.447-3.017 1.462-4.05l6.225-7.076c1.954-2.234 5.367-2.445 7.601-.491.262.222.516.508.712.754l18.375 23.97 2.582-.212zm-9.951-30.438l8.256 10.646a55.666 55.666 0 01-.503-4.47 1.115 1.115 0 01-.027-.323l.008-.063c-.437-5.869-.003-11.253 1.161-16.04l-8.895 10.25zm44.35 29.866c6.479-.462 12.15-3.319 15.891-8.83 3.123-4.592 4.782-10.888 4.192-19.012-.616-8.447-2.933-14.918-6.796-19.363-4.232-4.84-10.014-7.078-17.103-6.591-7.156.51-12.593 3.555-16.162 8.958-3.187 4.872-4.603 11.548-4.066 19.858.013.161.023.354.036.515.642 8.227 2.943 14.28 6.752 18.367 4.345 4.693 10.195 6.619 17.256 6.098zm-9.344-13.394c1.932 2.079 4.87 2.932 8.609 2.663 3.224-.232 6.001-1.572 7.736-4.119 1.773-2.607 2.705-6.495 2.367-11.84a5.038 5.038 0 01-.042-.741c-.472-5.84-1.863-10.094-4.122-12.658-1.834-2.099-4.529-3.116-7.938-2.937a4.724 4.724 0 01-.677.049c-3.46.334-6.016 1.699-7.571 4.075-1.905 2.912-2.72 7.452-2.302 13.478.452 5.743 1.782 9.702 3.94 12.03zm9.606 13.616c7.774-.599 13.541-3.189 17.098-7.666 3.632-4.565 5.223-11.381 4.634-20.336-.013-.162-.03-.291-.044-.453-.672-9.061-3.351-15.989-7.761-20.402-4.236-4.264-10.33-6.283-18.1-5.716-7.77.567-13.571 3.441-17.196 8.231-3.778 4.995-5.448 12.217-4.835 21.239.017.13.003.256.019.386.678 8.741 3.307 15.281 7.655 19.398 4.233 4.009 10.315 5.866 18.046 5.359a1.53 1.53 0 01.484-.04zm77.39-7.691l-3.629-50.449-5.385.397c2.105.596 3.708 2.476 3.886 4.799l3.259 45.388 1.869-.135zm-29.226-48.598l-3.578.255.265 18.892c-.007.063-.014.126.014.161.154 12.421-.468 19.701-2.403 24.239-2.076 4.938-5 6.995-9.16 7.854l.034.26c4.193-.6 7.022-1.837 8.667-4.715 2.619-4.65 3.557-13.268 3.28-28.484l-.219-13.516c-.098-2.185 1.213-4.11 3.1-4.946zm64.959 22.799l.87-.058-.515-1.339-.355 1.397zm-8.23 11.127c-2.242-.516-3.968-2.443-4.166-4.864a5.846 5.846 0 01.128-1.647l6.091-24.897c.619-2.582 3.023-4.284 5.593-4.113a5.397 5.397 0 014.876 3.699l9.285 23.52a5.359 5.359 0 01-3.047 6.966l-.035.028 2.129-.168c2.417-.166 4.58 1.3 5.418 3.443l3.343 8.636 2.354-.174-21.393-49.158-7.282.496-14.391 51.744 2.095-.14 2.445-9.21c.625-2.357 2.73-3.966 5.07-4.014l1.487-.147z" fill="#000"/><path fill-rule="evenodd" clip-rule="evenodd" d="M567.23 211.425l-4.396-61.184-12.442.887 3.644 50.324-16.603 1.203-3.612-50.32-12.541.908 3.613 50.32-16.603 1.203-3.577-50.348-12.541.907 4.396 61.184 70.662-5.084zm58.637-4.212l-15.571 1.131-20.125-26.251-6.338 7.223 1.48 20.823-12.635.896-4.396-61.183 12.635-.897 1.774 24.884 21.63-26.575 16.603-1.203-22.412 25.877 27.355 35.275zm23.607-10.586c9.219-.655 16.138-7.65 15.103-22.124-1.035-14.473-7.485-21.68-18.184-20.942-10.766.763-16.214 8.856-15.179 23.33 1.031 14.504 7.653 20.517 18.26 19.736zm.8 10.994c18.795-1.364 28.424-12.968 26.935-33.983-1.521-21.019-12.819-32.722-31.615-31.358-18.795 1.363-28.512 14.555-27.021 35.283 1.47 20.629 12.878 31.386 31.701 30.058zm82.968-8.098l-12.635.897-3.625-50.769-16.504 1.183.219 13.515c.551 32.382-4.526 37.834-19.999 38.944l-2.291.182-.783-10.864 1.484-.115c8.38-.593 10.739-3.835 10.466-27.33l-.314-23.98 39.586-2.846 4.396 61.183zm38.539-26.016l-15.571 1.131 6.091-24.897.098-.021 9.382 23.787zm23.129 21.581l-25.962-59.631-14.828 1.058-17.461 62.766 13.54-.983 3.421-12.932 22.566-1.629 4.766 12.35 13.958-.999z" fill="#000"/><path fill-rule="evenodd" clip-rule="evenodd" d="M561.016 206.036l-3.575-49.549-.807.066 3.2 44.518c.165 2.161-.894 4.116-2.562 5.265l3.744-.3zm1.441-61.625a5.536 5.536 0 012.757.481 5.966 5.966 0 012.691-.87l12.635-.897a5.797 5.797 0 016.211 5.421l.733 10.187 12.121-14.894a5.899 5.899 0 014.339-2.405l16.41-1.193c1.551-.139 3.13.3 4.408 1.407.464.406.854.899 1.178 1.416 5.001-3.702 11.307-5.974 18.762-6.578.291-.03.582-.06.901-.055 10.916-.681 19.789 2.46 26.296 8.907 6.452 6.376 10.271 15.866 11.112 27.888.232 3.223.227 6.292-.012 9.173.656-3.44.834-8.822.759-16.982l-.013-.162-.342-23.727c-.174-3.185 2.253-5.907 5.413-6.147l39.618-2.843a5.797 5.797 0 016.211 5.421l2.68 37.169 11.086-39.821a5.892 5.892 0 015.297-4.594l14.666-1.045c2.456-.226 4.89 1.112 5.923 3.502l25.906 59.56c.281.608.456 1.3.502 2.009a5.797 5.797 0 01-5.421 6.21l-13.734.993c-2.554.247-5.071-1.197-6.026-3.705l-3.219-8.334-14.119 1.012-2.345 8.902c-.626 2.357-2.69 4.163-5.237 4.346l-13.54.983a6.09 6.09 0 01-1.711-.135 5.09 5.09 0 01-1.706.378l-12.635.896a5.797 5.797 0 01-6.211-5.421l-3.212-44.967-5.156.36.124 8.006c.295 17.264-1.034 27.595-4.739 34.165-4.384 7.738-10.945 10.012-20.68 10.702l-2.29.182c-2.838.213-5.367-1.679-6.048-4.348-5.393 4.872-12.663 7.735-21.633 8.45-.291.03-.582.061-.901.055-7.373.454-13.823-.711-19.262-3.421a5.848 5.848 0 01-4.697 3.002l-15.571 1.131c-1.87.134-3.791-.665-5.045-2.249l-15.822-20.636-.036.028 1.313 18.406a5.797 5.797 0 01-5.421 6.211l-12.635.896a5.524 5.524 0 01-2.757-.48 5.979 5.979 0 01-2.691.87l-70.693 5.081a5.798 5.798 0 01-6.211-5.422l-4.396-61.183a5.798 5.798 0 015.421-6.211l12.541-.908a5.797 5.797 0 016.211 5.421l3.204 44.487 4.932-.354-3.169-44.514a5.797 5.797 0 015.421-6.211l12.54-.908a5.797 5.797 0 016.211 5.421l3.204 44.487 4.932-.354-3.2-44.518a5.797 5.797 0 015.421-6.211l12.446-.919zm-27.55 63.481a5.91 5.91 0 01-3.303-4.86l-3.204-44.486-.902.055 3.2 44.518c.165 2.161-.894 4.115-2.561 5.264l6.77-.491zm-29.108 2.082a5.908 5.908 0 01-3.303-4.859l-3.204-44.487-.902.055 3.571 49.58 3.838-.289zm108.76-7.784l-20.652-26.663a5.876 5.876 0 01-1.09-4.922l-4.961 6.104a5.884 5.884 0 016.153.971c.29.258.544.543.767.825l18.24 23.762 1.543-.077zm-8.495-30.045l7.006 9.03a67.617 67.617 0 01-.287-2.751c-.03-.291-.06-.582-.055-.901-.339-5.058-.053-9.724.828-14.001l-7.492 8.623zm.768-18.707l.476-.52-.031-.004-.445.524zm-21.92 25.774c-1.912.769-4.182.505-5.876-.875a5.754 5.754 0 01-2.143-4.117l-1.366-19.051-.999.076 3.543 49.545 1-.076-1.067-15.021a5.81 5.81 0 011.565-4.389l5.343-6.092zm63.764 11.632c.228-.037.484-.04.709-.045 2.813-.281 5.218-1.44 6.803-3.525 1.888-2.498 2.887-6.41 2.567-11.913-.033-.26-.067-.519-.069-.775-.452-5.743-1.826-9.867-3.998-12.357-1.751-1.993-4.291-2.96-7.539-2.794-.229.037-.484.04-.709.045-3.298.32-5.717 1.606-7.194 3.863-1.823 2.761-2.61 7.049-2.253 12.781.034.259.068.519.066.807.442 5.549 1.79 9.35 3.904 11.514 1.772 1.804 4.371 2.554 7.713 2.399zm-12.184 8.845a17.864 17.864 0 01-3.95-3.144c-4.082-4.215-6.543-10.543-7.162-19.246-.605-8.541.829-15.375 4.098-20.398 2.018-3.058 4.621-5.376 7.774-6.928-3.391 1.396-6.122 3.444-8.128 6.12-3.735 4.904-5.366 12.067-4.742 20.994.639 8.802 3.236 15.337 7.557 19.419 1.315 1.336 2.856 2.378 4.553 3.183zm18.45-50.92c3.294 1.086 6.17 3.019 8.537 5.755 3.922 4.484 6.287 11.088 6.896 19.598.615 8.735-1.312 15.416-4.867 20.149a19.987 19.987 0 01-6.368 5.557c3.183-1.26 5.759-3.07 7.668-5.47 3.628-4.533 5.216-11.317 4.567-20.311-.665-9.124-3.313-16.049-7.727-20.43-2.32-2.316-5.26-3.968-8.706-4.848zm72.054 45.361l-3.539-49.576-3.224.233a5.844 5.844 0 012.583 4.456l3.216 44.935.964-.048zm-30.392-47.647l-1.452.119.04 1.859c.312-.763.803-1.409 1.412-1.978zm-3.741 43.456c-1.139 2.649-2.564 4.465-4.279 5.736 1.33-.709 2.334-1.647 3.094-2.965.415-.815.84-1.724 1.185-2.771zm60.219-10.39c-1.517-.976-2.575-2.601-2.702-4.534a5.622 5.622 0 01.142-1.773l4.143-16.941-10.161 36.54 1.13-.093 2.345-8.901a5.932 5.932 0 015.103-4.298zm4.28-32.972a5.818 5.818 0 015.33-2.673 5.808 5.808 0 015.225 3.996l9.289 23.489a5.793 5.793 0 01-1.656 6.552l.259-.034c2.61-.176 4.951 1.407 5.865 3.719l3.223 8.302 1.386-.094-21.02-48.252-6.609.478-1.292 4.517z" fill="#000"/><path fill-rule="evenodd" clip-rule="evenodd" d="M567.23 211.425l-4.396-61.184-12.442.887 3.644 50.324-16.603 1.203-3.612-50.32-12.541.908 3.613 50.32-16.603 1.203-3.577-50.348-12.541.907 4.396 61.184 70.662-5.084zm58.637-4.212l-15.571 1.131-20.125-26.251-6.338 7.223 1.48 20.823-12.635.896-4.396-61.183 12.635-.897 1.774 24.884 21.63-26.575 16.603-1.203-22.412 25.877 27.355 35.275zm23.607-10.586c9.219-.655 16.138-7.65 15.103-22.124-1.035-14.473-7.485-21.68-18.184-20.942-10.766.763-16.214 8.856-15.179 23.33 1.031 14.504 7.653 20.517 18.26 19.736zm.8 10.994c18.795-1.364 28.424-12.968 26.935-33.983-1.521-21.019-12.819-32.722-31.615-31.358-18.795 1.363-28.512 14.555-27.021 35.283 1.47 20.629 12.878 31.386 31.701 30.058zm82.968-8.098l-12.635.897-3.625-50.769-16.504 1.183.219 13.515c.551 32.382-4.526 37.834-19.999 38.944l-2.291.182-.783-10.864 1.484-.115c8.38-.593 10.739-3.835 10.466-27.33l-.314-23.98 39.586-2.846 4.396 61.183zm38.539-26.016l-15.571 1.131 6.091-24.897.098-.021 9.382 23.787zm23.129 21.581l-25.962-59.631-14.828 1.058-17.461 62.766 13.54-.983 3.421-12.932 22.566-1.629 4.766 12.35 13.958-.999z" fill="#E84C0A"/><path fill-rule="evenodd" clip-rule="evenodd" d="M565.083 209.545l-4.097-57.153-8.412.588 3.462 48.321c.061 1.126-.754 2.086-1.88 2.147l-16.603 1.203c-1.126.061-2.086-.754-2.147-1.88l-3.465-48.289-8.51.609 3.461 48.321c.061 1.126-.754 2.086-1.88 2.147l-16.567 1.175c-1.126.06-2.086-.754-2.147-1.88l-3.465-48.289-8.51.609 4.097 57.153 66.663-4.782zm-.218-59.451l4.396 61.184c.061 1.126-.754 2.086-1.88 2.147l-70.694 5.08c-1.126.061-2.086-.754-2.147-1.88l-4.395-61.184c-.061-1.126.754-2.086 1.879-2.147l12.541-.907c1.126-.061 2.086.754 2.147 1.879l3.465 48.289 12.572-.904-3.461-48.32c-.061-1.126.754-2.086 1.88-2.147l12.54-.908c1.126-.061 2.086.754 2.147 1.88l3.466 48.289 12.572-.904-3.462-48.321c-.061-1.126.754-2.086 1.88-2.147l12.442-.887c1.06-.037 2.048.813 2.112 1.908zm57.08 55.384l-10.734.766-19.459-25.374c-.084-.105-.167-.211-.255-.285a1.996 1.996 0 00-2.834.182l-6.299 7.164c-.367.405-.59.954-.53 1.536l1.36 18.827-8.609.63-4.121-57.22 8.608-.63 1.627 22.853c.033.548.293 1.057.729 1.428.877.709 2.14.568 2.846-.277l21.069-25.873 10.863-.783-19.233 22.187a2.016 2.016 0 00-.073 2.548l25.045 32.321zm-20.821-33.46l26.3 33.905c.25.317.427.721.443 1.139.06 1.126-.754 2.086-1.88 2.147l-15.572 1.131a1.965 1.965 0 01-1.732-.777l-18.622-24.318-4.162 4.727 1.448 19.988c.061 1.126-.753 2.086-1.879 2.147l-12.636.896c-1.126.061-2.086-.754-2.147-1.879l-4.395-61.184c-.061-1.126.754-2.086 1.879-2.147l12.636-.897c1.126-.061 2.086.754 2.147 1.88l1.407 19.791 18.345-22.514a1.968 1.968 0 011.501-.816l16.536-1.179a1.866 1.866 0 011.509.495c.842.737.951 1.997.214 2.838l-21.34 24.627zm48.069 22.626c.099-.02.193-.009.26-.034 3.967-.306 7.451-1.946 9.795-5.062 2.453-3.232 3.754-8.099 3.311-14.736-.02-.098-.009-.193-.03-.291-.499-6.707-2.188-11.699-4.953-14.865-2.625-2.99-6.3-4.376-10.906-4.081-.098.021-.193.01-.259.034-4.676.352-8.158 2.248-10.338 5.607-2.329 3.534-3.312 8.694-2.845 15.397.021.098.01.193.03.291.507 6.644 2.201 11.317 4.971 14.164 2.623 2.734 6.359 3.872 10.964 3.576zm.429 4.014c5.188-.356 9.726-2.546 12.861-6.689 3.022-3.996 4.657-9.815 4.09-17.585-.547-7.672-2.586-13.503-5.971-17.381-3.529-4.022-8.365-5.863-14.36-5.441-6.062.446-10.637 2.951-13.587 7.435-2.834 4.306-4.05 10.366-3.504 18.037.571 7.739 2.675 13.29 6.101 16.821 3.596 3.71 8.438 5.232 14.37 4.803zm.505 6.931c8.832-.635 15.443-3.607 19.636-8.873 4.259-5.291 6.111-12.972 5.418-22.962-.717-10.057-3.746-17.825-8.819-22.858-4.93-4.889-11.913-7.235-20.616-6.617-8.802.64-15.425 3.993-19.654 9.575-4.303 5.67-6.196 13.697-5.488 23.561.715 9.801 3.724 17.184 8.732 21.954 4.952 4.699 11.99 6.86 20.791 6.22zm22.793-6.333c1.083-1.344 2.024-2.833 2.849-4.432l.643 8.77c.06 1.126 1.052 1.945 2.147 1.88l2.29-.181c8.447-.617 14.064-2.457 17.641-8.754 3.336-5.878 4.536-15.648 4.255-32.208l-.187-11.593 12.572-.904 3.505 48.773c.061 1.126 1.053 1.944 2.147 1.88l12.636-.897c.708-.046 1.334-.484 1.66-1.086.247.349.632.617 1.094.767.217.057.469.086.662.077l13.54-.984a1.952 1.952 0 001.807-1.516l3.067-11.535 19.665-1.422 4.226 10.944c.346.871 1.217 1.356 2.087 1.298l13.86-.979c1.125-.061 1.944-1.052 1.879-2.147a1.537 1.537 0 00-.175-.691l-25.99-59.667a2.002 2.002 0 00-2.035-1.195l-14.796 1.061c-.901.055-1.652.735-1.845 1.576l-17.03 61.25-4.217-59.149c-.06-1.126-1.052-1.944-2.147-1.88l-39.649 2.839a2.01 2.01 0 00-1.876 2.116l.324 23.885-.007.063c.142 11.429-.318 17.864-1.816 21.398-1.196 2.866-3.36 3.606-6.777 3.848l-1.417.091c1.585-4.835 2.15-10.523 1.696-17.065-.789-11.088-4.227-19.735-10.019-25.459-5.76-5.721-13.72-8.468-23.612-7.796a1.147 1.147 0 00-.323.026c-9.934.764-17.514 4.646-22.428 11.171-4.872 6.434-7.056 15.323-6.329 26.116-.011.095.01.193.026.323.794 10.769 4.245 19.034 9.979 24.432 5.79 5.468 13.803 8.03 23.73 7.33.095.011.193-.01.323-.027 9.899-.735 17.467-4.235 22.365-10.347zm58.175-1.612l-8.608.629-3.474-48.769c-.06-1.126-1.052-1.945-2.147-1.88l-16.504 1.182a1.995 1.995 0 00-1.869 2.053l.219 13.515c.271 15.823-.793 24.97-3.733 30.19-2.7 4.801-7.339 6.212-14.401 6.733l-.291.031-.484-6.834c4.683-.414 7.741-1.689 9.647-6.263 1.721-4.083 2.268-10.988 2.129-22.992l.007-.063-.312-22.061 35.717-2.562 4.104 57.091zm40.834-22.106l-15.571 1.131c-1.126.061-2.087-.754-2.147-1.88a4.035 4.035 0 01.038-.603l6.091-24.897a2.055 2.055 0 011.971-1.561c.933-.051 1.726.552 2.013 1.385l9.362 23.688c.422 1.041-.096 2.195-1.136 2.618-.228.037-.424.078-.621.119zm-13.095-3.12l3.956-16.163 6.101 15.446-10.057.717zm33.087 20.884l-9.573.677-4.226-10.944c-.322-.805-1.118-1.377-2.024-1.29l-22.499 1.604a2.02 2.02 0 00-1.901 1.505l-3.067 11.535-9.25.651 16.308-58.617 11.993-.875 24.239 55.754z" fill="#E84C0A"/></svg>