<svg width="44" height="44" viewBox="0 0 44 44" fill="none" xmlns="http://www.w3.org/2000/svg">
<rect width="44" height="44" rx="22" fill="#E84C0A"/>
<rect width="44" height="44" rx="22" fill="url(#paint0_linear_130_6)"/>
<path d="M32.13 12.006L27.8472 12.7797C27.4604 12.8626 27.1565 13.1941 27.1565 13.6086V15.9019L15.524 17.0901C13.8109 17.2558 12.678 18.9137 13.1477 20.5715L15.3582 28.4186C15.6069 29.3304 16.6016 29.8554 17.4857 29.5238L27.5986 26.0148C28.1512 25.8213 28.538 25.2964 28.538 24.7161V14.106L32.3787 13.4152C32.7102 13.3599 32.9589 13.056 32.9589 12.7244C32.9589 12.2823 32.5721 11.9508 32.13 12.006ZM21.6303 29.5791C20.4146 29.5791 19.4199 30.5738 19.4199 31.7895C19.4199 33.0053 20.4146 34 21.6303 34C22.8461 34 23.8408 33.0053 23.8408 31.7895C23.8408 30.5738 22.8737 29.5791 21.6303 29.5791ZM29.0906 26.816C28.317 26.816 27.7091 27.4239 27.7091 28.1976C27.7091 28.9712 28.317 29.5791 29.0906 29.5791C29.8643 29.5791 30.4721 28.9712 30.4721 28.1976C30.4721 27.4239 29.8643 26.816 29.0906 26.816Z" fill="white"/>

<defs>
<linearGradient id="paint0_linear_130_6" x1="22" y1="0" x2="22" y2="44" gradientUnits="userSpaceOnUse">
<stop stop-color="#FFC400"/>
<stop offset="1" stop-color="#EC6602"/>
</linearGradient>
</defs>
</svg>
