<svg width="169" height="40" viewBox="0 0 169 40" fill="none" xmlns="http://www.w3.org/2000/svg">
<path d="M21.5085 12.6657L16.675 5.09434L17.1407 3.75366L27.5628 1.52389C28.0214 1.4251 28.2684 1.63679 28.0003 2.13073L22.3129 12.6304C22.066 13.082 21.7273 13.0114 21.5085 12.6657Z" fill="#FBB900"/>
<path d="M21.7979 7.93687V1.62859C21.7979 1.12054 21.6356 0.781845 21.1064 0.725395L14.036 0.00565834C13.4997 -0.0507916 13.3586 0.323189 13.408 0.767732L14.2124 8.32497C14.2548 8.72717 14.4453 9.01648 14.9674 8.99531L21.1557 8.69189C21.6426 8.66366 21.7979 8.44492 21.7979 7.93687Z" fill="#B70E80"/>
<path d="M11.9405 34.736C13.394 34.736 14.5724 35.9144 14.5724 37.368C14.5724 38.8216 13.394 40 11.9405 40C10.4869 40 9.30848 38.8216 9.30848 37.368C9.30848 35.9144 10.4869 34.736 11.9405 34.736ZM5.49811 34.4044C9.62601 33.1343 13.9727 31.7583 18.1006 30.4882C18.6651 30.2977 18.905 30.0789 18.8979 29.091L19.1449 18.8101L23.7808 16.411C24.9733 15.79 24.1195 14.3576 23.054 14.8939L18.4322 17.2225C17.8818 17.4976 17.4726 18.1398 17.4443 18.7537L17.3667 20.3201L0.939777 21.6961C0.0789154 21.7667 -0.146884 22.557 0.0859716 23.192L3.92457 33.607C4.08686 34.0586 4.65842 34.6655 5.49811 34.4044ZM19.9493 30.8904C20.7043 30.8904 21.3253 31.5043 21.3253 32.2664C21.3253 33.0214 20.7114 33.6423 19.9493 33.6423C19.1943 33.6423 18.5733 33.0284 18.5733 32.2664C18.5733 31.5113 19.1943 30.8904 19.9493 30.8904Z" fill="#51AE32"/>
<path d="M8.02459 11.4787L6.85325 16.4886L1.46228 18.9865C1.04596 19.1771 1.06008 19.5581 1.39878 19.7486L5.63252 22.0913L4.68699 29.1405C4.63759 29.4933 4.93395 29.712 5.30793 29.331L10.8541 23.6225L16.5768 24.7233C17.2753 24.8573 17.2259 24.3846 17.0919 24.1164L14.4175 18.7184L18.5948 12.1349C18.87 11.6975 18.6301 11.4434 18.2279 11.5987L11.3622 14.3647L8.65965 11.267C8.30684 10.8648 8.09515 11.1894 8.02459 11.4787Z" fill="#0069B4"/>
<path d="M33.6808 0.18261L32.7706 0.697716L31.5004 0.471916C31.1829 0.415466 31.1476 0.507197 31.2041 0.732997L31.4158 1.61503L30.3503 2.55351C30.1739 2.70874 30.2232 2.91337 30.5055 2.89926L32.1426 2.81459L32.9893 3.71779C33.1445 3.88008 33.2857 3.80952 33.3633 3.64017L33.8572 2.47589L35.6566 1.9255C35.9388 1.84083 35.9106 1.65031 35.713 1.5868L34.083 1.0717L34.1042 0.387241C34.1254 -0.0361331 33.8996 0.0626542 33.6808 0.18261Z" fill="#51AE32"/>
<path fill-rule="evenodd" clip-rule="evenodd" d="M4.39771 21.4066L5.63255 22.091L4.68701 29.1402C4.63762 29.493 4.93398 29.7118 5.30796 29.3307L10.8542 23.6222L16.5768 24.723C17.2753 24.8571 17.2259 24.3843 17.0919 24.1162L15.2996 20.5034L4.39771 21.4066Z" fill="#008237"/>
<path fill-rule="evenodd" clip-rule="evenodd" d="M21.7978 7.93747V2.79346C20.0832 3.15333 18.3756 3.5132 16.6609 3.87307C16.2587 3.92952 16.2446 4.43051 16.3857 4.67748L19.0177 8.79833L21.1487 8.69248C21.6426 8.66426 21.7978 8.44551 21.7978 7.93747Z" fill="#702383"/>
<path fill-rule="evenodd" clip-rule="evenodd" d="M68.9548 22.7556L70.987 13.5613C69.8016 13.265 67.9034 12.9686 66.224 12.9686C63.6626 12.9686 61.7786 13.6107 60.3462 15.2337C57.933 17.9786 57.2132 22.0429 55.9925 24.0751C55.4421 24.9925 52.669 25.4652 51.8223 25.1406C51.8152 25.1689 52.0269 23.9552 52.2456 23.1084L52.7043 21.3373C52.9654 20.1872 53.2265 18.9382 53.2265 17.8586C53.2265 13.7871 49.8112 12.9686 47.0522 12.9686C45.02 12.9686 42.9173 13.4626 41.1744 14.1823L41.7671 17.3012C43.2772 16.6802 44.7872 16.2851 46.1632 16.2851C48.1954 16.2851 48.7881 17.0754 48.7881 18.2537C48.7881 18.3878 48.7528 18.6771 48.7246 18.91L47.2498 18.9453C44.392 18.9453 41.8306 19.5027 40.2218 20.9492C39.1704 21.9018 38.5424 23.179 38.5424 24.9854C38.5424 27.4833 40.2218 29.2262 42.9173 29.2262C44.8225 29.2262 46.5936 28.1395 47.7085 26.5942C47.9554 28.5417 49.5784 29.2968 51.4765 29.2474C54.0026 29.1768 58.3493 28.3795 59.7252 25.4511C60.9248 22.8968 61.8492 19.9614 63.2604 17.9009C63.7896 17.1247 64.5376 16.652 65.462 16.652C65.596 16.652 65.7936 16.652 65.9206 16.6873L64.5094 22.9885C64.0437 25.063 64.1989 27.7303 65.3844 29.6213L69.4346 28.1254C68.3691 26.3543 68.5879 24.4209 68.9548 22.7556ZM48.1883 22.431C47.6944 24.4985 45.8245 25.7828 44.2791 25.7828C43.3265 25.7828 42.7338 25.3594 42.7338 24.3362C42.7338 23.7788 42.9314 23.2848 43.3265 22.8897C44.0181 22.1982 45.3305 21.8383 47.4333 21.8383H48.3224L48.1883 22.431Z" fill="#E84E0F"/>
<path d="M106.431 22.7556L108.463 13.3638H104.293L100.024 18.3878C99.5014 18.9805 98.6124 19.9966 98.0549 20.8504H97.9914C97.1376 18.3243 96.1215 15.7276 95.0066 13.3638H91.5914C90.8364 17.3999 89.9544 21.7395 88.8677 23.7082C88.2961 24.7384 85.4313 25.7475 84.3588 25.3594C84.4364 24.682 84.6269 23.8493 84.8174 23.1084L85.2761 21.3373C85.5371 20.1872 85.7982 18.9382 85.7982 17.8586C85.7982 13.7871 82.383 12.9686 79.624 12.9686C77.5918 12.9686 75.4891 13.4626 73.7462 14.1823L74.3389 17.3012C75.8489 16.6802 77.359 16.2851 78.7349 16.2851C80.7671 16.2851 81.3599 17.0754 81.3599 18.2537C81.3599 18.3878 81.3246 18.6771 81.2963 18.91L79.8216 18.9453C76.9638 18.9453 74.4024 19.5027 72.7936 20.9492C71.7422 21.9018 71.1142 23.179 71.1142 24.9854C71.1142 27.4833 72.7936 29.2262 75.4891 29.2262C77.3942 29.2262 79.1654 28.1395 80.2803 26.5942C80.753 30.0729 87.3788 29.6637 90.0531 27.9067C91.9442 26.6577 92.6216 25.056 93.3061 22.8685C93.5671 22.0429 93.8141 21.1609 94.0187 20.1237H94.0823C94.8373 21.93 95.5923 24.0963 96.1144 25.7051H97.9491L100.772 22.3887C101.265 21.796 102.119 20.8152 102.578 20.2224H102.677C101.908 23.0802 100.757 26.6436 102.571 29.579L106.805 28.0055C106.106 26.5025 105.93 25.0701 106.431 22.7556ZM80.746 22.431C80.252 24.4985 78.3821 25.7828 76.8368 25.7828C75.8842 25.7828 75.2915 25.3594 75.2915 24.3362C75.2915 23.7788 75.4891 23.2848 75.8842 22.8897C76.5757 22.1982 77.8882 21.8383 79.9839 21.8383H80.873L80.746 22.431Z" fill="#E84E0F"/>
<path d="M137.965 13.0949C135.629 12.5939 133.611 13.2572 131.741 15.8609C131.833 14.5838 131.388 13.4054 130.937 12.7068L127.232 14.1322C127.627 15.0001 127.867 16.1573 127.655 17.1452L125.955 25.0058C125.009 25.5492 122.074 25.8314 121.707 25.401C121.876 24.2579 122.335 22.6279 122.667 21.3507C122.928 20.2005 123.189 18.9516 123.189 17.872C123.189 13.8005 119.774 12.982 117.015 12.982C114.982 12.982 112.88 13.4759 111.137 14.1957L111.729 17.3145C113.24 16.6936 114.75 16.2984 116.126 16.2984C118.158 16.2984 118.75 17.0887 118.75 18.2671C118.75 18.4012 118.715 18.6905 118.687 18.9233L117.212 18.9586C114.354 18.9586 111.793 19.5161 110.184 20.9626C109.133 21.9152 108.505 23.1924 108.505 24.9988C108.505 27.4967 110.184 29.2396 112.88 29.2396C114.785 29.2396 116.556 28.1529 117.671 26.6076C117.614 27.5531 120.91 30.3262 125.15 28.6892L123.422 36.691H127.825L129.568 28.7104C130.584 29.0773 131.6 29.2396 132.687 29.2396C137.774 29.2396 141.408 25.3869 141.613 19.7489C141.733 16.7782 140.745 13.6876 137.965 13.0949ZM118.144 22.4303C117.65 24.4978 115.78 25.782 114.234 25.782C113.282 25.782 112.689 25.3586 112.689 24.3355C112.689 23.778 112.887 23.2841 113.282 22.889C113.973 22.1974 115.286 21.8376 117.382 21.8376H118.271L118.144 22.4303ZM137.188 20.1652C137.061 23.0865 135.319 25.6127 132.334 25.6127C131.776 25.6127 131.057 25.5139 130.365 25.2175L130.972 21.8164C131.854 16.9617 137.442 14.4215 137.188 20.1652Z" fill="#E84E0F"/>
<path d="M142.206 28.8938H146.609L147.921 23.0513C148.345 21.0191 149.008 19.6713 149.728 18.7187C150.878 17.244 152.056 16.8135 152.783 16.8135C153.538 16.8135 153.933 17.2369 153.933 18.0625C153.933 18.3941 153.87 19.0151 153.7 19.6713L151.668 28.8938H156.064L157.377 23.0513C157.835 20.9838 158.491 19.636 159.218 18.6834C160.368 17.2369 161.547 16.8135 162.274 16.8135C163 16.8135 163.388 17.2369 163.388 18.0907C163.388 18.3871 163.304 19.008 163.156 19.6643L161.829 25.6762C161.406 27.5814 161.744 29.0561 162.259 29.9946L166.43 28.4634C166.013 27.5955 166.027 26.6005 166.289 25.408L167.495 19.8265C167.735 18.7046 168.031 17.3639 168.017 16.3478C167.996 14.118 166.543 12.9679 164.341 12.9679C161.878 12.9679 159.649 14.7108 158.364 16.4113H158.301C158.266 14.1463 157.024 12.9679 154.822 12.9679C152.423 12.9679 150.257 14.6402 149.015 16.3478H148.951C149.156 15.0354 148.909 13.5959 148.5 12.7068L144.598 14.1392C144.958 14.739 144.986 16.3055 144.824 17.0534L142.206 28.8938Z" fill="#E84E0F"/>
<path d="M36.8632 6.49804C35.3531 6.49804 31.0065 6.47687 29.9481 11.0634L25.9966 28.9016H31.1265L34.5981 12.9122C34.8592 11.7973 35.2544 10.7036 37.089 10.7812H44.3216L45.1401 6.49804H36.8632Z" fill="#E84E0F"/>
</svg>
