<svg width="951" height="264" viewBox="0 0 951 264" fill="none" xmlns="http://www.w3.org/2000/svg">
<path fill-rule="evenodd" clip-rule="evenodd" d="M81.0992 146.108C80.9713 146.907 79.8205 146.907 79.2451 147.195C78.7656 147.899 77.8705 148.155 77.0713 147.899C55.2058 153.431 26.4993 162.129 7.73455 144.989L7.63865 144.893L7.54274 144.765C7.44684 144.669 7.287 144.541 7.22307 144.413C-11.6375 122.476 11.5067 91.7759 19.3067 69.4227C21.9919 61.364 31.5501 66.6725 37.2083 67.8237C54.2468 73.0043 68.3443 85.54 74.7697 102.169C81.8983 115.44 84.0082 130.63 80.1401 145.085C80.7156 144.989 81.227 145.564 81.0992 146.108Z" fill="#FDC616"/>
<path fill-rule="evenodd" clip-rule="evenodd" d="M60.1927 88.3222L60.2566 88.3862L60.1927 88.3222ZM59.905 88.0344C59.9689 88.0984 60.0329 88.1623 60.0648 88.2263C60.0329 88.1623 59.9689 88.0984 59.905 88.0344ZM59.8411 87.9704C59.8091 87.9385 59.8091 87.9385 59.8411 87.9704C59.873 88.0024 59.873 88.0344 59.905 88.0664C59.873 88.0024 59.8411 87.9704 59.8411 87.9704ZM59.8091 87.9385C59.8411 87.9704 59.873 88.0024 59.905 88.0344C59.873 88.0024 59.8091 87.9385 59.8091 87.9385ZM59.7771 87.9065C59.7452 87.8745 59.6812 87.7786 59.5853 87.7146C59.6173 87.7466 59.6493 87.7786 59.6812 87.8105C59.6173 87.7466 59.5534 87.6506 59.4575 87.5867C59.5853 87.7146 59.6812 87.8105 59.7771 87.9065ZM59.7771 87.9065C59.7771 87.9065 59.8091 87.9065 59.7771 87.9065C59.8091 87.9065 59.7771 87.9065 59.7771 87.9065ZM59.3935 87.5227C59.4255 87.5547 59.4575 87.5867 59.4575 87.5867L59.3935 87.5227ZM60.4165 88.578L60.3206 88.4821C60.3525 88.4821 60.3845 88.5141 60.4165 88.578ZM62.6861 90.5287C62.6542 90.4648 62.5902 90.4328 62.5583 90.4008C62.5902 90.4328 62.6542 90.4968 62.6861 90.5287ZM86.0541 103.544C87.3328 89.9851 71.4771 79.528 60.4804 74.4753C42.2272 69.5186 50.8903 81.5107 59.6173 87.7146C59.8091 87.9065 60.0009 88.1303 60.1927 88.3222C60.1288 88.2582 60.0648 88.1943 60.0329 88.1303C60.1288 88.2263 60.2247 88.3542 60.3206 88.4501C60.2886 88.4181 60.2886 88.4181 60.2566 88.3862C67.9288 94.0784 77.5828 123.499 86.0541 103.544Z" fill="#E62736"/>
<path fill-rule="evenodd" clip-rule="evenodd" d="M59.5214 148.73C65.1796 151.129 62.3984 157.908 57.891 159.923C46.4468 167.086 15.4706 168.237 10.4838 152.951C9.62064 140.416 50.6984 148.442 59.5214 148.73Z" fill="#E62736"/>
<path fill-rule="evenodd" clip-rule="evenodd" d="M65.9455 155.574C66.0097 155.574 66.0418 155.542 66.106 155.542C66.1382 155.542 66.1703 155.509 66.2345 155.509C66.1382 155.542 66.0418 155.574 65.9455 155.574Z" fill="#643D52"/>
<path fill-rule="evenodd" clip-rule="evenodd" d="M67.96 155.03C68.0242 154.998 68.0563 154.998 68.1205 154.998C68.0563 154.998 67.9921 154.998 67.96 155.03Z" fill="#643D52"/>
<path fill-rule="evenodd" clip-rule="evenodd" d="M32.4453 63.8903C48.333 69.0389 65.6272 73.2281 78.0305 85.0603C78.1583 85.1882 78.2862 85.3161 78.4141 85.412C78.3821 85.38 78.3182 85.3161 78.2862 85.2841C91.5526 96.9884 94.8452 114.865 90.146 131.43C88.9313 133.764 85.9263 147.355 82.5059 142.302C106.769 93.055 62.1748 72.3327 21.1929 63.2187C11.2511 82.47 3.96256 103.736 4.25026 125.641C4.25026 125.514 4.25026 125.386 4.25026 125.29C4.02649 135.587 7.57485 146.716 17.1011 151.928C30.3035 158.42 46.4789 157.173 60.5764 154.614C64.6362 154.422 72.596 150.233 75.537 152.312C74.61 154.71 70.1665 153.943 67.9928 155.062C67.9608 155.062 67.8969 155.094 67.8649 155.094L67.8969 155.094C67.3215 155.254 66.7141 155.414 66.1387 155.606C-9.49561 176.904 -8.92021 116.751 17.3248 65.2014C19.5625 57.4625 27.2027 62.739 32.4453 63.8903ZM57.5395 80.6472C56.7084 81.7025 59.01 83.4613 59.8411 82.47C60.7043 81.3827 58.3707 79.6558 57.5395 80.6472ZM56.3887 83.4933C57.3157 82.1822 54.0871 79.5599 53.0002 80.6792C52.169 81.9903 55.2698 84.7405 56.3887 83.4933ZM62.3666 88.9297C63.1657 87.8744 60.7043 85.9876 59.8731 86.915C59.1379 87.9384 61.5034 89.953 62.3666 88.9297ZM66.4264 88.514C67.4493 87.043 63.9329 84.0689 62.6862 85.3161C61.7911 86.7232 65.1477 89.8891 66.4264 88.514ZM78.0624 85.0922L78.0305 85.0603C78.0305 85.0603 78.0305 85.0603 78.0624 85.0922C78.0624 85.0603 78.0624 85.0603 78.0624 85.0922ZM16.4617 122.891C15.7584 123.179 16.4937 124.906 17.197 124.65C17.9002 124.362 17.165 122.635 16.4617 122.891ZM13.233 125.482C14.288 124.746 11.4429 119.885 10.4519 121.836C10.388 123.051 11.6986 126.185 13.233 125.482ZM17.2609 132.485C30.7191 136.003 46.7346 136.194 60.992 137.346C76.2723 149.562 95.069 157.94 114.153 162.385C115.112 162.513 115.464 161.074 114.569 160.754C94.9731 155.382 76.4321 146.684 61.4715 134.404C62.1428 132.645 61.919 129.927 62.5264 128.328C64.6362 117.998 69.4633 108.405 72.5321 98.3635C71.8928 92.7991 61.1198 122.731 59.5215 132.773C54.3428 128.296 49.6117 123.371 45.4879 117.967C45.6477 117.487 45.6477 116.879 45.7117 116.432C46.2871 109.332 50.8903 103.384 52.0412 96.4128C52.3608 95.2935 52.7444 94.1742 53.0961 93.0869C51.6576 89.5373 50.1871 98.7792 49.5158 100.026C48.4289 104.535 43.7936 110.228 43.3781 115.088C38.615 108.341 34.715 100.858 31.9338 92.6712C32.0297 92.6712 32.1256 92.6392 32.2215 92.6392C35.7699 90.5606 35.5141 85.3481 38.9346 82.9177C38.9666 82.8857 39.0305 82.8217 39.0625 82.7898C39.0305 82.8217 38.9986 82.8537 38.9666 82.8857C39.1584 82.6938 39.3502 82.5019 39.542 82.3101C40.1494 77.4493 33.1805 87.2668 33.0207 88.8018C32.6691 89.2175 31.8699 90.1769 31.3904 91.0403C29.792 85.9876 28.5773 80.7111 27.842 75.1148C24.7732 72.3966 27.4584 80.7111 27.6502 82.3421C28.0658 85.0922 28.6412 87.7465 29.3125 90.3687C27.0748 89.2175 22.6633 88.1942 21.8002 87.3947C16.4937 88.514 28.3535 92.2875 29.7601 92.6073C29.824 92.5753 29.856 92.5433 29.9199 92.5113C32.2535 100.538 35.706 107.925 40.0855 114.641C32.0617 111.027 12.4339 105.527 12.6896 106.774C12.4978 107.222 12.7216 107.829 13.2011 108.021C22.8871 110.867 32.2855 114.641 41.9715 117.455C46.7346 124.202 52.4567 130.278 58.8502 135.651C45.1043 135.075 30.4314 132.805 17.2609 132.485Z" fill="black"/>
<path fill-rule="evenodd" clip-rule="evenodd" d="M32.4452 63.9542C34.5231 64.6258 36.6329 65.2973 38.7427 65.9369C52.7763 70.318 67.2255 74.827 77.9984 85.0922C78.1263 85.2201 78.2542 85.3481 78.382 85.444L78.414 85.476C84.7115 91.0723 88.7074 98.1076 90.6574 105.719C92.7672 113.937 92.4795 122.827 90.05 131.366C89.7623 131.909 89.4107 132.997 88.9951 134.308C87.9402 137.442 86.4697 141.887 84.8074 143.038C84.1041 143.518 83.3689 143.39 82.6017 142.27C94.7172 117.647 89.6025 100.122 76.3361 87.6505C63.0698 75.1788 41.6837 67.6957 21.1928 63.1227C21.1608 63.1227 21.0969 63.1228 21.0969 63.1547C16.11 72.7804 11.7944 82.9177 8.75755 93.3748C5.75263 103.704 4.02641 114.385 4.12231 125.194L4.12231 125.226C3.99444 130.758 4.95345 136.546 7.38295 141.535C9.46082 145.82 12.5936 149.53 17.037 151.928C23.6542 155.19 31.0067 156.501 38.487 156.693C45.9354 156.885 53.5116 155.925 60.5763 154.646C62.1107 154.582 64.1566 153.943 66.2984 153.303C69.8468 152.216 73.5869 151.065 75.4091 152.28C74.8017 153.687 72.9156 153.943 71.0615 154.199C69.9107 154.358 68.7919 154.518 67.9607 154.934L67.8329 154.966L67.8009 154.966C67.2255 155.126 66.6501 155.286 66.0747 155.446C50.3788 159.891 37.9436 160.818 28.3854 158.995C18.2518 157.109 11.3149 152.152 6.99935 145.149C2.68379 138.145 1.02149 129.031 1.43707 118.83C2.10838 102.521 8.15017 83.3334 17.3887 65.2334C17.3887 65.2334 17.3887 65.2333 17.3887 65.2014C18.7313 60.5964 22.0239 60.6924 25.5723 61.7157C26.5633 62.0035 27.5862 62.3872 28.5772 62.739C29.9198 63.2187 31.2305 63.6984 32.4452 63.9542ZM38.7747 65.777C36.6649 65.1054 34.555 64.4659 32.5091 63.7943C31.3264 63.5385 30.0157 63.0588 28.6731 62.5791C27.6821 62.2273 26.6592 61.8436 25.6682 61.5558C22.0559 60.5005 18.6674 60.4045 17.2608 65.1694C8.05427 83.3014 1.9805 102.489 1.30919 118.83C0.893617 129.063 2.55591 138.209 6.90344 145.244C11.251 152.312 18.2198 157.269 28.3854 159.187C37.9755 160.978 50.4427 160.083 66.1706 155.638C66.746 155.478 67.3533 155.318 67.9288 155.126L68.0247 155.094L68.0566 155.094C68.8558 154.678 69.9747 154.55 71.1255 154.39C73.0755 154.135 75.0574 153.879 75.6648 152.312C75.6648 152.28 75.6648 152.216 75.6328 152.216C73.7468 150.905 69.9107 152.056 66.2984 153.175C64.1566 153.815 62.1107 154.454 60.6083 154.518C53.5755 155.798 45.9993 156.757 38.5509 156.565C31.1026 156.373 23.7821 155.062 17.1969 151.832C12.8174 149.434 9.68459 145.788 7.6387 141.503C5.30509 136.674 4.34607 131.078 4.41001 125.705C4.41001 125.705 4.44198 125.673 4.44198 125.641C4.28214 114.705 6.04034 103.928 9.07722 93.4707C12.0821 83.0456 16.3977 72.9403 21.3526 63.3466C41.8116 67.9196 63.1337 75.3706 76.3361 87.8104C89.5386 100.25 94.6213 117.711 82.5058 142.302C82.5058 142.334 82.5058 142.366 82.5058 142.398C83.3689 143.646 84.2 143.805 84.9992 143.262C86.7254 142.079 88.1959 137.602 89.2509 134.436C89.6984 133.124 90.05 132.037 90.3058 131.526C90.3058 131.526 90.3058 131.526 90.3058 131.494C92.7353 122.923 93.023 114.001 90.9131 105.751C88.9312 98.0437 84.8394 90.9444 78.414 85.2841L78.2222 85.0922C78.1902 85.0602 78.1902 85.0602 78.1583 85.0283C67.2894 74.6671 52.8083 70.1581 38.7747 65.777ZM57.6034 80.6792C57.3476 80.9989 57.4435 81.4146 57.6993 81.7664C57.7952 81.9263 57.955 82.0542 58.1148 82.1822C58.2747 82.3101 58.4345 82.406 58.6263 82.5019C59.0739 82.6938 59.5214 82.6938 59.7771 82.374C60.0329 82.0542 59.9689 81.6705 59.7132 81.3187C59.6173 81.1588 59.4575 81.0309 59.2976 80.903C59.1378 80.7751 58.978 80.6792 58.7862 80.5832C58.3706 80.3913 57.8911 80.3594 57.6034 80.6792ZM58.8821 80.3913C58.3706 80.1675 57.8271 80.1675 57.5075 80.5512C57.1878 80.935 57.2837 81.4466 57.5714 81.8624C57.6993 82.0223 57.8591 82.1822 58.0189 82.3421C58.1788 82.47 58.3706 82.5979 58.5624 82.6618C59.0739 82.8857 59.5853 82.8857 59.937 82.47C60.2566 82.0862 60.1607 81.6065 59.873 81.1908C59.7452 81.0309 59.6173 80.871 59.4255 80.7111C59.2657 80.6152 59.0739 80.4873 58.8821 80.3913ZM56.3247 83.4613C56.5804 83.0776 56.4845 82.5979 56.1648 82.0862C55.973 81.7984 55.7173 81.5106 55.4296 81.2867C55.1419 81.0309 54.8222 80.839 54.5026 80.7111C53.9591 80.4553 53.3837 80.4233 53.064 80.7431C52.8083 81.1588 53.0001 81.7344 53.3837 82.2781C53.6075 82.5659 53.8632 82.8537 54.1509 83.0776C54.4386 83.3014 54.7583 83.4933 55.078 83.6212C55.5575 83.7811 56.037 83.7811 56.3247 83.4613ZM55.014 83.7811C55.5575 83.973 56.0689 83.941 56.4526 83.5572C56.7722 83.1095 56.6444 82.5339 56.2927 81.9903C56.1009 81.7025 55.8452 81.4147 55.5255 81.1588C55.2378 80.903 54.8862 80.6791 54.5665 80.5512C53.9271 80.2634 53.3198 80.2314 52.9362 80.6152C52.9362 80.6152 52.9362 80.6152 52.9362 80.6472C52.6485 81.1268 52.8083 81.7984 53.2558 82.374C53.4796 82.6938 53.7673 82.9816 54.055 83.2375C54.3427 83.4613 54.6944 83.6852 55.014 83.7811ZM62.3025 88.8657C62.5263 88.5779 62.4624 88.1622 62.2066 87.8104C62.0788 87.6186 61.9189 87.4587 61.7271 87.2988C61.5353 87.1389 61.3435 87.011 61.1198 86.915C60.6722 86.7231 60.1927 86.6912 59.937 86.947C59.7132 87.2668 59.8411 87.7145 60.1288 88.0982C60.2566 88.2901 60.4484 88.45 60.6402 88.6099C60.832 88.7698 61.0558 88.8977 61.2476 88.9617C61.6312 89.1855 62.0468 89.1855 62.3025 88.8657ZM61.1517 89.1855C61.6312 89.3774 62.1107 89.3774 62.4304 88.9937C62.7181 88.6099 62.6222 88.1622 62.3665 87.7145C62.2386 87.5226 62.0468 87.3307 61.855 87.1709C61.6632 87.011 61.4394 86.8511 61.2157 86.7551C60.7042 86.5313 60.1607 86.4993 59.8091 86.8511C59.5214 87.2348 59.6493 87.7784 60.0009 88.2262C60.1607 88.418 60.3206 88.6099 60.5443 88.7698C60.7042 88.9617 60.928 89.0896 61.1517 89.1855ZM66.3304 88.45C66.6181 88.0023 66.4902 87.4267 66.1386 86.8511C65.9148 86.5313 65.6271 86.2115 65.3075 85.9237C64.9878 85.6359 64.6361 85.412 64.2845 85.2841C63.7091 85.0283 63.1017 84.9963 62.7501 85.38C62.4624 85.8597 62.6861 86.5313 63.1337 87.1709C63.3575 87.4906 63.6771 87.8104 63.9968 88.0663C64.3165 88.3221 64.6681 88.5459 65.0198 88.6419C65.5312 88.8338 66.0107 88.8018 66.3304 88.45ZM64.9558 88.8338C65.5312 89.0256 66.1066 88.9937 66.4902 88.5779C66.8419 88.0663 66.682 87.3947 66.2984 86.7871C66.0747 86.4353 65.787 86.1155 65.4353 85.8277C65.0837 85.5399 64.732 85.3161 64.3484 85.1562C63.6771 84.8684 63.0378 84.8684 62.6222 85.2841C62.2706 85.8277 62.5263 86.5952 63.0058 87.2668C63.2616 87.6186 63.5812 87.9384 63.9009 88.1942C64.2206 88.482 64.6042 88.7058 64.9558 88.8338ZM16.4936 122.955C16.3018 123.051 16.2379 123.275 16.2698 123.531C16.2698 123.659 16.3338 123.787 16.3657 123.915C16.4297 124.042 16.4936 124.17 16.5575 124.266C16.7174 124.49 16.9411 124.618 17.1329 124.554C17.3247 124.458 17.3887 124.234 17.3567 124.011C17.3567 123.883 17.2928 123.755 17.2608 123.627C17.1969 123.499 17.1329 123.371 17.069 123.275C16.9092 123.051 16.7174 122.891 16.4936 122.955ZM17.2288 123.147C17.0051 122.859 16.7174 122.699 16.4297 122.795C16.142 122.923 16.0461 123.211 16.11 123.563C16.142 123.691 16.1739 123.851 16.2379 123.979C16.3018 124.106 16.3657 124.266 16.4616 124.362C16.6854 124.65 16.9731 124.81 17.2608 124.714C17.5485 124.586 17.6444 124.298 17.5805 123.979C17.5805 123.851 17.5165 123.691 17.4846 123.531C17.3887 123.403 17.3247 123.275 17.2288 123.147ZM13.201 125.386C13.5526 125.13 13.3928 124.362 13.0411 123.563C12.8174 123.051 12.4977 122.539 12.1461 122.156C11.8264 121.772 11.4748 121.516 11.1551 121.452C10.9313 121.42 10.7075 121.548 10.5477 121.836C10.5157 122.316 10.7075 123.083 11.0272 123.787C11.219 124.234 11.4747 124.65 11.7625 124.938C12.0502 125.226 12.3698 125.45 12.6895 125.45C12.8813 125.514 13.0411 125.482 13.201 125.386ZM12.7215 125.673C12.9133 125.673 13.1051 125.641 13.2969 125.577C13.7444 125.29 13.5846 124.394 13.201 123.499C12.9772 122.987 12.6256 122.444 12.2739 122.06C11.9223 121.644 11.5067 121.356 11.1551 121.324C10.8354 121.292 10.5797 121.42 10.3879 121.804L10.3879 121.836C10.3559 122.348 10.5477 123.147 10.8993 123.915C11.1231 124.362 11.3789 124.81 11.6666 125.13C11.9543 125.418 12.3379 125.641 12.7215 125.673ZM18.06 132.613C28.1296 135.139 39.5739 135.843 50.6026 136.546C54.1189 136.77 57.6034 136.994 60.9919 137.25C61.0239 137.25 61.0239 137.25 61.0558 137.282C68.5042 143.23 76.7837 148.282 85.5427 152.408C94.7172 156.725 104.403 160.019 114.185 162.289C114.473 162.321 114.697 162.225 114.825 162.033C114.889 161.937 114.952 161.842 114.984 161.714C115.016 161.586 115.016 161.458 114.984 161.362C114.952 161.138 114.793 160.946 114.537 160.85C114.537 160.85 114.537 160.85 114.505 160.85C104.435 158.068 94.6213 154.422 85.4468 149.881C76.7837 145.564 68.664 140.448 61.4075 134.468C61.3755 134.436 61.3755 134.404 61.3755 134.372C61.7271 133.476 61.823 132.325 61.9189 131.238C62.0148 130.15 62.1107 129.095 62.4304 128.328C63.7091 122.06 66.0107 116.048 68.2804 110.036C69.7509 106.166 71.2214 102.297 72.4361 98.3954C72.4042 98.1076 72.3402 97.9477 72.2763 97.8518C72.0845 97.6599 71.7009 98.0756 71.1574 98.9391C70.582 99.8665 69.9107 101.274 69.1435 103.032C65.6591 111.091 60.6722 126.249 59.6173 132.837C59.6173 132.869 59.6173 132.869 59.5853 132.901C59.5534 132.933 59.4894 132.933 59.4575 132.901C56.8362 130.63 54.3427 128.264 51.9771 125.769C49.6435 123.307 47.4698 120.749 45.4239 118.094C45.3919 118.062 45.3919 118.03 45.4239 118.03C45.5518 117.615 45.5837 117.167 45.6157 116.751L45.6476 116.527C45.9673 112.722 47.4378 109.236 48.9083 105.751C50.187 102.745 51.4337 99.7386 51.9771 96.5087C52.2009 95.6772 52.4567 94.8778 52.7444 94.0783C52.8403 93.7905 52.9362 93.5027 53.0321 93.1829C52.7763 92.5753 52.5526 92.3834 52.3288 92.4793C51.6255 92.7672 50.9222 95.4534 50.3788 97.596C50.0911 98.7792 49.8034 99.7705 49.6116 100.154C49.1321 102.105 47.9812 104.312 46.8304 106.55C45.296 109.46 43.7296 112.466 43.5059 115.216C43.5059 115.248 43.5058 115.28 43.4739 115.28C43.4419 115.312 43.378 115.312 43.346 115.248C40.9165 111.827 38.7427 108.213 36.7928 104.407C34.9067 100.73 33.2764 96.8605 31.9018 92.7991L31.9018 92.7672C31.9018 92.7032 31.9337 92.6712 31.9977 92.6712C32.0296 92.6712 32.0936 92.6712 32.1255 92.6712L32.2534 92.6392C34.0436 91.5839 34.8428 89.6972 35.6739 87.8104C36.4731 85.9876 37.2403 84.1329 38.9346 82.9496C38.9665 82.9177 39.0304 82.8537 39.0624 82.8217C39.0624 82.8217 39.0944 82.8217 39.0944 82.7897L39.5419 82.374C39.6059 81.7664 39.5739 81.4147 39.4141 81.2548C39.2862 81.0949 39.0624 81.1588 38.7427 81.3187C38.3911 81.5106 37.9755 81.8943 37.56 82.3421C35.7059 84.2928 33.2764 88.0023 33.1805 88.8977C33.1805 88.9297 33.1805 88.9297 33.1485 88.9617C32.9567 89.1855 32.669 89.5053 32.3813 89.921C32.0936 90.3048 31.7739 90.7525 31.5182 91.2002C31.5182 91.2322 31.4862 91.2322 31.4542 91.2322C31.4223 91.2322 31.3583 91.2322 31.3264 91.1682C30.5272 88.6419 29.8239 86.0516 29.2165 83.3974C28.6091 80.7431 28.1296 78.0249 27.778 75.2427C27.2026 74.7311 26.851 74.6671 26.6911 74.859C26.1477 75.4666 26.851 78.4726 27.3624 80.5512C27.5542 81.3827 27.7141 82.0542 27.778 82.406C28.0018 83.7811 28.2255 85.1242 28.5132 86.4673C28.801 87.8104 29.0887 89.1216 29.4403 90.4327C29.4403 90.4647 29.4403 90.4647 29.4403 90.4967C29.4083 90.5286 29.3764 90.5606 29.3124 90.5286C28.2575 89.985 26.7231 89.4733 25.3165 88.9936C23.7501 88.482 22.3116 88.0023 21.8321 87.5866C21.2567 87.7145 20.9051 87.8744 20.7133 88.0343C20.5215 88.2581 20.5854 88.514 20.8411 88.7698C21.1288 89.0896 21.6403 89.4094 22.2797 89.7611C24.7092 91.0403 28.9288 92.3514 29.8239 92.5753L29.9518 92.5113C29.9518 92.5113 29.9518 92.5113 29.9837 92.5113C30.0157 92.5113 30.0796 92.5113 30.0796 92.5753C31.2304 96.5407 32.637 100.314 34.3313 103.96C36.0575 107.701 38.0395 111.283 40.2452 114.673C40.2772 114.705 40.2772 114.737 40.2452 114.769C40.2132 114.801 40.1813 114.833 40.1173 114.801C34.7149 112.37 24.0379 109.076 17.7403 107.573C16.2698 107.222 15.0551 106.966 14.16 106.838C13.3288 106.71 12.8493 106.71 12.8174 106.806C12.8174 106.838 12.8174 106.838 12.8174 106.87L12.8174 106.902C12.7534 107.094 12.7534 107.318 12.8493 107.509C12.9133 107.701 13.0731 107.861 13.2649 107.957L13.2969 107.957C17.9961 109.332 22.6633 110.963 27.2985 112.562C32.1895 114.257 37.0805 115.952 42.0673 117.391C42.0993 117.391 42.0993 117.423 42.1313 117.423C44.4968 120.749 47.0542 123.915 49.8354 126.921C52.6804 129.991 55.7493 132.901 58.978 135.619C59.0099 135.651 59.0099 135.651 59.0099 135.683C59.0099 135.747 58.978 135.779 58.914 135.779C52.2968 135.523 45.4878 134.883 38.7427 134.244C31.678 133.476 24.6772 132.805 18.06 132.613ZM38.7427 133.956C31.4223 133.252 24.1337 132.549 17.2928 132.389C17.2608 132.389 17.1969 132.421 17.1969 132.453C17.1969 132.517 17.2288 132.549 17.2608 132.549C27.5542 135.235 39.3182 135.971 50.6345 136.674C54.1509 136.898 57.6034 137.122 60.9919 137.378C68.4402 143.326 76.7517 148.378 85.5107 152.504C94.7172 156.821 104.403 160.147 114.185 162.417C114.537 162.449 114.825 162.321 114.984 162.097C115.08 161.969 115.144 161.842 115.176 161.714C115.208 161.586 115.208 161.426 115.176 161.266C115.112 161.01 114.952 160.754 114.665 160.626L114.633 160.594C104.563 157.812 94.7492 154.199 85.5746 149.626C76.9435 145.34 68.8558 140.224 61.5993 134.276C61.9189 133.38 62.0468 132.229 62.1427 131.142C62.2386 130.086 62.3345 129.031 62.6542 128.264C63.9329 121.996 66.2345 115.984 68.5042 110.004C69.9747 106.134 71.4451 102.265 72.6599 98.3315L72.6599 98.2995C72.6279 97.9477 72.532 97.7559 72.4361 97.628C72.1165 97.3082 71.637 97.7559 71.0615 98.7472C70.4861 99.6746 69.8148 101.114 69.0476 102.872C65.5952 110.867 60.6402 125.897 59.5534 132.581C56.964 130.342 54.5345 128.008 52.2009 125.545C49.8993 123.115 47.7255 120.557 45.6796 117.903C45.8075 117.487 45.8394 117.039 45.8714 116.623L45.9034 116.4C46.2231 112.626 47.6935 109.14 49.164 105.655C50.4427 102.649 51.7214 99.6106 52.2329 96.3808C52.4567 95.5813 52.7124 94.7818 53.0001 93.9824C53.096 93.6626 53.2239 93.3428 53.3198 93.055C53.3198 93.023 53.3198 93.023 53.3198 92.991C53.0321 92.2555 52.7124 92.0316 52.3927 92.1596C51.5935 92.4793 50.8903 95.2295 50.3468 97.4041C50.0591 98.5873 49.7714 99.5787 49.5796 99.9304L49.5796 99.9624C49.1001 101.913 47.9813 104.088 46.7985 106.326C45.296 109.172 43.7616 112.114 43.4739 114.801C41.1083 111.443 38.9665 107.893 37.0804 104.184C35.2264 100.538 33.596 96.7006 32.2214 92.7032L32.2534 92.7032C32.3173 92.7032 32.3493 92.7032 32.4132 92.6712L32.4452 92.6712C34.2993 91.5839 35.1305 89.6652 35.9616 87.7465C36.7288 85.9557 37.528 84.1009 39.1583 82.9496L39.1903 82.9177C39.3501 82.7578 39.5419 82.5659 39.7018 82.406L39.7657 82.3421C39.7977 82.3421 39.7977 82.3101 39.7977 82.2781C39.8936 81.6065 39.8296 81.1908 39.6378 80.9989C39.446 80.7751 39.1263 80.8071 38.7427 81.0309C38.3911 81.2548 37.9755 81.6065 37.496 82.0862C35.6419 84.0369 33.2124 87.7465 33.0846 88.7058C32.8928 88.9297 32.605 89.2495 32.3173 89.6332C32.0616 89.985 31.7739 90.3687 31.5501 90.7525C30.7829 88.2901 30.0796 85.7957 29.5042 83.2055C28.8969 80.5512 28.4173 77.833 28.0657 75.0509C28.0657 75.0189 28.0657 75.0189 28.0337 74.9869C27.3305 74.3793 26.9149 74.3153 26.6592 74.5712C26.0518 75.2427 26.787 78.3127 27.2985 80.4233C27.4903 81.2228 27.6501 81.8943 27.6821 82.2781C27.9059 83.6532 28.1616 84.9963 28.4173 86.3394C28.6731 87.6186 28.9928 88.8657 29.3124 90.1129C28.2575 89.6013 26.819 89.1216 25.4444 88.6739C23.878 88.1622 22.4395 87.6825 21.9919 87.2668C21.96 87.2348 21.928 87.2348 21.8961 87.2348C21.2567 87.3627 20.8411 87.5546 20.6493 87.7465C20.3616 88.0343 20.4256 88.3861 20.7772 88.7378C21.0969 89.0576 21.6083 89.4094 22.2797 89.7611C24.7411 91.0723 29.0567 92.4154 29.8878 92.6073C29.9198 92.6073 29.9198 92.6073 29.9518 92.6073L30.0157 92.5753C31.1665 96.5087 32.5731 100.25 34.2354 103.864C35.9296 107.509 37.8477 111.027 39.9895 114.353C34.4911 111.922 24.0698 108.725 17.8682 107.222C16.3977 106.87 15.151 106.614 14.2879 106.486C13.3608 106.358 12.8174 106.39 12.7534 106.614C12.7534 106.646 12.7534 106.646 12.7534 106.678L12.7534 106.71C12.6575 106.934 12.6895 107.222 12.7854 107.445C12.8813 107.669 13.0731 107.893 13.2969 107.989L13.3608 108.021C18.092 109.396 22.7272 111.027 27.3624 112.626C32.2534 114.321 37.1444 116.016 42.1313 117.455C44.4968 120.781 47.0542 123.947 49.8354 126.921C52.6165 129.927 55.6214 132.773 58.7862 135.459C52.105 135.235 45.3919 134.596 38.7427 133.956Z" fill="black"/>
<path fill-rule="evenodd" clip-rule="evenodd" d="M32.2208 92.6712C32.2529 92.6712 32.2529 92.6391 32.2529 92.6391C32.285 92.6391 32.3171 92.6391 32.3813 92.6391L32.2208 92.6712Z" fill="#643D52"/>
<path fill-rule="evenodd" clip-rule="evenodd" d="M38.9985 82.8526L38.9653 82.8857C38.9985 82.8857 38.9985 82.8858 38.9985 82.8526Z" fill="#643D52"/>
<path fill-rule="evenodd" clip-rule="evenodd" d="M917.536 77.077C899.129 76.7692 891.568 100.299 895.332 115.484C879.867 94.7245 867.516 118.631 870.767 135.423L870.596 135.184C841.206 106.49 858.347 170.753 871.075 176.669C876.412 182.552 883.083 188.982 891.363 189.597C898.103 189.118 907.204 183.544 906.246 176.088C922.805 177.319 936.046 168.53 924.447 152.011C950.073 143.324 946.173 117.707 924.96 128.481C929.613 116.75 935.738 103.89 931.324 91.1677C929.305 85.0116 925.645 76.4614 917.536 77.077Z" fill="#9FC51B"/>
<path fill-rule="evenodd" clip-rule="evenodd" d="M934.54 128.002C924.311 128.275 923.797 140.451 918.152 146.197C905.254 150.437 907.101 153.208 910.899 164.391C905.836 169.043 897.522 167.093 891.911 171.437C872.546 181.081 884.076 197.84 901.833 189.05C911.686 182.449 904.399 177.319 919.521 178.619C929.922 176.156 930.435 164.357 927.595 156.012C932.248 150.472 939.638 147.017 942.307 139.767C945.112 133.269 942.307 126.736 934.54 128.002Z" fill="#00B3EA"/>
<path fill-rule="evenodd" clip-rule="evenodd" d="M891.808 96.5373L891.842 96.4347L891.808 96.5373ZM859.784 130.601C859.853 130.533 859.921 130.464 860.024 130.362C859.955 130.464 859.853 130.533 859.784 130.601ZM901.456 133.029C901.456 132.995 901.49 132.995 901.49 132.961C901.49 132.961 901.456 132.995 901.456 133.029ZM873.23 175.883C873.264 175.849 873.264 175.849 873.299 175.814C873.264 175.849 873.23 175.883 873.23 175.883ZM872.58 176.533C872.614 176.498 872.683 176.43 872.717 176.396C872.683 176.464 872.648 176.498 872.58 176.533ZM900.566 137.441C900.532 137.476 900.532 137.51 900.498 137.544C900.532 137.51 900.566 137.476 900.566 137.441ZM902.585 131.046C902.585 131.08 902.551 131.114 902.551 131.114C902.551 131.08 902.551 131.046 902.585 131.046ZM902.619 130.977C902.619 131.012 902.585 131.012 902.585 131.046C902.585 131.012 902.585 130.977 902.619 130.977ZM915.244 98.8971C916.852 97.8027 915.141 101.907 915.073 102.728C915.073 102.693 915.107 102.659 915.107 102.625C912.746 114.356 907.375 125.232 901.593 135.629C901.627 135.56 901.661 135.526 901.695 135.458C901.353 136.107 900.977 136.723 900.635 137.373C900.635 137.373 900.635 137.373 900.635 137.339C893.382 151.361 883.939 164.152 873.299 175.814C873.367 175.78 873.401 175.712 873.47 175.643C873.367 175.746 873.264 175.883 873.127 175.985C873.162 175.951 873.162 175.951 873.196 175.917C873.059 176.088 872.888 176.225 872.751 176.396C872.751 176.396 872.751 176.396 872.785 176.362C865.532 182.655 857.321 191.513 848.939 194.864C851.813 189.187 860.742 185.972 865.361 180.808C877.712 169.932 887.736 156.388 896.187 142.332L896.084 142.503C897.898 139.254 899.711 136.005 901.593 132.824C901.559 132.858 901.559 132.893 901.559 132.893C906.314 124.171 911.036 115.245 913.533 105.6L913.499 105.737C913.636 105.258 913.739 104.745 913.875 104.267C913.875 104.267 913.875 104.267 913.875 104.301C914.217 102.864 914.696 101.462 915.039 100.06C915.073 99.6838 915.175 99.3075 915.244 98.8971ZM859.682 130.738C859.716 130.704 859.75 130.67 859.784 130.635C859.75 130.67 859.716 130.704 859.682 130.738ZM859.545 130.875C859.579 130.841 859.613 130.806 859.682 130.738C859.613 130.772 859.579 130.806 859.545 130.875ZM892.253 188.606C892.184 188.606 892.116 188.606 892.047 188.606C892.15 188.606 892.184 188.606 892.253 188.606ZM884.281 187.785C884.349 187.819 884.418 187.819 884.486 187.853C884.384 187.819 884.315 187.819 884.281 187.785ZM900.566 186.109C900.532 186.109 900.498 186.143 900.464 186.177C900.498 186.143 900.532 186.109 900.566 186.109ZM927.595 162.51C927.595 162.545 927.595 162.579 927.595 162.613C927.595 162.579 927.595 162.545 927.595 162.51ZM926.021 156.696C926.055 156.73 926.055 156.765 926.089 156.799C926.055 156.765 926.055 156.73 926.021 156.696ZM925.782 156.286C925.816 156.32 925.816 156.354 925.85 156.388C925.816 156.354 925.816 156.32 925.782 156.286ZM857.834 146.06C857.834 146.094 857.834 146.128 857.834 146.162C857.834 146.128 857.834 146.094 857.834 146.06ZM876.378 143.666C876.343 143.666 876.343 143.666 876.309 143.666C876.343 143.7 876.378 143.7 876.378 143.666ZM858.45 138.057C858.45 138.091 858.45 138.125 858.416 138.16C858.45 138.125 858.45 138.091 858.45 138.057ZM872.443 133.029C873.299 136.586 873.88 140.519 876.446 143.324C876.822 139.493 874.975 135.765 872.443 133.029ZM946.754 130.02C946.754 130.054 946.754 130.088 946.754 130.157C946.754 130.122 946.754 130.054 946.754 130.02ZM936.935 121.812C936.901 121.812 936.867 121.846 936.832 121.846L936.935 121.812ZM895.64 118.118L895.606 118.152C895.606 118.152 895.606 118.118 895.64 118.118ZM895.229 118.084C895.263 118.084 895.332 118.118 895.366 118.118C895.332 118.118 895.298 118.084 895.229 118.084ZM895.195 118.015C895.229 118.05 895.263 118.05 895.298 118.05C895.229 118.05 895.195 118.015 895.195 118.015ZM893.621 114.424C896.563 123.453 896.563 113.159 893.279 110.491C893.313 111.791 893.416 113.125 893.621 114.424ZM885.615 105.84C885.547 105.84 885.478 105.84 885.444 105.84C885.478 105.84 885.547 105.84 885.615 105.84ZM893.176 104.164C893.176 104.198 893.176 104.232 893.176 104.267C893.176 104.232 893.176 104.198 893.176 104.164ZM935.806 94.0406C935.806 94.0748 935.84 94.1432 935.84 94.1774C935.84 94.109 935.84 94.0748 935.806 94.0406ZM933.343 88.0555C933.377 88.1239 933.411 88.1923 933.445 88.2607C933.411 88.1923 933.377 88.1239 933.343 88.0555ZM901.08 86.0719C901.011 86.1403 900.943 86.2087 900.874 86.2771L901.08 86.0719ZM907.854 80.7366C907.82 80.7708 907.785 80.7708 907.751 80.805C907.785 80.7708 907.82 80.7366 907.854 80.7366ZM917.365 77.5901C917.262 77.5901 917.194 77.5901 917.091 77.5901C917.16 77.5901 917.262 77.5901 917.365 77.5901ZM916.031 75.1618C905.151 76.7693 895.195 85.9351 891.876 96.2979C891.876 96.2979 891.876 96.2979 891.876 96.2637C891.876 96.3321 891.842 96.4005 891.842 96.4689V96.4005C891.124 99.3417 891.021 102.42 891.158 105.429C877.541 97.7343 866.695 115.587 869.056 127.865C855.576 124.855 853.729 144.281 857.184 153.379C856.774 157.62 868.919 173.249 862.487 162.203L862.556 162.339C859.476 157.243 858.074 151.19 857.834 145.273V145.307C857.116 138.878 860.982 126.907 869.33 130.806C872.58 157.243 888.181 143.529 871.862 129.267C868.919 118.221 878.602 99.1023 891.226 108.268C890.268 127.044 905.014 120.512 893.245 107.447C891.774 96.2295 898.445 86.3113 907.888 80.7708C932.966 67.0563 942.751 102.796 932.145 120.512C931.393 125.847 938.543 120.204 941.28 121.709C945.933 123.453 947.61 129.165 946.378 133.645C943.333 144.589 931.495 147.804 922.36 151.703C921.744 152.49 922.189 153.687 923.079 154.029C934.54 162.305 923.284 180.363 910.694 179.029C910.83 179.029 910.933 179.029 911.07 179.029C898.787 177.354 908.47 182.107 900.738 186.075C895.024 189.358 887.908 189.324 881.852 187.101C881.202 186.861 880.449 187.169 880.21 187.819C884.213 194.898 906.691 191.478 907.101 181.697C922.668 184.946 938.03 165.862 926.261 152.968C953.255 147.223 957.395 115.382 935.224 119.76C943.641 103.309 938.543 74.2042 916.031 75.1618Z" fill="black"/>
<path fill-rule="evenodd" clip-rule="evenodd" d="M890.371 96.332C890.371 96.2636 890.405 96.2294 890.405 96.161L890.439 96.0926L890.474 95.9558C890.508 95.8532 890.542 95.7506 890.576 95.648C892.355 90.2101 895.914 85.08 900.395 81.1469C904.809 77.2822 910.215 74.512 915.86 73.6912C915.894 73.6912 915.962 73.6912 915.997 73.6912C920.308 73.5201 924.003 74.3752 927.15 75.9826C931.495 78.2056 934.745 81.8993 936.935 86.3454C939.091 90.6889 940.254 95.7848 940.459 100.949C940.699 106.797 939.741 112.748 937.654 117.844C942.786 117.434 946.412 119.075 948.602 121.88C949.936 123.624 950.723 125.779 950.894 128.139C951.065 130.43 950.723 132.927 949.834 135.492C947.268 142.879 940.151 150.574 928.827 153.721C930.777 156.491 931.735 159.432 931.872 162.374C932.043 166.101 930.914 169.761 928.895 172.976C926.876 176.156 924.003 178.892 920.65 180.739C916.955 182.757 912.712 183.783 908.333 183.236C907.649 185.972 905.527 188.161 902.688 189.768C900.738 190.863 898.445 191.718 896.05 192.231C893.69 192.744 891.226 192.983 888.934 192.881C884.521 192.71 880.689 191.307 879.012 188.503C878.773 188.127 878.67 187.648 878.875 187.169C879.149 186.451 879.696 185.938 880.346 185.664C880.928 185.425 881.612 185.391 882.262 185.596C882.297 185.596 882.331 185.63 882.365 185.63C885.342 186.724 888.592 187.272 891.739 187.101C894.648 186.93 897.487 186.211 900.019 184.741L900.088 184.707C902.722 183.339 902.722 181.936 902.756 180.876C902.79 178.037 902.79 176.362 911.275 177.524C911.344 177.524 911.446 177.559 911.515 177.593C914.868 177.764 918.084 176.396 920.684 174.207C922.668 172.565 924.242 170.445 925.268 168.188C925.953 166.614 926.363 164.973 926.432 163.365C926.295 163.16 926.226 162.921 926.226 162.681V162.51C926.226 162.271 926.295 162.032 926.397 161.861C926.363 161.724 926.363 161.553 926.329 161.416C925.953 159.124 924.721 156.97 922.429 155.26C922.223 155.157 922.018 155.055 921.847 154.884C921.368 154.507 920.992 153.96 920.821 153.379C920.65 152.797 920.615 152.113 920.855 151.498C920.958 151.224 921.094 150.985 921.3 150.745C921.437 150.574 921.642 150.403 921.881 150.301C923.113 149.788 924.413 149.24 925.747 148.727C933.788 145.513 942.615 141.956 945.078 133.2C945.352 132.277 945.454 131.285 945.42 130.293C945.42 130.259 945.42 130.191 945.42 130.156C945.352 128.994 945.112 127.865 944.667 126.839C943.949 125.129 942.717 123.727 940.938 123.043C940.87 123.009 940.767 122.974 940.699 122.94C940.117 122.632 938.577 123.077 937.14 123.522C935.703 123.966 934.335 124.377 933.172 124.206C931.461 123.966 930.469 122.906 930.811 120.238C930.845 120.067 930.914 119.862 931.016 119.691C934.882 113.193 935.909 104.13 934.301 96.1268C933.48 91.9543 931.906 88.0896 929.716 85.08C927.561 82.1729 924.789 80.0867 921.402 79.3685C917.878 78.5819 913.636 79.2659 908.709 81.9335H908.675C908.641 81.9335 908.641 81.9677 908.572 82.0019C906.349 83.3357 904.296 84.909 902.482 86.6874C902.448 86.79 902.38 86.8926 902.311 86.961C902.243 87.0636 902.14 87.132 902.072 87.2346L902.038 87.2688C901.935 87.3714 901.798 87.474 901.661 87.5424C900.053 89.2525 898.651 91.1677 897.522 93.1855C895.811 96.332 894.75 99.8205 894.613 103.514C894.716 103.719 894.75 103.925 894.75 104.164C894.75 104.232 894.75 104.198 894.75 104.164V104.232C894.75 104.472 894.682 104.677 894.613 104.882C894.648 105.498 894.682 106.113 894.75 106.729C898.685 111.244 899.711 115.142 899.301 117.639C899.027 119.417 898.069 120.615 896.837 121.093C895.537 121.572 894.066 121.299 892.766 119.999C891.089 118.357 889.687 114.835 889.858 108.918C888.387 107.96 887.018 107.447 885.718 107.276H885.684C885.513 107.276 885.615 107.276 885.547 107.276C885.41 107.276 885.273 107.242 885.136 107.208C885.034 107.208 884.897 107.208 884.794 107.208C882.605 107.208 880.62 108.165 878.91 109.739C877.096 111.415 875.625 113.74 874.599 116.339C872.991 120.272 872.443 124.787 873.264 128.378C879.012 133.542 880.894 138.707 880.723 142.161C880.62 144.247 879.799 145.82 878.567 146.607C877.199 147.462 875.454 147.394 873.778 145.991C871.554 144.179 869.227 139.767 868.132 131.73C867.311 131.456 866.559 131.354 865.84 131.422C864.848 131.525 863.924 132.003 863.171 132.756C862.316 133.542 861.598 134.637 861.016 135.868C859.647 138.775 859.1 142.4 859.408 145.034C859.408 145.102 859.408 145.136 859.408 145.205V145.273C859.545 148.214 859.955 151.19 860.742 154.063C861.461 156.628 862.453 159.09 863.787 161.347L863.89 161.519C863.924 161.553 863.924 161.587 863.958 161.621C865.053 163.502 865.601 164.665 865.806 165.246C867.072 169.248 865.874 169.453 863.103 166.854C862.727 166.512 862.145 165.828 861.495 164.939C859.271 161.963 855.918 156.388 855.816 153.55C854.242 149.206 853.797 142.811 854.994 137.373C855.542 134.979 856.397 132.756 857.595 130.909C858.895 128.994 860.571 127.489 862.692 126.702C864.095 126.189 865.669 125.95 867.414 126.087C867.003 121.299 868.303 115.963 870.767 111.586C872.067 109.26 873.709 107.208 875.625 105.6C877.575 103.959 879.833 102.796 882.262 102.317C884.623 101.873 887.121 102.078 889.721 103.104C889.721 102.317 889.755 101.565 889.789 100.778C889.824 99.3075 890.029 97.8026 890.371 96.332ZM900.19 132.277C899.301 133.816 898.377 135.389 897.487 136.962C896.632 138.467 895.742 140.075 894.819 141.716C890.61 148.659 886.06 155.499 881.031 161.895C875.967 168.324 870.459 174.378 864.335 179.747C864.266 179.782 864.232 179.85 864.198 179.884C862.35 181.936 859.682 183.749 857.047 185.493C853.215 188.058 849.418 190.623 847.604 194.214C847.228 194.933 847.536 195.788 848.255 196.164C848.665 196.369 849.144 196.369 849.52 196.164C856.192 193.462 862.624 187.545 868.577 182.073C870.219 180.568 871.827 179.063 873.333 177.764C873.435 177.695 873.538 177.627 873.606 177.559L873.709 177.456C873.743 177.422 873.778 177.388 873.846 177.319C873.949 177.217 874.085 177.08 874.188 176.977L874.257 176.909C874.291 176.875 874.325 176.84 874.325 176.806C874.393 176.738 874.428 176.704 874.496 176.635C874.53 176.601 874.599 176.533 874.633 176.498C879.902 170.718 884.863 164.665 889.413 158.304C894.032 151.84 898.24 145.102 901.901 138.023L902.414 137.133L902.448 137.065L902.79 136.415C902.825 136.381 902.859 136.313 902.859 136.278C902.893 136.21 902.927 136.142 902.961 136.107C905.835 130.943 908.607 125.642 910.933 120.204C913.294 114.698 915.244 109.02 916.476 103.104C916.476 103.07 916.51 103.035 916.51 103.001C916.51 102.967 916.544 102.933 916.544 102.899C916.544 102.864 916.544 102.83 916.544 102.796C916.578 102.625 916.681 102.317 916.784 101.941C917.194 100.607 917.673 98.9313 917.057 98.0079C916.441 97.1186 915.62 96.9134 914.423 97.7342C914.115 97.9394 913.91 98.2815 913.841 98.6235L913.704 99.2049C913.67 99.3417 913.636 99.5127 913.568 99.7521L913.533 99.8205C913.396 100.368 913.225 100.983 913.02 101.599C912.781 102.386 912.541 103.206 912.37 103.993V104.027C912.233 104.574 912.199 104.711 912.165 104.882C911.959 105.635 912.302 104.369 912.028 105.429C912.028 105.464 911.994 105.498 911.994 105.566C910.762 110.217 909.017 114.698 906.999 119.075C904.912 123.556 902.585 127.933 900.224 132.209L900.19 132.277ZM871.041 132.619C871.177 132.14 871.588 131.73 872.101 131.593C872.135 131.593 872.204 131.559 872.238 131.559C871.793 131.148 871.348 130.704 870.869 130.293C870.63 130.088 870.493 129.849 870.425 129.575C870.356 129.267 870.288 128.959 870.219 128.652C870.048 128.925 869.775 129.13 869.432 129.233C869.604 129.301 869.775 129.37 869.911 129.438C870.39 129.643 870.664 130.088 870.733 130.567C870.835 131.285 870.938 131.969 871.041 132.619ZM892.629 109.191C892.697 109.157 892.766 109.123 892.834 109.089L892.629 108.849V109.191ZM933.89 120.307C933.788 120.512 933.651 120.717 933.548 120.957C933.48 121.23 933.445 121.333 933.48 121.333C933.822 121.367 934.335 121.264 934.951 121.093C934.472 121.025 934.095 120.717 933.89 120.307ZM945.352 122.701C946.138 123.556 946.789 124.582 947.233 125.676C947.541 126.394 947.781 127.147 947.918 127.899C947.712 126.292 947.165 124.855 946.275 123.693C946.002 123.316 945.694 123.009 945.352 122.701ZM938.646 145.752C935.327 147.907 931.564 149.514 927.869 150.985C932.111 149.822 935.703 147.975 938.646 145.752ZM924.961 152.148C924.516 152.319 924.105 152.49 923.66 152.695C923.763 152.729 923.831 152.797 923.9 152.832C924.276 153.105 924.653 153.413 924.995 153.721C924.721 153.242 924.687 152.626 924.961 152.148ZM911.515 180.5C911.207 180.5 910.865 180.466 910.557 180.431C910.386 180.431 910.249 180.363 910.112 180.329C905.664 179.747 905.664 180.226 905.664 180.945C905.664 181.184 905.664 181.423 905.664 181.697V181.56C905.698 180.773 906.383 180.124 907.17 180.158C907.238 180.158 907.341 180.158 907.409 180.192C908.743 180.466 910.146 180.568 911.515 180.5ZM889.652 190.042C888.318 190.008 886.984 189.837 885.684 189.597C886.676 189.837 887.805 189.973 889.002 190.042C889.208 190.008 889.413 190.042 889.652 190.042Z" fill="black"/>
<path fill-rule="evenodd" clip-rule="evenodd" d="M190.103 145.431C184.212 144.882 179.201 142.618 175.283 138.389C170.839 133.599 168.123 126.464 167.429 116.791C166.745 107.029 168.341 99.1676 172.095 93.4667C176.236 87.1745 182.557 83.636 190.853 83.0546C199.104 82.4681 205.803 85.0653 210.742 90.6855C215.239 95.7998 217.908 103.338 218.637 113.106C219.312 122.55 217.42 129.831 213.753 135.178C210.03 140.61 204.748 143.814 198.608 145.01C205.959 143.955 211.513 141.146 215.082 136.651C219.332 131.371 221.213 123.407 220.428 112.951C219.659 102.36 216.553 94.2705 211.418 89.1729C206.565 84.381 199.605 82.0717 190.76 82.6802C181.91 83.3335 175.257 86.606 171.08 92.0304C166.688 97.7479 164.76 106.116 165.5 116.567C166.216 126.833 169.284 134.464 174.322 139.232C178.297 142.967 183.603 145.039 190.103 145.431ZM184.702 129.71C182.237 127.059 180.72 122.519 180.22 115.869C179.706 108.944 180.625 103.778 182.836 100.398C184.605 97.6941 187.516 96.1231 191.422 95.7589C191.696 95.7453 191.971 95.7317 192.2 95.7129C196.086 95.5282 199.137 96.6557 201.225 99.035C203.793 101.97 205.409 106.841 205.948 113.541C205.962 113.815 205.97 114.134 206.029 114.414C206.406 120.549 205.342 125.017 203.317 127.964C201.342 130.871 198.163 132.411 194.496 132.667C190.226 133.034 186.885 132.055 184.702 129.71ZM225.16 144.596C218.726 152.622 208.969 157.17 196.312 158.108C183.611 159.041 173.226 155.698 165.653 148.498C158.283 141.504 153.862 131.035 152.894 117.466C151.931 103.852 154.791 92.5463 161.116 84.2803C167.546 75.8902 177.316 70.8432 190.012 69.9551C202.713 69.0221 213.067 72.6351 220.564 80.0984C222.966 82.5142 225.101 85.2628 226.826 88.4182C227.495 88.1324 228.199 87.9414 228.933 87.8903L278.305 84.3555C279.497 84.2668 280.648 84.5369 281.677 85.0658C282.618 84.4023 283.712 83.984 284.95 83.9005L322.723 81.1996C324.05 81.1265 325.29 81.4071 326.354 82.0308C327.306 81.2776 328.545 80.7852 329.877 80.6673L343.491 79.704C347.018 79.4776 350.076 82.1061 350.303 85.6329L351.072 96.2238L358.201 81.8232C359.158 79.8433 361.14 78.4371 363.475 78.2993L377.822 77.2849C378.969 77.191 380.075 77.4559 381.065 77.9346C381.956 77.3108 383.045 76.9373 384.192 76.8434L397.716 75.8697C401.243 75.6432 404.302 78.2718 404.528 81.7986L405.685 97.6624C405.784 98.765 405.776 99.2188 405.776 99.2188C406.159 99.4451 407.336 99.491 409.032 99.3699C410.773 99.2541 412.44 98.9932 413.988 98.5822L412.7 81.1119C412.474 77.5851 415.102 74.5266 418.629 74.3001L432.153 73.3264C433.48 73.2533 434.765 73.5391 435.824 74.2077C436.825 73.4149 438.02 72.9173 439.397 72.8046L452.921 71.8309C456.447 71.6044 459.506 74.233 459.733 77.7598L460.696 91.3736L469.037 90.7975L468.079 77.1388C467.852 73.612 470.481 70.5535 474.007 70.327L487.532 69.3533C491.058 69.1268 494.117 71.7554 494.343 75.2822L494.389 76.0604C494.876 75.3896 495.448 74.7742 496.025 74.1138C500.472 69.4937 507.408 66.5268 517.495 65.79C527.627 65.0584 534.848 67.0797 539.887 71.4388C541.416 72.7531 542.735 74.3156 543.814 75.9867C544.745 74.2311 545.885 72.6361 547.234 71.2017C551.32 66.9488 557.207 64.4054 564.461 63.7939C564.785 63.7407 565.105 63.7323 565.424 63.724L593.48 61.7119C597.006 61.4854 600.065 64.1139 600.291 67.6407L604.026 119.991C604.252 123.518 601.623 126.576 598.097 126.803L584.573 127.777C581.046 128.003 577.987 125.374 577.761 121.848L576.978 110.982L568.784 125.941C567.752 127.776 565.87 129.103 563.626 129.251L549.642 130.262C548.719 130.382 547.777 130.273 546.901 129.989C546.176 130.36 545.332 130.58 544.459 130.66L531.579 131.572C530.202 131.685 528.837 131.299 527.694 130.575C527.209 130.837 526.679 131.094 526.194 131.355C522.97 132.89 519.175 133.858 514.999 134.191C507.621 134.697 501.839 133.207 497.601 130.168C496.781 132.528 494.623 134.277 492.009 134.473L478.485 135.447C474.958 135.674 471.899 133.045 471.673 129.518L470.597 114.528L462.256 115.104L463.327 130.139C463.553 133.666 460.925 136.725 457.398 136.951L443.874 137.925C442.547 137.998 441.262 137.712 440.203 137.043C439.202 137.836 438.007 138.334 436.63 138.447L423.106 139.42C419.579 139.647 416.521 137.018 416.294 133.491L415.415 121.115L415.32 121.149C412.419 121.858 409.18 122.345 405.833 122.592C398.774 123.09 392.729 122.296 387.87 118.731C387.537 118.465 387.204 118.199 386.871 117.933L388.144 135.538C388.37 139.065 385.742 142.123 382.215 142.35L368.691 143.323C365.164 143.55 362.105 140.921 361.879 137.395L360.999 125.018L352.894 141.169C351.931 143.194 349.938 144.69 347.559 144.822L334.264 145.777C332.938 145.85 331.697 145.57 330.633 144.946C329.682 145.699 328.443 146.191 327.111 146.309L313.587 147.283C310.06 147.509 307.001 144.881 306.775 141.354L304.284 106.469L302.313 106.604L302.376 109.975L302.371 110.02C302.579 125.046 301.196 134.205 297.466 140.09C293.062 147.079 286.633 149.196 277.095 149.906L274.985 150.069C272.925 150.194 271.019 149.381 269.779 147.919C268.729 149.524 266.963 150.637 264.898 150.806L251.374 151.78C247.847 152.006 244.788 149.378 244.562 145.851L242.221 110.847L233.236 111.485L233.264 112.033C234.296 125.837 231.438 136.734 225.16 144.596ZM257.789 138.433L255.304 103.503C255.153 101.667 255.855 99.9302 257.049 98.6596L252.145 98.9988C253.521 100.068 254.42 101.718 254.57 103.554L257.061 138.439L257.789 138.433ZM268.486 108.99L269.812 127.693C270.819 126.855 272.063 126.318 273.485 126.21L274.862 126.097C276.468 125.966 277.442 125.806 277.723 125.339C278.836 123.195 279.278 118.61 279.177 110.097L279.166 108.232L268.486 108.99ZM319.997 133.981L317.146 94.3713L314.302 94.5863C315.678 95.6555 316.578 97.3056 316.728 99.1415L319.219 134.027L319.997 133.981ZM343.194 132.313L346.096 126.513C345.188 126.499 344.307 126.26 343.446 125.842C341.213 124.718 339.883 122.472 339.88 120.153L337.914 92.8758L337.04 92.9561L339.892 132.566L343.194 132.313ZM365.854 94.9872C366.811 94.9621 367.827 95.2166 368.778 95.6453C370.882 96.7081 372.148 98.7192 372.302 100.919L374.413 130.078L375.191 130.032L372.34 90.4222L367.985 90.7343L365.854 94.9872ZM429.517 126.118L426.666 86.5086L425.888 86.5545L427.02 102.234C427.16 104.159 426.402 105.981 425.119 107.241C425.959 107.838 426.633 108.69 427.112 109.655C427.437 110.374 427.663 111.173 427.714 111.907L428.739 126.164L429.517 126.118ZM398.394 109.544C395.159 107.259 393.247 103.763 392.865 98.4452L392.195 88.957L391.416 89.0029L392.105 98.7206C392.492 103.994 393.694 106.952 395.577 108.353C396.327 108.94 397.283 109.324 398.394 109.544ZM450.24 124.617L449.169 109.582C448.986 107.242 450.094 105.143 451.876 103.896C449.946 102.898 448.534 100.961 448.352 98.6217L447.388 85.0079L446.61 85.0538L449.461 124.663L450.24 124.617ZM479.472 101.921C481.402 102.918 482.814 104.855 482.996 107.195L484.072 122.186L484.85 122.14L481.999 82.5303L481.221 82.5762L482.179 96.2349C482.362 98.5746 481.249 100.718 479.472 101.921ZM535.114 105.07C535.301 108.547 534.456 111.904 532.751 114.842C533.184 115.029 533.606 115.306 534.023 115.627C535.022 116.425 535.68 117.411 536.098 118.505L537.335 118.421L535.396 91.6923C535.057 86.7886 533.883 83.1971 531.53 81.1506C531.327 80.9451 531.073 80.7792 530.82 80.6134C532.481 82.3522 533.453 84.5563 533.644 87.2152C533.859 90.0588 533.413 92.3255 532.042 94.3482C532.25 94.5088 532.459 94.6695 532.668 94.8301C534.028 96.0338 534.748 97.6632 534.874 99.3144L535.114 105.07ZM516.566 111.325C518.128 111.188 519.507 110.666 520.519 109.784C518.591 110.333 517.262 110.814 516.521 111.319L516.566 111.325ZM515.728 111.5C515.648 111.4 515.604 111.395 515.728 111.5V111.5ZM506.929 120.706C504.929 118.746 503.736 116.107 503.534 112.765C503.332 110.195 503.683 107.963 504.645 105.938C503.046 107.571 502.25 110.115 502.544 114.241C502.721 116.625 503.544 118.539 505.05 119.669C505.546 120.09 506.188 120.438 506.929 120.706ZM549.192 105.98L549.518 110.609L551.379 107.507C550.613 107.054 549.858 106.511 549.192 105.98ZM505.226 82.9571L505.125 83.0364C504.504 83.6915 503.961 84.4468 503.588 85.3126L503.957 85.2646C504.325 84.4436 504.733 83.6728 505.226 82.9571ZM590.883 114.554L588.032 74.9441L585.877 75.1027C586.804 76.1197 587.421 77.4643 587.518 78.9758L588.508 93.1383C588.677 95.2037 587.77 97.1439 586.302 98.4281C587.952 99.4837 589.065 101.25 589.229 103.36L590.055 114.639L590.883 114.554ZM566.188 100.954C566.529 101.539 566.82 102.164 566.971 102.818L567.776 101.366C567.837 101.237 567.947 101.068 568.008 100.938C567.409 101.005 566.776 100.977 566.188 100.954ZM565.824 88.0465C566.078 88.2124 566.706 88.2854 567.758 88.2259L575.416 87.6613L575.308 86.2395L567.606 86.7989C566.553 86.8584 565.944 87.0149 565.739 87.2183C565.688 87.2579 565.823 87.2736 565.876 87.598C565.84 87.912 565.784 87.9965 565.824 88.0465Z" fill="black"/>
<path fill-rule="evenodd" clip-rule="evenodd" d="M189.066 129.717C176.824 130.612 169.174 123.677 167.982 106.945C166.791 90.2134 173.051 80.9397 185.523 80.0255C197.855 79.1405 205.298 87.4613 206.489 104.193C207.686 120.88 199.702 128.953 189.066 129.717ZM189.959 142.368C211.645 140.797 222.793 127.409 221.021 103.155C219.294 78.9051 206.227 65.3845 184.542 66.9552C162.856 68.5259 151.629 83.7684 153.347 107.699C155.082 131.494 168.274 143.939 189.959 142.368ZM258.734 134.997L245.21 135.971L242.233 94.7098L224.264 95.9851L223.457 84.9353L272.829 81.4005L273.636 92.4503L255.757 93.736L258.734 134.997ZM320.992 130.505L317.208 78.1944L279.434 80.8954L279.683 100.654C279.89 119.999 277.094 122.538 269.437 123.103L268.06 123.215L268.866 134.265L270.977 134.101C285.878 133.015 290.63 128.112 290.275 100.658L290.138 91.2772L304.485 90.2628L307.463 131.524L320.992 130.505ZM341.435 129.063L328.141 130.018L324.362 77.6622L337.976 76.6989L340.431 110.716L357.965 75.2493L372.312 74.2349L376.046 126.585L362.522 127.559L359.969 92.03L341.435 129.063ZM430.462 122.682L426.728 70.3317L413.204 71.3054L414.783 93.3101C411.917 94.8864 407.793 95.9526 403.577 96.2355C397.526 96.6686 393.878 95.1989 393.413 88.6439L392.251 72.825L378.727 73.7987L379.863 89.8419C380.915 104.648 388.39 107.608 399.664 106.827C405.715 106.394 411.388 104.917 415.427 103.023L416.893 123.65L430.462 122.682ZM451.229 121.186L437.705 122.16L433.971 69.8099L447.495 68.8362L448.945 88.8256L469.987 87.3165L468.537 67.3271L482.061 66.3534L485.795 118.704L472.271 119.677L470.754 98.3162L449.712 99.8253L451.229 121.186ZM522.887 96.0571C523.215 102.232 518.29 107.843 511.141 108.33C506.786 108.642 504.306 106.899 504.037 102.958C503.735 98.5133 506.112 96.0619 513.896 94.0118C518.915 92.6859 521.338 91.7856 522.602 90.2959L522.887 96.0571ZM538.241 114.935L535.86 81.8357C534.895 68.6308 528.617 61.6275 512.025 62.7901C495.204 63.9715 489.817 71.9829 490.376 82.822L503.256 81.9099C503.579 77.174 505.915 73.8996 512.151 73.4425C517.558 73.0709 521.125 74.8494 521.367 78.2416C521.628 81.8633 519.815 83.3801 512.966 84.8115C499.172 87.7087 489.207 90.1417 490.267 105.267C490.867 113.792 496.829 119.213 508.746 118.371C515.76 117.868 521.135 115.038 524.177 111.164C524.403 112.736 524.833 114.513 525.365 115.802L538.241 114.935ZM591.878 111.078L578.354 112.052L577.087 94.4019L567.504 95.1063L557.402 113.571L543.144 114.596L554.883 94.9576C547.191 93.4724 542.443 88.5563 541.83 79.7565C541.015 68.3875 547.796 61.6748 559.624 60.8221L588.094 58.7672L591.878 111.078ZM562.338 85.1864L576.366 84.1803L575.375 70.0178L561.347 71.0239C556.259 71.387 553.313 74.045 553.644 78.6296C553.959 83.3487 557.205 85.5443 562.338 85.1864Z" fill="black"/>
<path fill-rule="evenodd" clip-rule="evenodd" d="M179.758 119.452C181.657 121.491 184.65 122.339 188.546 122.064C191.849 121.812 194.638 120.5 196.391 117.93C198.255 115.192 199.249 110.943 198.851 104.987C198.827 104.802 198.803 104.618 198.823 104.438C198.308 97.9231 196.806 93.2478 194.441 90.518C192.636 88.4444 189.978 87.4535 186.552 87.6007C186.227 87.6539 185.953 87.6675 185.634 87.6758C182.141 87.9972 179.616 89.3857 178.073 91.7067C176.028 94.833 175.185 99.7358 175.685 106.386C176.082 112.751 177.496 117.007 179.758 119.452ZM191.123 149.959C190.753 150.007 190.339 150.049 189.93 150.047C177.11 150.83 166.595 147.426 158.898 140.121C151.404 133.022 146.86 122.447 145.807 108.822C145.759 108.453 145.716 108.039 145.713 107.675C144.85 93.9819 147.77 82.547 154.245 74.1622C160.787 65.6031 170.662 60.4319 183.468 59.3748C183.837 59.3268 184.252 59.284 184.66 59.2861C197.575 58.4689 208.088 62.2822 215.784 69.9959C217.981 72.2062 219.919 74.7044 221.59 77.5354C222.059 77.4081 222.523 77.3257 223.027 77.2933L272.399 73.7585C273.592 73.6698 274.708 73.845 275.748 74.2842C276.723 73.7156 277.807 73.387 278.999 73.2983L316.773 70.5974C318.055 70.5191 319.3 70.7548 320.38 71.244C321.411 70.5909 322.594 70.183 323.921 70.11L337.535 69.1467C341.75 68.8639 345.43 72.0192 345.707 76.2793L346.111 82.1907L351.16 72.0033C352.343 69.6406 354.676 67.9569 357.519 67.7419L371.866 66.7275C373.014 66.6336 374.085 66.8036 375.086 67.1927C376.011 66.6638 377.095 66.3351 378.242 66.2412L391.766 65.2675C395.981 64.9847 399.661 68.14 399.938 72.4001L401.095 88.264C401.156 88.9076 400.28 88.6239 400.618 88.845C400.702 88.9003 401.615 88.87 403.082 88.7677C404.364 88.6894 405.611 88.5162 406.78 88.2429L405.625 71.9702C405.343 67.7549 408.498 64.0757 412.758 63.7981L426.282 62.8243C427.564 62.7461 428.854 62.987 429.934 63.4762C430.965 62.8231 432.199 62.3756 433.526 62.3025L447.05 61.3288C451.265 61.046 454.944 64.2013 455.222 68.4614L456.107 80.7933L461.884 80.3737L461.004 67.997C460.721 63.7818 463.876 60.1026 468.136 59.8249L481.66 58.8512C485.187 58.6248 488.303 60.7599 489.429 63.9821C494.121 59.2086 501.258 56.0831 511.664 55.338C522.115 54.598 529.644 56.7007 534.972 61.3206C536.089 62.2687 537.056 63.3358 537.968 64.4874C538.686 63.3889 539.489 62.3458 540.422 61.3631C544.834 56.648 551.246 53.8929 559.218 53.3648L587.574 51.1149C591.789 50.832 595.469 53.9874 595.746 58.2475L599.48 110.598C599.763 114.813 596.608 118.492 592.348 118.77L578.824 119.744C574.608 120.026 570.929 116.871 570.652 112.611L570.181 106.101L564.065 117.255C562.852 119.478 560.58 121.032 557.877 121.218L543.938 122.235C543.015 122.355 542.068 122.29 541.142 122.046C540.377 122.366 539.583 122.547 538.71 122.627L525.83 123.539C524.453 123.652 523.033 123.351 521.835 122.711C521.545 122.859 521.205 123.047 520.87 123.19C517.506 124.754 513.566 125.796 509.211 126.108C502.242 126.616 496.573 125.321 492.243 122.681C491.001 124.764 488.789 126.189 486.225 126.346L472.701 127.319C468.486 127.602 464.807 124.447 464.529 120.187L463.532 106.478L457.755 106.897L458.747 120.651C459.03 124.866 455.875 128.546 451.615 128.823L438.091 129.797C436.808 129.875 435.518 129.634 434.438 129.145C433.408 129.798 432.174 130.246 430.847 130.319L417.323 131.292C413.108 131.575 409.428 128.42 409.151 124.16L408.373 113.25C405.762 113.81 402.988 114.215 400.099 114.425C393.36 114.914 387.439 114.226 382.523 111.154L383.569 126.005C383.852 130.22 380.697 133.899 376.437 134.177L362.913 135.151C358.697 135.434 355.018 132.278 354.74 128.018L354.186 120.271L348.381 132.279C347.231 134.737 344.849 136.46 341.96 136.67L328.666 137.625C327.384 137.703 326.138 137.468 325.059 136.979C324.028 137.632 322.844 138.039 321.517 138.113L307.993 139.086C303.778 139.369 300.099 136.214 299.821 131.954L297.92 105.684C297.762 117.985 296.256 125.857 292.853 131.28C288.218 138.697 281.454 140.956 271.507 141.664L269.396 141.828C267.471 141.968 265.634 141.345 264.213 140.271C262.925 141.576 261.235 142.425 259.265 142.559L245.74 143.533C241.525 143.816 237.846 140.661 237.568 136.401L235.156 102.797L228.735 103.278C229.588 117.061 226.68 127.997 220.251 135.979C213.702 144.219 203.879 148.941 191.123 149.959ZM263.984 100.784L265.063 116.139C265.828 115.819 266.672 115.599 267.54 115.563L268.917 115.45C270.064 115.356 270.692 115.429 270.742 115.39C271.789 113.42 272.161 109.054 272.083 100.725L272.096 100.227L263.984 100.784ZM336.516 121.717L338.344 118.111C337.906 117.969 337.468 117.827 337.04 117.596C336.18 117.178 335.43 116.59 334.825 115.929L335.234 121.795L336.516 121.717ZM361.927 84.5747C362.455 84.727 362.983 84.8793 363.45 85.1609C364.266 85.574 364.937 86.0611 365.547 86.6776L365.269 82.4174L362.93 82.6001L361.927 84.5747ZM443.461 95.3255C443.622 95.1169 443.783 94.9082 443.943 94.6996C443.735 94.539 443.531 94.3335 443.367 94.1781L443.461 95.3255ZM475.666 92.4318C475.874 92.5924 476.078 92.7979 476.242 92.9533L476.148 91.8059C476.032 92.0197 475.871 92.2284 475.666 92.4318ZM529.652 102.39C529.368 103.266 528.99 104.177 528.577 104.992C528.706 105.053 528.785 105.153 528.909 105.258C529.287 105.53 529.609 105.885 529.937 106.196L529.652 102.39ZM527.842 84.7223C528.045 84.9278 528.249 85.1333 528.447 85.3836L528.331 83.6427C528.155 83.9858 528.018 84.3791 527.842 84.7223ZM582.614 89.089L582.572 88.6749C582.516 88.7594 582.461 88.8439 582.411 88.8835C582.495 88.9388 582.53 89.0337 582.614 89.089Z" fill="black"/>
<path fill-rule="evenodd" clip-rule="evenodd" d="M189.066 129.717C176.824 130.612 169.174 123.677 167.982 106.945C166.791 90.2134 173.051 80.9397 185.523 80.0255C197.855 79.1405 205.298 87.4613 206.489 104.193C207.686 120.88 199.702 128.953 189.066 129.717ZM189.959 142.368C211.645 140.797 222.793 127.409 221.021 103.155C219.294 78.9051 206.227 65.3845 184.542 66.9552C162.856 68.5259 151.629 83.7684 153.347 107.699C155.082 131.494 168.274 143.939 189.959 142.368ZM258.734 134.997L245.21 135.971L242.233 94.7098L224.264 95.9851L223.457 84.9353L272.829 81.4005L273.636 92.4503L255.757 93.736L258.734 134.997ZM320.992 130.505L317.208 78.1944L279.434 80.8954L279.683 100.654C279.89 119.999 277.094 122.538 269.437 123.103L268.06 123.215L268.866 134.265L270.977 134.101C285.878 133.015 290.63 128.112 290.275 100.658L290.138 91.2772L304.485 90.2628L307.463 131.524L320.992 130.505ZM341.435 129.063L328.141 130.018L324.362 77.6622L337.976 76.6989L340.431 110.716L357.965 75.2493L372.312 74.2349L376.046 126.585L362.522 127.559L359.969 92.03L341.435 129.063ZM430.462 122.682L426.728 70.3317L413.204 71.3054L414.783 93.3101C411.917 94.8864 407.793 95.9526 403.577 96.2355C397.526 96.6686 393.878 95.1989 393.413 88.6439L392.251 72.825L378.727 73.7987L379.863 89.8419C380.915 104.648 388.39 107.608 399.664 106.827C405.715 106.394 411.388 104.917 415.427 103.023L416.893 123.65L430.462 122.682ZM451.229 121.186L437.705 122.16L433.971 69.8099L447.495 68.8362L448.945 88.8256L469.987 87.3165L468.537 67.3271L482.061 66.3534L485.795 118.704L472.271 119.677L470.754 98.3162L449.712 99.8253L451.229 121.186ZM522.887 96.0571C523.215 102.232 518.29 107.843 511.141 108.33C506.786 108.642 504.306 106.899 504.037 102.958C503.735 98.5133 506.112 96.0619 513.896 94.0118C518.915 92.6859 521.338 91.7856 522.602 90.2959L522.887 96.0571ZM538.241 114.935L535.86 81.8357C534.895 68.6308 528.617 61.6275 512.025 62.7901C495.204 63.9715 489.817 71.9829 490.376 82.822L503.256 81.9099C503.579 77.174 505.915 73.8996 512.151 73.4425C517.558 73.0709 521.125 74.8494 521.367 78.2416C521.628 81.8633 519.815 83.3801 512.966 84.8115C499.172 87.7087 489.207 90.1417 490.267 105.267C490.867 113.792 496.829 119.213 508.746 118.371C515.76 117.868 521.135 115.038 524.177 111.164C524.403 112.736 524.833 114.513 525.365 115.802L538.241 114.935ZM591.878 111.078L578.354 112.052L577.087 94.4019L567.504 95.1063L557.402 113.571L543.144 114.596L554.883 94.9576C547.191 93.4724 542.443 88.5563 541.83 79.7565C541.015 68.3875 547.796 61.6748 559.624 60.8221L588.094 58.7672L591.878 111.078ZM562.338 85.1864L576.366 84.1803L575.375 70.0178L561.347 71.0239C556.259 71.387 553.313 74.045 553.644 78.6296C553.959 83.3487 557.205 85.5443 562.338 85.1864Z" fill="#9FC51B"/>
<path fill-rule="evenodd" clip-rule="evenodd" d="M189.206 131.642C182.376 132.121 176.765 130.333 172.723 125.999C169.008 121.975 166.681 115.795 166.041 107.219C166.046 107.175 166.012 107.08 166.017 107.035C165.398 98.2799 166.784 91.4401 169.991 86.5394C173.308 81.4697 178.503 78.6186 185.333 78.1396C192.117 77.6553 197.602 79.7477 201.579 84.2559C205.431 88.6588 207.751 95.293 208.37 104.048C208.991 112.394 207.338 118.794 204.268 123.301C200.756 128.485 195.397 131.18 189.206 131.642ZM175.529 123.37C178.723 126.787 183.239 128.221 188.926 127.791C193.969 127.423 198.309 125.291 201.107 121.161C203.735 117.329 205.059 111.801 204.553 104.423C204.559 104.378 204.564 104.333 204.524 104.283C203.941 96.3957 201.941 90.5261 198.693 86.7845C195.56 83.238 191.205 81.5953 185.752 81.9616C185.663 81.9511 185.568 81.9856 185.478 81.9751C179.925 82.4208 175.8 84.6688 173.202 88.6401C170.443 92.82 169.28 98.913 169.858 106.845C170.462 114.553 172.38 119.958 175.529 123.37ZM190.284 144.269C201.608 143.449 210.21 139.448 215.841 132.466C221.421 125.522 223.88 115.716 223.021 103.16C223.031 103.07 222.997 102.975 223.007 102.885C222.098 90.369 218.193 80.5501 211.724 74.0246C205.17 67.4437 195.995 64.2406 184.626 65.0557C184.536 65.0452 184.441 65.0797 184.352 65.0692C173.072 65.8947 164.468 70.3043 158.84 77.6513C153.213 84.9982 150.658 95.2481 151.532 107.67C151.522 107.759 151.556 107.854 151.546 107.944C152.476 120.281 156.377 129.736 162.934 135.908C169.53 142.13 178.69 145.058 190.059 144.243C190.054 144.288 190.189 144.304 190.284 144.269ZM189.864 140.447C200.181 139.692 207.903 136.225 212.846 130.072C217.794 123.873 220.019 114.903 219.19 103.26C218.362 91.6167 214.867 82.5729 209.002 76.7086C203.222 70.8997 195.043 68.1304 184.776 68.8464C174.555 69.5675 166.825 73.4879 161.891 79.9607C156.8 86.5972 154.574 95.976 155.368 107.524C156.178 118.938 159.719 127.578 165.576 133.123C171.342 138.658 179.548 141.203 189.864 140.447ZM256.714 133.216L247.041 133.91L244.208 94.5303C244.149 93.4778 243.24 92.6902 242.188 92.7497L226.1 93.88L225.578 86.6365L271.099 83.3814L271.621 90.6249L255.667 91.7708C254.615 91.8303 253.827 92.7389 253.887 93.7914L256.714 133.216ZM257.828 95.477L260.66 134.857C260.719 135.909 259.932 136.818 258.879 136.878L245.355 137.851C244.303 137.911 243.394 137.123 243.335 136.071L240.502 96.6907L224.414 97.821C223.362 97.8805 222.453 97.0929 222.394 96.0404L221.587 84.9906C221.527 83.9381 222.315 83.0295 223.367 82.97L272.74 79.4352C273.792 79.3757 274.701 80.1633 274.76 81.2158L275.567 92.2656C275.626 93.3181 274.839 94.2267 273.786 94.2862L257.828 95.477ZM318.922 128.764L315.422 80.2599L281.41 82.6707L281.638 100.654C281.747 110.668 281.035 116.404 279.227 119.831C277.243 123.601 274.306 124.623 270.125 125.001L270.647 132.245L270.876 132.226C277.706 131.747 282.175 130.448 284.75 126.292C287.54 121.843 288.582 114.054 288.405 100.713L288.268 91.3326C288.248 90.3302 289.03 89.4664 290.038 89.4017L304.385 88.3873C305.438 88.3278 306.346 89.1153 306.406 90.1678L309.238 129.548L318.922 128.764ZM319.134 78.0546C319.074 77.0021 318.166 76.2146 317.113 76.2741L279.339 78.975C278.287 79.0345 277.499 79.9431 277.559 80.9956L277.818 100.665C277.916 109.996 277.311 115.199 275.845 118.029C274.622 120.341 272.504 120.959 269.341 121.182L267.965 121.295C266.912 121.355 266.124 122.263 266.184 123.316L266.991 134.365C267.05 135.418 267.959 136.205 269.011 136.146L271.122 135.982C279.188 135.42 284.567 133.726 287.976 128.258C291.209 123.133 292.368 114.721 292.19 100.608L292.074 93.0025L302.71 92.2386L305.542 131.619C305.602 132.671 306.511 133.459 307.563 133.399L321.087 132.425C322.14 132.366 322.927 131.457 322.868 130.405L319.134 78.0546ZM340.193 127.236L329.876 127.992L326.377 79.4876L336.185 78.8092L338.466 110.806C338.477 111.489 338.853 112.169 339.539 112.522C340.484 112.995 341.624 112.582 342.097 111.637L359.152 77.1603L370.521 76.3452L374.026 124.805L364.353 125.499L361.94 91.8954C361.878 91.2518 361.497 90.6166 360.896 90.3193C359.951 89.8457 358.817 90.214 358.343 91.1591L340.193 127.236ZM358.602 99.0994L343.162 129.854C342.864 130.456 342.269 130.887 341.58 130.943L328.286 131.898C327.233 131.958 326.325 131.17 326.265 130.118L322.531 77.7676C322.472 76.7151 323.259 75.8065 324.312 75.747L337.925 74.7837C338.978 74.7243 339.887 75.5118 339.946 76.5643L341.899 103.568L356.333 74.4232C356.631 73.8213 357.226 73.3905 357.91 73.379L372.257 72.3646C373.309 72.3051 374.218 73.0926 374.277 74.1451L378.011 126.495C378.071 127.548 377.283 128.456 376.231 128.516L362.707 129.49C361.654 129.549 360.746 128.762 360.686 127.709L358.602 99.0994ZM428.396 120.896L424.942 72.3972L415.269 73.0912L416.703 93.2152C416.749 93.9933 416.352 94.6745 415.721 95.0104C414.166 95.8752 412.263 96.6086 410.245 97.1469C408.183 97.68 405.957 98.0577 403.712 98.2059C400.275 98.4428 397.494 98.1196 395.337 96.7323C393.1 95.2449 391.751 92.7696 391.482 88.8286L390.466 74.8904L380.793 75.5844L381.828 89.7521C382.312 96.5366 384.167 100.525 387.143 102.69C390.119 104.854 394.425 105.355 399.609 104.957C402.452 104.742 405.182 104.332 407.708 103.717C410.375 103.072 412.743 102.256 414.712 101.348C415.672 100.915 416.807 101.319 417.241 102.279C417.349 102.519 417.418 102.709 417.437 102.938L418.763 121.64L428.396 120.896ZM428.608 70.1867C428.549 69.1342 427.64 68.3466 426.588 68.4061L413.064 69.3798C412.011 69.4393 411.224 70.3479 411.283 71.4004L412.779 92.168C411.724 92.6364 410.54 93.0443 409.272 93.3969C407.444 93.8664 405.453 94.1804 403.432 94.3547C400.818 94.5509 398.75 94.3559 397.443 93.4766C396.215 92.6974 395.49 91.1129 395.339 88.5041L394.132 72.6799C394.073 71.6274 393.164 70.8399 392.112 70.8994L378.587 71.8731C377.535 71.9326 376.747 72.8411 376.807 73.8937L377.942 89.9369C378.51 97.9585 380.944 102.833 384.794 105.69C388.65 108.502 393.713 109.136 399.809 108.708C402.882 108.474 405.847 108.001 408.558 107.361C410.385 106.892 412.128 106.367 413.742 105.782L415.017 123.751C415.077 124.803 415.985 125.591 417.038 125.531L430.562 124.558C431.615 124.498 432.402 123.589 432.343 122.537L428.608 70.1867ZM449.164 119.401L439.491 120.095L435.992 71.5905L445.665 70.8964L446.974 88.9602C447.034 90.0127 447.942 90.8003 448.995 90.7408L470.037 89.2317C471.089 89.1722 471.877 88.2636 471.817 87.2111L470.513 69.1024L480.186 68.4084L483.685 116.913L474.012 117.607L472.64 98.1263C472.58 97.0738 471.672 96.2863 470.619 96.3458L449.577 97.8549C448.525 97.9144 447.737 98.823 447.797 99.8755L449.164 119.401ZM451.738 101.561L453.155 121.047C453.214 122.099 452.427 123.008 451.374 123.067L437.85 124.041C436.798 124.1 435.889 123.313 435.83 122.26L432.046 69.9498C431.986 68.8972 432.774 67.9887 433.826 67.9292L447.35 66.9555C448.403 66.896 449.311 67.6835 449.371 68.736L450.681 86.7998L467.916 85.5756L466.612 67.467C466.552 66.4144 467.34 65.5059 468.392 65.4464L481.916 64.4727C482.969 64.4132 483.877 65.2007 483.937 66.2532L487.671 118.603C487.73 119.656 486.943 120.565 485.89 120.624L472.366 121.598C471.314 121.657 470.405 120.87 470.346 119.817L468.973 100.337L451.738 101.561ZM524.808 95.9621C525.018 99.6235 523.609 103.142 521.123 105.762C518.741 108.259 515.317 109.952 511.326 110.261C511.281 110.256 511.236 110.25 511.186 110.29C508.622 110.447 506.495 109.972 504.95 108.792C503.276 107.552 502.313 105.667 502.156 103.103C501.941 100.26 502.651 98.069 504.64 96.209C506.423 94.5524 509.207 93.285 513.427 92.1843C515.864 91.5584 517.657 90.994 518.946 90.4619C520.045 89.9987 520.731 89.5783 521.202 89.0421C521.884 88.2577 523.122 88.1742 523.906 88.8564C524.318 89.2225 524.535 89.7023 524.567 90.2062L524.808 95.9621ZM518.344 103.075C520.153 101.195 521.123 98.7161 520.967 96.1521L520.834 93.7727C520.689 93.8468 520.499 93.9157 520.354 93.9897C518.875 94.5906 516.942 95.1842 514.316 95.879C510.75 96.8284 508.457 97.7892 507.179 99.0045C506.157 99.9767 505.786 101.207 505.913 102.858C506.025 104.235 506.459 105.194 507.17 105.732C507.965 106.324 509.21 106.56 510.856 106.478L510.946 106.489C514.024 106.21 516.579 104.961 518.344 103.075ZM536.175 113.149L533.934 81.9756C533.507 75.8795 531.904 71.2836 528.558 68.3942C525.172 65.4548 519.912 64.1615 512.165 64.7157C504.278 65.2991 499.126 67.3824 496.078 70.5286C493.496 73.1834 492.361 76.6884 492.251 80.767L501.51 80.1157C501.889 78.0232 502.692 76.2071 504.04 74.7728C505.75 72.9712 508.339 71.8174 511.961 71.5565C515.034 71.3228 517.62 71.7597 519.504 72.7517C521.738 73.8751 523.025 75.7067 523.197 78.1362C523.364 80.6105 522.792 82.4078 520.939 83.8745C519.387 85.1034 517.014 85.964 513.29 86.7131C506.626 88.1205 500.839 89.4027 497.076 92.0566C493.563 94.5122 491.613 98.3771 492.097 105.162C492.382 108.968 493.838 112.092 496.61 114.051C499.299 115.955 503.238 116.867 508.506 116.525C511.669 116.301 514.435 115.577 516.79 114.487C519.239 113.363 521.192 111.817 522.577 110.068C523.219 109.234 524.417 109.1 525.251 109.743C525.669 110.064 525.891 110.499 525.973 110.963C526.069 111.702 526.25 112.496 526.435 113.245C526.504 113.434 526.523 113.664 526.592 113.854L536.175 113.149ZM537.78 81.7407C537.288 74.637 535.291 69.1315 531.076 65.5047C526.905 61.8831 520.769 60.3061 511.925 60.9145C502.985 61.5574 497.058 64.0507 493.339 67.8916C489.564 71.817 488.186 77.0213 488.495 82.9671C488.554 84.0196 489.458 84.852 490.51 84.7925L503.436 83.8855C504.398 83.8156 505.17 83.0416 505.24 82.0496C505.369 80.1553 505.876 78.5321 506.909 77.4702C507.947 76.3634 509.666 75.654 512.235 75.4526C512.325 75.463 512.42 75.4286 512.509 75.439C514.799 75.296 516.633 75.5547 517.921 76.2045C518.906 76.7281 519.5 77.4791 519.57 78.4419C519.664 79.5894 519.436 80.3811 518.735 80.9361C517.734 81.7289 515.795 82.3674 512.67 83.0497C505.542 84.5395 499.426 85.9198 495.022 88.9992C490.373 92.2321 487.844 97.1661 488.42 105.507C488.794 110.506 490.778 114.555 494.554 117.267C497.958 119.663 502.73 120.854 508.965 120.397C512.587 120.136 515.823 119.285 518.607 118.017C520.336 117.218 521.857 116.258 523.169 115.138C523.331 115.702 523.503 116.177 523.675 116.652C523.996 117.416 524.761 117.869 525.584 117.828L538.465 116.916C539.517 116.856 540.305 115.948 540.245 114.895L537.78 81.7407ZM589.813 109.292L580.14 109.986L579.013 94.262C578.953 93.2095 578.044 92.422 576.992 92.4815L567.504 93.1515C566.82 93.163 566.185 93.5438 565.843 94.1404L556.209 111.705L546.676 112.37L556.499 95.9183C556.615 95.7044 556.73 95.4906 556.762 95.2214C556.971 94.2002 556.273 93.1644 555.247 92.9996C551.735 92.3186 548.989 90.9084 547.026 88.6344C545.142 86.4606 543.995 83.4179 543.721 79.5218C543.358 74.4334 544.64 70.4455 547.282 67.6613C550.029 64.753 554.277 63.0192 559.729 62.6528L586.318 60.743L589.813 109.292ZM590.019 58.6274L593.754 110.978C593.813 112.03 593.025 112.939 591.973 112.998L578.449 113.972C577.396 114.031 576.488 113.244 576.428 112.191L575.301 96.4673L568.701 96.9276L559.068 114.492C558.776 115.049 558.185 115.435 557.497 115.491L543.329 116.527C542.915 116.57 542.516 116.478 542.134 116.251C541.244 115.693 540.926 114.52 541.484 113.63L551.919 96.2042C548.763 95.2008 546.133 93.5768 544.13 91.2528C541.731 88.4281 540.259 84.6656 539.899 79.9413C539.437 73.7503 541.102 68.8069 544.477 65.1986C547.896 61.5955 553.008 59.4621 559.474 58.9862L587.988 56.9366C589.051 56.7874 589.96 57.5749 590.019 58.6274ZM562.433 87.1068L576.461 86.1007C577.513 86.0412 578.301 85.1326 578.241 84.0801L577.251 69.9176C577.191 68.8651 576.283 68.0776 575.23 68.137L561.202 69.1431C558.174 69.3821 555.746 70.3272 554.057 71.9494C552.363 73.6163 551.504 75.9259 551.719 78.7694C551.928 81.6578 553.084 83.8379 554.962 85.2836C556.84 86.7293 559.405 87.3457 562.433 87.1068ZM557.271 82.2334C558.399 83.0919 560.088 83.4246 562.198 83.2608L574.345 82.3998L573.59 72.0833L561.442 72.9443C559.332 73.1081 557.718 73.6933 556.741 74.6708C555.864 75.569 555.443 76.8385 555.565 78.5346C555.641 80.2255 556.268 81.4803 557.271 82.2334Z" fill="#9FC51B"/>
<path fill-rule="evenodd" clip-rule="evenodd" d="M571.571 218.355L567.175 157.171L554.733 158.058L558.346 208.379L541.743 209.581L538.13 159.261L525.59 160.169L529.202 210.489L512.6 211.692L509.054 161.348L496.513 162.255L500.909 223.439L571.571 218.355ZM630.205 214.174L614.633 215.305L594.509 189.055L588.171 196.278L589.65 217.1L577.015 217.997L572.619 156.813L585.254 155.916L587.029 180.801L608.659 154.226L625.262 153.023L602.85 178.9L630.205 214.174ZM653.812 203.588C663.03 202.934 669.949 195.938 668.914 181.465C667.88 166.991 661.429 159.784 650.73 160.523C639.965 161.285 634.517 169.379 635.551 183.852C636.586 198.325 643.208 204.338 653.812 203.588ZM654.615 214.551C673.41 213.187 683.039 201.583 681.55 180.568C680.029 159.549 668.731 147.846 649.936 149.21C631.14 150.573 621.424 163.765 622.914 184.493C624.384 205.122 635.824 215.882 654.615 214.551ZM737.583 206.453L724.948 207.35L721.292 156.578L704.788 157.76L705.007 171.275C705.558 203.658 700.481 209.109 685.008 210.22L682.717 210.401L681.934 199.537L683.418 199.422C691.798 198.83 694.157 195.587 693.883 172.092L693.57 148.113L733.187 145.27L737.583 206.453ZM776.123 180.437L760.551 181.568L766.642 156.671L766.74 156.65L776.123 180.437ZM799.248 202.05L773.321 142.391L758.493 143.448L741.031 206.215L754.572 205.232L757.993 192.299L780.559 190.671L785.325 203.021L799.248 202.05Z" fill="black"/>
<path fill-rule="evenodd" clip-rule="evenodd" d="M565.821 213.371L562.191 162.921L560.483 163.042L563.727 208.013C563.926 210.977 561.707 213.564 558.711 213.759L542.109 214.962C539.145 215.161 536.557 212.942 536.362 209.947L533.146 165.011L531.371 165.156L534.583 210.124C534.782 213.088 532.564 215.675 529.568 215.87L512.965 217.073C510.001 217.272 507.414 215.053 507.219 212.057L504.038 167.094L502.263 167.239L505.893 217.689L565.821 213.371ZM566.81 151.79C567.81 151.715 568.745 151.919 569.591 152.337C570.355 151.819 571.289 151.48 572.289 151.404L584.924 150.507C587.888 150.309 590.476 152.527 590.671 155.523L591.497 166.839L604.362 151.041C605.273 149.804 606.683 148.945 608.36 148.82L624.802 147.631C626.222 147.508 627.711 147.905 628.87 148.935C629.453 149.418 629.895 150.013 630.204 150.656C635.294 146.741 641.835 144.368 649.637 143.805C660.694 143.012 669.63 146.161 676.13 152.67C682.431 158.965 686.17 168.318 687.001 180.147C687.353 184.823 687.173 189.117 686.494 193.034C686.744 192.808 686.935 192.542 687.07 192.206C688.351 189.158 688.764 183.133 688.623 172.248L688.609 172.086L688.27 148.328C688.099 145.399 690.342 142.878 693.275 142.676L732.893 139.833C735.857 139.634 738.444 141.853 738.639 144.848L741.499 184.596L753.26 142.264C753.749 139.988 755.715 138.202 758.163 138.039L772.861 136.999C775.124 136.782 777.375 138.035 778.336 140.224L804.242 199.785C804.495 200.358 804.646 200.983 804.699 201.628C804.898 204.592 802.679 207.179 799.684 207.375L785.919 208.364C783.558 208.601 781.254 207.246 780.371 204.938L776.989 196.361L762.224 197.426L759.779 206.636C759.207 208.807 757.319 210.474 754.934 210.644L741.393 211.627C740.846 211.66 740.275 211.625 739.687 211.461C739.149 211.686 738.591 211.813 737.977 211.869L725.342 212.766C722.377 212.965 719.79 210.746 719.595 207.751L716.336 162.363L710.306 162.813L710.446 171.236C710.748 188.437 709.426 198.705 705.768 205.153C701.497 212.744 695.041 214.934 685.433 215.639L683.142 215.821C680.241 216.027 677.738 213.914 677.429 211.065C671.961 216.311 664.452 219.306 655.009 219.967C647.369 220.517 640.702 219.294 635.155 216.412C634.375 218.175 632.661 219.447 630.598 219.59L615.027 220.721C613.287 220.839 611.516 220.121 610.377 218.646L594.22 197.588L593.705 198.168L595.028 216.766C595.227 219.73 593.008 222.317 590.012 222.513L577.377 223.409C576.377 223.485 575.442 223.28 574.596 222.862C573.832 223.381 572.897 223.72 571.898 223.795L501.274 228.82C498.31 229.019 495.723 226.8 495.528 223.805L491.132 162.621C490.933 159.657 493.152 157.07 496.148 156.874L508.688 155.967C511.652 155.768 514.24 157.986 514.435 160.982L517.651 205.917L523.484 205.509L520.272 160.542C520.073 157.578 522.292 154.991 525.287 154.795L537.828 153.888C540.792 153.689 543.379 155.907 543.574 158.903L546.762 203.803L552.596 203.394L549.384 158.427C549.185 155.463 551.404 152.876 554.399 152.681L566.81 151.79ZM619.782 209.51L598.597 182.209C596.984 180.136 597.125 177.275 598.786 175.359L612.669 159.327L611.378 159.432L591.241 184.167C589.374 186.476 585.978 186.816 583.67 184.95C582.472 183.979 581.802 182.591 581.715 181.142L580.306 161.638L578.436 161.773L582.066 212.223L583.936 212.088L582.825 196.615C582.717 195.068 583.272 193.598 584.287 192.565L590.512 185.489C592.466 183.255 595.879 183.044 598.113 184.998C598.375 185.22 598.629 185.506 598.825 185.752L617.2 209.722L619.782 209.51ZM609.831 179.072L618.087 189.718C617.87 188.286 617.692 186.795 617.584 185.248C617.563 185.149 617.546 185.02 617.557 184.925L617.565 184.862C617.128 178.993 617.562 173.609 618.726 168.822L609.831 179.072ZM654.181 208.938C660.66 208.476 666.331 205.619 670.072 200.108C673.195 195.516 674.854 189.22 674.264 181.096C673.648 172.649 671.331 166.178 667.468 161.733C663.236 156.893 657.454 154.655 650.365 155.142C643.209 155.652 637.772 158.697 634.203 164.1C631.016 168.972 629.6 175.648 630.137 183.958C630.15 184.119 630.16 184.312 630.173 184.473C630.815 192.7 633.116 198.753 636.925 202.84C641.27 207.533 647.12 209.459 654.181 208.938ZM644.837 195.544C646.769 197.623 649.707 198.476 653.446 198.207C656.67 197.975 659.447 196.635 661.182 194.088C662.955 191.481 663.887 187.593 663.549 182.248C663.512 182.019 663.509 181.763 663.507 181.507C663.035 175.667 661.644 171.413 659.385 168.849C657.551 166.75 654.856 165.733 651.447 165.912C651.218 165.95 650.994 165.956 650.77 165.961C647.31 166.295 644.754 167.66 643.199 170.036C641.294 172.948 640.479 177.488 640.897 183.514C641.349 189.257 642.679 193.216 644.837 195.544ZM654.443 209.16C662.217 208.561 667.984 205.971 671.541 201.494C675.173 196.929 676.764 190.113 676.175 181.158C676.162 180.996 676.145 180.867 676.131 180.705C675.459 171.644 672.78 164.716 668.37 160.303C664.134 156.039 658.04 154.02 650.27 154.587C642.5 155.154 636.699 158.028 633.074 162.818C629.296 167.813 627.626 175.035 628.239 184.057C628.256 184.187 628.242 184.313 628.258 184.443C628.936 193.184 631.565 199.724 635.913 203.841C640.146 207.85 646.228 209.707 653.959 209.2C654.155 209.158 654.317 209.145 654.443 209.16ZM731.833 201.469L728.204 151.02L722.819 151.417C724.924 152.013 726.527 153.893 726.705 156.216L729.964 201.604L731.833 201.469ZM702.607 152.871L699.029 153.126L699.294 172.018C699.287 172.081 699.28 172.144 699.308 172.179C699.462 184.6 698.84 191.88 696.905 196.418C694.829 201.356 691.905 203.413 687.745 204.272L687.779 204.532C691.972 203.932 694.801 202.695 696.446 199.817C699.065 195.167 700.003 186.549 699.726 171.333L699.507 157.817C699.409 155.632 700.72 153.707 702.607 152.871ZM767.566 175.67L768.436 175.612L767.921 174.273L767.566 175.67ZM759.336 186.797C757.094 186.281 755.368 184.354 755.17 181.933C755.142 181.355 755.173 180.815 755.298 180.286L761.389 155.389C762.008 152.807 764.412 151.105 766.982 151.276C769.239 151.378 771.174 152.882 771.858 154.975L781.143 178.495C782.227 181.274 780.875 184.378 778.096 185.461L778.061 185.489L780.19 185.321C782.607 185.155 784.77 186.621 785.608 188.764L788.951 197.4L791.305 197.226L769.912 148.068L762.63 148.564L748.239 200.308L750.334 200.168L752.779 190.958C753.404 188.601 755.509 186.992 757.849 186.944L759.336 186.797Z" fill="black"/>
<path fill-rule="evenodd" clip-rule="evenodd" d="M567.23 211.425L562.834 150.241L550.392 151.128L554.036 201.452L537.433 202.655L533.821 152.335L521.28 153.243L524.893 203.563L508.29 204.766L504.713 154.418L492.172 155.325L496.568 216.509L567.23 211.425ZM625.867 207.213L610.296 208.344L590.171 182.093L583.833 189.316L585.313 210.139L572.678 211.035L568.282 149.852L580.917 148.955L582.691 173.839L604.321 147.264L620.924 146.061L598.512 171.938L625.867 207.213ZM649.474 196.627C658.693 195.972 665.612 188.977 664.577 174.503C663.542 160.03 657.092 152.823 646.393 153.561C635.627 154.324 630.179 162.417 631.214 176.891C632.245 191.395 638.867 197.408 649.474 196.627ZM650.274 207.621C669.069 206.257 678.698 194.653 677.209 173.638C675.688 152.619 664.39 140.916 645.594 142.28C626.799 143.643 617.082 156.835 618.573 177.563C620.043 198.192 631.451 208.949 650.274 207.621ZM733.242 199.523L720.607 200.42L716.982 149.651L700.478 150.834L700.697 164.349C701.248 196.731 696.171 202.183 680.698 203.293L678.407 203.475L677.624 192.611L679.108 192.496C687.488 191.903 689.847 188.661 689.574 165.166L689.26 141.186L728.846 138.34L733.242 199.523ZM771.781 173.507L756.21 174.638L762.301 149.741L762.399 149.72L771.781 173.507ZM794.91 195.088L768.948 135.457L754.12 136.515L736.659 199.281L750.199 198.298L753.62 185.366L776.186 183.737L780.952 196.087L794.91 195.088Z" fill="black"/>
<path fill-rule="evenodd" clip-rule="evenodd" d="M561.016 206.036L557.441 156.487L556.634 156.553L559.834 201.071C559.999 203.232 558.94 205.187 557.272 206.336L561.016 206.036ZM562.457 144.411C563.425 144.332 564.364 144.505 565.214 144.892C566.006 144.408 566.905 144.097 567.905 144.022L580.54 143.125C583.764 142.892 586.549 145.326 586.751 148.546L587.484 158.733L599.605 143.839C600.594 142.483 602.138 141.576 603.944 141.434L620.354 140.241C621.905 140.102 623.484 140.541 624.762 141.648C625.226 142.054 625.616 142.547 625.94 143.064C630.941 139.362 637.247 137.09 644.702 136.486C644.993 136.456 645.284 136.426 645.603 136.431C656.519 135.75 665.392 138.891 671.899 145.338C678.351 151.714 682.17 161.204 683.011 173.226C683.243 176.449 683.238 179.518 682.999 182.399C683.655 178.959 683.833 173.577 683.758 165.417L683.745 165.255L683.403 141.528C683.229 138.343 685.656 135.621 688.816 135.381L728.434 132.538C731.658 132.305 734.444 134.739 734.645 137.959L737.325 175.128L748.411 135.307C748.953 132.845 751.063 130.917 753.708 130.713L768.374 129.668C770.83 129.442 773.264 130.78 774.297 133.17L800.203 192.73C800.484 193.338 800.659 194.03 800.705 194.739C800.937 197.962 798.504 200.748 795.284 200.949L781.55 201.942C778.996 202.189 776.479 200.745 775.524 198.237L772.305 189.903L758.186 190.915L755.841 199.817C755.215 202.174 753.151 203.98 750.604 204.163L737.064 205.146C736.517 205.179 735.945 205.144 735.353 205.011C734.816 205.237 734.226 205.36 733.647 205.389L721.012 206.285C717.788 206.518 715.002 204.084 714.801 200.864L711.589 155.897L706.433 156.257L706.557 164.263C706.852 181.527 705.523 191.858 701.818 198.428C697.434 206.166 690.873 208.44 681.138 209.13L678.848 209.312C676.01 209.525 673.481 207.633 672.8 204.964C667.407 209.836 660.137 212.699 651.167 213.414C650.876 213.444 650.585 213.475 650.266 213.469C642.893 213.923 636.443 212.758 631.004 210.048C630.073 211.73 628.338 212.902 626.307 213.05L610.736 214.181C608.866 214.315 606.945 213.516 605.691 211.932L589.869 191.296L589.833 191.324L591.146 209.73C591.379 212.954 588.945 215.74 585.725 215.941L573.09 216.837C572.122 216.917 571.183 216.744 570.333 216.357C569.541 216.84 568.642 217.152 567.642 217.227L496.949 222.308C493.725 222.54 490.939 220.107 490.738 216.886L486.342 155.703C486.11 152.479 488.543 149.693 491.763 149.492L504.304 148.584C507.528 148.351 510.313 150.785 510.515 154.005L513.719 198.492L518.651 198.138L515.482 153.624C515.249 150.4 517.683 147.614 520.903 147.413L533.443 146.505C536.667 146.272 539.453 148.706 539.654 151.926L542.858 196.413L547.79 196.059L544.59 151.541C544.357 148.317 546.791 145.531 550.011 145.33L562.457 144.411ZM534.907 207.892C533.091 207.009 531.768 205.193 531.604 203.032L528.4 158.546L527.498 158.601L530.698 203.119C530.863 205.28 529.804 207.234 528.137 208.383L534.907 207.892ZM505.799 209.974C503.983 209.092 502.66 207.276 502.496 205.115L499.292 160.628L498.39 160.683L501.961 210.263L505.799 209.974ZM614.559 202.19L593.907 175.527C592.796 174.087 592.43 172.286 592.817 170.605L587.856 176.709C589.842 175.853 592.267 176.167 594.009 177.68C594.299 177.938 594.553 178.223 594.776 178.505L613.016 202.267L614.559 202.19ZM606.064 172.145L613.07 181.175C612.952 180.266 612.866 179.361 612.783 178.424C612.753 178.133 612.723 177.842 612.728 177.523C612.389 172.465 612.675 167.799 613.556 163.522L606.064 172.145ZM606.832 153.438L607.308 152.918L607.277 152.914L606.832 153.438ZM584.912 179.212C583 179.981 580.73 179.717 579.036 178.337C577.719 177.289 577.001 175.767 576.893 174.22L575.527 155.169L574.528 155.245L578.071 204.79L579.071 204.714L578.004 189.693C577.879 188.017 578.511 186.428 579.569 185.304L584.912 179.212ZM648.676 190.844C648.904 190.807 649.16 190.804 649.385 190.799C652.198 190.518 654.603 189.359 656.188 187.274C658.076 184.776 659.075 180.864 658.755 175.361C658.722 175.101 658.688 174.842 658.686 174.586C658.234 168.843 656.86 164.719 654.688 162.229C652.937 160.236 650.397 159.269 647.149 159.435C646.92 159.472 646.665 159.475 646.44 159.48C643.142 159.8 640.723 161.086 639.246 163.343C637.423 166.104 636.636 170.392 636.993 176.124C637.027 176.383 637.061 176.643 637.059 176.931C637.501 182.48 638.849 186.281 640.963 188.445C642.735 190.249 645.334 190.999 648.676 190.844ZM636.492 199.689C635.055 198.851 633.738 197.802 632.542 196.545C628.46 192.33 625.999 186.002 625.38 177.299C624.775 168.758 626.209 161.924 629.478 156.901C631.496 153.843 634.099 151.525 637.252 149.973C633.861 151.369 631.13 153.417 629.124 156.093C625.389 160.997 623.758 168.16 624.382 177.087C625.021 185.889 627.618 192.424 631.939 196.506C633.254 197.842 634.795 198.884 636.492 199.689ZM654.942 148.769C658.236 149.855 661.112 151.788 663.479 154.524C667.401 159.008 669.766 165.612 670.375 174.122C670.99 182.857 669.063 189.538 665.508 194.271C663.728 196.654 661.566 198.48 659.14 199.828C662.323 198.568 664.899 196.758 666.808 194.358C670.436 189.825 672.024 183.041 671.375 174.047C670.71 164.923 668.062 157.998 663.648 153.617C661.328 151.301 658.388 149.649 654.942 148.769ZM726.996 194.13L723.457 144.554L720.233 144.787C721.687 145.755 722.682 147.373 722.816 149.243L726.032 194.178L726.996 194.13ZM696.604 146.483L695.152 146.602L695.192 148.461C695.504 147.698 695.995 147.052 696.604 146.483ZM692.863 189.939C691.724 192.588 690.299 194.404 688.584 195.675C689.914 194.966 690.918 194.028 691.678 192.71C692.093 191.895 692.518 190.986 692.863 189.939ZM753.082 179.549C751.565 178.573 750.507 176.948 750.38 175.015C750.324 174.401 750.393 173.802 750.522 173.242L754.665 156.301L744.504 192.841L745.634 192.748L747.979 183.847C748.64 181.462 750.721 179.786 753.082 179.549ZM757.362 146.577C758.497 144.791 760.536 143.75 762.692 143.904C765.107 144.025 767.189 145.642 767.917 147.9L777.206 171.389C778.145 173.767 777.391 176.397 775.55 177.941L775.809 177.907C778.419 177.731 780.76 179.314 781.674 181.626L784.897 189.928L786.283 189.834L765.263 141.582L758.654 142.06L757.362 146.577Z" fill="black"/>
<path fill-rule="evenodd" clip-rule="evenodd" d="M567.23 211.425L562.834 150.241L550.392 151.128L554.036 201.452L537.433 202.655L533.821 152.335L521.28 153.243L524.893 203.563L508.29 204.766L504.713 154.418L492.172 155.325L496.568 216.509L567.23 211.425ZM625.867 207.213L610.296 208.344L590.171 182.093L583.833 189.316L585.313 210.139L572.678 211.035L568.282 149.852L580.917 148.955L582.691 173.839L604.321 147.264L620.924 146.061L598.512 171.938L625.867 207.213ZM649.474 196.627C658.693 195.972 665.612 188.977 664.577 174.503C663.542 160.03 657.092 152.823 646.393 153.561C635.627 154.324 630.179 162.417 631.214 176.891C632.245 191.395 638.867 197.408 649.474 196.627ZM650.274 207.621C669.069 206.257 678.698 194.653 677.209 173.638C675.688 152.619 664.39 140.916 645.594 142.28C626.799 143.643 617.082 156.835 618.573 177.563C620.043 198.192 631.451 208.949 650.274 207.621ZM733.242 199.523L720.607 200.42L716.982 149.651L700.478 150.834L700.697 164.349C701.248 196.731 696.171 202.183 680.698 203.293L678.407 203.475L677.624 192.611L679.108 192.496C687.488 191.903 689.847 188.661 689.574 165.166L689.26 141.186L728.846 138.34L733.242 199.523ZM771.781 173.507L756.21 174.638L762.301 149.741L762.399 149.72L771.781 173.507ZM794.91 195.088L768.948 135.457L754.12 136.515L736.659 199.281L750.199 198.298L753.62 185.366L776.186 183.737L780.952 196.087L794.91 195.088Z" fill="#E84C0A"/>
<path fill-rule="evenodd" clip-rule="evenodd" d="M565.083 209.545L560.986 152.392L552.574 152.98L556.036 201.301C556.097 202.427 555.282 203.387 554.156 203.448L537.553 204.651C536.427 204.712 535.467 203.897 535.406 202.771L531.941 154.482L523.431 155.091L526.892 203.412C526.953 204.538 526.138 205.498 525.012 205.559L508.445 206.734C507.319 206.794 506.359 205.98 506.298 204.854L502.833 156.565L494.323 157.174L498.42 214.327L565.083 209.545ZM564.865 150.094L569.261 211.278C569.322 212.404 568.507 213.364 567.381 213.425L496.687 218.505C495.561 218.566 494.601 217.751 494.54 216.625L490.145 155.441C490.084 154.315 490.899 153.355 492.024 153.294L504.565 152.387C505.691 152.326 506.651 153.141 506.712 154.266L510.177 202.555L522.749 201.651L519.288 153.331C519.227 152.205 520.042 151.245 521.168 151.184L533.708 150.276C534.834 150.215 535.794 151.03 535.855 152.156L539.321 200.445L551.893 199.541L548.431 151.22C548.37 150.094 549.185 149.134 550.311 149.073L562.753 148.186C563.813 148.149 564.801 148.999 564.865 150.094ZM621.945 205.478L611.211 206.244L591.752 180.87C591.668 180.765 591.585 180.659 591.497 180.585C590.656 179.848 589.4 179.926 588.663 180.767L582.364 187.931C581.997 188.336 581.774 188.885 581.834 189.467L583.194 208.294L574.585 208.924L570.464 151.704L579.072 151.074L580.699 173.927C580.732 174.475 580.992 174.984 581.428 175.355C582.305 176.064 583.568 175.923 584.274 175.078L605.343 149.205L616.206 148.422L596.973 170.609C596.345 171.335 596.318 172.387 596.9 173.157L621.945 205.478ZM601.124 172.018L627.424 205.923C627.674 206.24 627.851 206.644 627.867 207.062C627.927 208.188 627.113 209.148 625.987 209.209L610.415 210.34C609.77 210.392 609.098 210.122 608.683 209.563L590.061 185.245L585.899 189.972L587.347 209.96C587.408 211.086 586.594 212.046 585.468 212.107L572.832 213.003C571.706 213.064 570.746 212.249 570.685 211.124L566.29 149.94C566.229 148.814 567.044 147.854 568.169 147.793L580.805 146.896C581.931 146.835 582.891 147.65 582.952 148.776L584.359 168.567L602.704 146.053C603.047 145.581 603.595 145.262 604.205 145.237L620.741 144.058C621.261 143.991 621.817 144.151 622.25 144.553C623.092 145.29 623.201 146.55 622.464 147.391L601.124 172.018ZM649.193 194.644C649.292 194.624 649.386 194.635 649.453 194.61C653.42 194.304 656.904 192.664 659.248 189.548C661.701 186.316 663.002 181.449 662.559 174.812C662.539 174.714 662.55 174.619 662.529 174.521C662.03 167.814 660.341 162.822 657.576 159.656C654.951 156.666 651.276 155.28 646.67 155.575C646.572 155.596 646.477 155.585 646.411 155.609C641.735 155.961 638.253 157.857 636.073 161.216C633.744 164.75 632.761 169.91 633.228 176.613C633.249 176.711 633.238 176.806 633.258 176.904C633.765 183.548 635.459 188.221 638.229 191.068C640.852 193.802 644.588 194.94 649.193 194.644ZM649.622 198.658C654.81 198.302 659.348 196.112 662.483 191.969C665.505 187.973 667.14 182.154 666.573 174.384C666.026 166.712 663.987 160.881 660.602 157.003C657.073 152.981 652.237 151.14 646.242 151.562C640.18 152.008 635.605 154.513 632.655 158.997C629.821 163.303 628.605 169.363 629.151 177.034C629.722 184.773 631.826 190.324 635.252 193.855C638.848 197.565 643.69 199.087 649.622 198.658ZM650.127 205.589C658.959 204.954 665.57 201.982 669.763 196.716C674.022 191.425 675.874 183.744 675.181 173.754C674.464 163.697 671.435 155.929 666.362 150.896C661.432 146.007 654.449 143.661 645.746 144.279C636.944 144.919 630.321 148.272 626.092 153.854C621.789 159.524 619.896 167.551 620.604 177.415C621.319 187.216 624.328 194.599 629.336 199.369C634.288 204.068 641.326 206.229 650.127 205.589ZM672.92 199.256C674.003 197.912 674.944 196.423 675.769 194.824L676.412 203.594C676.472 204.72 677.464 205.539 678.559 205.474L680.849 205.293C689.296 204.676 694.913 202.836 698.49 196.539C701.826 190.661 703.026 180.891 702.745 164.331L702.558 152.738L715.13 151.834L718.635 200.607C718.696 201.733 719.688 202.551 720.782 202.487L733.418 201.59C734.126 201.544 734.752 201.106 735.078 200.504C735.325 200.853 735.71 201.121 736.172 201.271C736.389 201.328 736.641 201.357 736.834 201.348L750.374 200.364C751.276 200.309 751.987 199.689 752.181 198.848L755.248 187.313L774.913 185.891L779.139 196.835C779.485 197.706 780.356 198.191 781.226 198.133L795.086 197.154C796.211 197.093 797.03 196.102 796.965 195.007C796.963 194.751 796.894 194.52 796.79 194.316L770.8 134.649C770.447 133.841 769.607 133.36 768.765 133.454L753.969 134.515C753.068 134.57 752.317 135.25 752.124 136.091L735.094 197.341L730.877 138.192C730.817 137.066 729.825 136.248 728.73 136.312L689.081 139.151C687.987 139.216 687.14 140.173 687.205 141.267L687.529 165.152L687.522 165.215C687.664 176.644 687.204 183.079 685.706 186.613C684.51 189.479 682.346 190.219 678.929 190.461L677.512 190.552C679.097 185.717 679.662 180.029 679.208 173.487C678.419 162.399 674.981 153.752 669.189 148.028C663.429 142.307 655.469 139.56 645.577 140.232C645.482 140.221 645.352 140.238 645.254 140.258C635.32 141.022 627.74 144.904 622.826 151.429C617.954 157.863 615.77 166.752 616.497 177.545C616.486 177.64 616.507 177.738 616.523 177.868C617.317 188.637 620.768 196.902 626.502 202.3C632.292 207.768 640.305 210.33 650.232 209.63C650.327 209.641 650.425 209.62 650.555 209.603C660.454 208.868 668.022 205.368 672.92 199.256ZM731.095 197.644L722.487 198.273L719.013 149.504C718.953 148.378 717.961 147.559 716.866 147.624L700.362 148.806C699.299 148.874 698.46 149.768 698.493 150.859L698.712 164.374C698.983 180.197 697.919 189.344 694.979 194.564C692.279 199.365 687.64 200.776 680.578 201.297L680.287 201.328L679.803 194.494C684.486 194.08 687.544 192.805 689.45 188.231C691.171 184.148 691.718 177.243 691.579 165.239L691.586 165.176L691.274 143.115L726.991 140.553L731.095 197.644ZM771.929 175.538L756.358 176.669C755.232 176.73 754.271 175.915 754.211 174.789C754.205 174.565 754.227 174.375 754.249 174.186L760.34 149.289C760.576 148.357 761.382 147.748 762.311 147.728C763.244 147.677 764.037 148.28 764.324 149.113L773.686 172.801C774.108 173.842 773.59 174.996 772.55 175.419C772.322 175.456 772.126 175.497 771.929 175.538ZM758.834 172.418L762.79 156.255L768.891 171.701L758.834 172.418ZM791.921 193.302L782.348 193.979L778.122 183.035C777.8 182.23 777.004 181.658 776.098 181.745L753.599 183.349C752.733 183.376 751.93 183.954 751.698 184.854L748.631 196.389L739.381 197.04L755.689 138.423L767.682 137.548L791.921 193.302Z" fill="#E84C0A"/>
</svg>
